<svg width="24" height="24" viewBox="0 0 24 24" fill="none" xmlns="http://www.w3.org/2000/svg">
<path d="M19 13C19 13.1272 19.0243 13.2533 19.0715 13.3714L19.9744 15.6286C20.2372 16.2855 19.7534 17 19.0459 17H4.95407C4.2466 17 3.76284 16.2855 4.02559 15.6286L4.92848 13.3714C4.97572 13.2533 5 13.1272 5 13V8C5 4.13401 8.13401 1 12 1C15.866 1 19 4.13401 19 8V13Z" stroke="black" stroke-width="2" stroke-linecap="round" stroke-linejoin="round"/>
<path d="M15 18C15 19.6569 13.6569 21 12 21C10.3431 21 9 19.6569 9 18" stroke="black" stroke-width="2" stroke-linecap="round" stroke-linejoin="round"/>
<line x1="3.18433" y1="19.8249" x2="20.1549" y2="2.85436" stroke="black" stroke-width="2" stroke-linecap="round"/>
</svg>
