<svg width="25" height="25" viewBox="0 0 25 25" fill="none" xmlns="http://www.w3.org/2000/svg">
<path d="M19.7057 16.9839C19.4455 17.58 19.124 18.1483 18.7462 18.6801C18.2416 19.3884 17.8271 19.8777 17.5095 20.1501C17.0161 20.5952 16.4861 20.8242 15.9194 20.8371C15.5134 20.8371 15.0229 20.7235 14.4515 20.4927C13.8782 20.2628 13.352 20.1501 12.8699 20.1501C12.3652 20.1501 11.8239 20.2628 11.2441 20.4927C10.6652 20.7235 10.1972 20.8445 9.83911 20.8556C9.29687 20.8787 8.75462 20.6441 8.21426 20.1501C7.86936 19.8547 7.43801 19.3468 6.9202 18.6284C6.36573 17.863 5.90995 16.9719 5.55284 15.959C5.17035 14.863 4.97864 13.803 4.97864 12.7762C4.97864 11.6007 5.23707 10.586 5.75489 9.73648C6.14653 9.06932 6.70645 8.51251 7.38068 8.11968C8.04554 7.72787 8.80451 7.5169 9.57974 7.50841C10.012 7.50841 10.5787 7.63953 11.2807 7.89807C11.9827 8.15661 12.4338 8.28773 12.6302 8.28773C12.7787 8.28773 13.2777 8.13353 14.1273 7.8279C14.9289 7.54443 15.6055 7.42716 16.16 7.47333C17.6636 7.59244 18.7923 8.17416 19.5432 9.22309C18.1993 10.0236 17.5349 11.1437 17.548 12.5814C17.5593 13.7014 17.9737 14.6331 18.7857 15.3727C19.1447 15.7102 19.5635 15.9803 20.0215 16.1695C19.9219 16.453 19.8166 16.7235 19.7057 16.9839ZM16.2596 3.65893C16.2596 4.53612 15.9326 5.35606 15.2832 6.11414C14.4975 7.01534 13.5484 7.53704 12.5193 7.45486C12.5059 7.34455 12.4993 7.23355 12.4996 7.12245C12.4996 6.27942 12.8717 5.37822 13.5362 4.64046C13.867 4.26742 14.288 3.95625 14.7983 3.70879C15.3076 3.46502 15.7888 3.33021 16.2417 3.30713C16.254 3.42532 16.2596 3.54259 16.2596 3.65893Z" fill="white"/>
</svg>
