<svg width="76" height="79" viewBox="0 0 76 79" fill="none" xmlns="http://www.w3.org/2000/svg">
<path d="M8.35324 35.1608C10.3256 32.8402 12.7624 31.6795 15.6633 31.7959C12.7624 27.3867 6.49667 26.8064 2.78394 30.7516C3.36369 31.2162 3.94398 34.3485 8.35324 35.1608Z" fill="#AA3DD0"/>
<path d="M9.93895 35.6493C10.9832 38.5502 10.7512 41.219 9.24292 43.6554H9.35919C14.5808 43.1913 18.1777 38.0856 16.6692 33.0967C15.8564 33.4444 12.8392 32.2844 9.93885 35.6493H9.93895Z" fill="#AA3DD0"/>
<path d="M8.44103 36.4557C5.42446 35.9917 3.21947 34.3671 1.82701 31.8145C-0.493537 36.5719 2.17528 42.2574 7.28049 43.5338C7.51303 42.7215 10.0657 40.6329 8.44106 36.4557H8.44103Z" fill="#AA3DD0"/>
<circle cx="58.9407" cy="10.196" r="7" transform="rotate(36.1616 58.9407 10.196)" fill="black"/>
<rect x="56.9802" y="41.1113" width="26" height="8" rx="4" transform="rotate(88.8215 56.9802 41.1113)" fill="black"/>
<rect x="52.5271" y="44.6484" width="41.249" height="8" rx="4" transform="rotate(160.421 52.5271 44.6484)" fill="black"/>
<rect x="53.7566" y="60.249" width="21.4418" height="8" rx="4" transform="rotate(34.2191 53.7566 60.249)" fill="black"/>
<rect x="63.0798" y="19.4141" width="19.0051" height="7" rx="3.5" transform="rotate(50.2359 63.0798 19.4141)" fill="black"/>
<rect x="73.488" y="31.9756" width="16.4108" height="7" rx="3.5" transform="rotate(82.1419 73.488 31.9756)" fill="black"/>
<rect x="51.5271" y="17.7988" width="15" height="25" rx="4" transform="rotate(14.5977 51.5271 17.7988)" fill="black"/>
</svg>
