<svg width="89" height="81" viewBox="0 0 89 81" fill="none" xmlns="http://www.w3.org/2000/svg">
<path d="M43.0054 1.19146C42.0116 1.60731 41.1361 2.26262 40.4569 3.09886C40.7229 3.6381 41.0278 4.15721 41.3692 4.65214C42.2506 3.68974 42.8209 2.48348 43.0054 1.19141V1.19146Z" fill="#AA3DD0"/>
<path d="M39.0674 6.26595C39.8012 5.96227 40.4729 5.52619 41.0488 4.97944C40.7198 4.50444 40.4204 4.00964 40.1523 3.4978C39.5804 4.32372 39.209 5.27151 39.0674 6.26587V6.26595Z" fill="#AA3DD0"/>
<path d="M48.9812 1.70711C48.1729 1.19249 47.2604 0.86368 46.3097 0.744309C45.3589 0.624933 44.3935 0.717993 43.483 1.01679C43.3212 2.51904 42.6726 3.92728 41.636 5.02673C42.0606 5.6182 42.5225 6.18196 43.0189 6.71449C44.458 5.13659 46.5962 3.07906 48.9811 1.70732L48.9812 1.70711Z" fill="#AA3DD0"/>
<path d="M42.7119 7.05053C42.2089 6.51359 41.7403 5.94532 41.3088 5.34937C40.6449 5.96804 39.8658 6.45016 39.0159 6.76816C39.0002 6.90935 39.0002 7.05053 39.0002 7.19403C38.9966 8.37908 39.3192 9.5422 39.9325 10.5561C40.7866 9.33197 41.7147 8.16124 42.7119 7.05058L42.7119 7.05053Z" fill="#AA3DD0"/>
<path d="M50.5436 5.76853C50.9891 5.76923 51.4334 5.81276 51.8706 5.89851C51.5509 4.33583 50.6688 2.94498 49.3915 1.9895C46.9708 3.33435 44.7855 5.43896 43.3264 7.03945C43.8514 7.57588 44.4116 8.0768 45.003 8.53899C45.6493 7.68006 46.4861 6.98292 47.4475 6.5021C48.409 6.02139 49.4689 5.77036 50.5437 5.76864L50.5436 5.76853Z" fill="#AA3DD0"/>
<path d="M43.0213 7.37556C42.0051 8.50567 41.0625 9.69971 40.1995 10.9505C41.0386 12.1309 42.2467 12.9982 43.6333 13.4161C43.6109 13.192 43.593 12.9454 43.593 12.7145C43.5927 11.3596 43.9909 10.0346 44.7383 8.90415C44.1328 8.43325 43.5592 7.92255 43.0214 7.37549L43.0213 7.37556Z" fill="#AA3DD0"/>
<path d="M50.5433 6.2168C49.538 6.2176 48.5466 6.45164 47.6469 6.90044C46.7474 7.34931 45.9642 8.00062 45.3589 8.80333C46.8723 9.91873 48.567 10.7642 50.3684 11.3025C50.4091 11.3167 50.4449 11.3424 50.4714 11.3764C51.0518 10.6911 51.4827 9.89211 51.7366 9.03066C51.9906 8.16922 52.062 7.26426 51.9463 6.37376C51.4857 6.2704 51.0152 6.21777 50.5432 6.21687L50.5433 6.2168Z" fill="#AA3DD0"/>
<path d="M44.0432 12.7168C44.0449 12.9919 44.0636 13.2666 44.0992 13.5393C45.1834 13.7801 46.3113 13.7381 47.3745 13.4174C48.4378 13.0967 49.4008 12.5081 50.1712 11.7082C48.349 11.1568 46.6337 10.2995 45.0988 9.1731C44.4091 10.2262 44.0422 11.4579 44.0431 12.7168L44.0432 12.7168Z" fill="#AA3DD0"/>
<circle cx="78" cy="20.6938" r="7" fill="black"/>
<rect x="72.8164" y="48.6362" width="20.8241" height="8" rx="4" transform="rotate(104.05 72.8164 48.6362)" fill="black"/>
<rect x="78.9814" y="47.6938" width="20.8241" height="8" rx="4" transform="rotate(86.0549 78.9814 47.6938)" fill="black"/>
<rect x="67.042" y="60.6938" width="18.4027" height="8" rx="4" transform="rotate(61.668 67.042 60.6938)" fill="black"/>
<rect x="77.4639" y="60.6938" width="13.5567" height="8" rx="4" transform="rotate(33.9164 77.4639 60.6938)" fill="black"/>
<rect x="54.1299" y="26.6938" width="16.9092" height="7" rx="3.5" transform="rotate(47.1282 54.1299 26.6938)" fill="black"/>
<rect x="55.3779" y="12.4214" width="26.8328" height="7" rx="3.5" transform="rotate(47.1282 55.3779 12.4214)" fill="black"/>
<rect x="57" y="39.9282" width="18.6359" height="7" rx="3.5" transform="rotate(-37.0734 57 39.9282)" fill="black"/>
<rect x="67.0898" y="27.521" width="15" height="25" rx="4" transform="rotate(7.87682 67.0898 27.521)" fill="black"/>
<line x1="0.5" y1="32.1938" x2="0.5" y2="4.19385" stroke="black" stroke-linecap="round"/>
<line x1="0.5" y1="-0.5" x2="22.591" y2="-0.5" transform="matrix(-0.130134 -0.991496 0.994767 -0.102172 11.0049 29.5884)" stroke="black" stroke-linecap="round"/>
<line x1="0.5" y1="-0.5" x2="22.591" y2="-0.5" transform="matrix(-0.130134 -0.991496 0.994767 -0.102172 17.0049 29.5884)" stroke="black" stroke-linecap="round"/>
<line x1="0.5" y1="-0.5" x2="22.591" y2="-0.5" transform="matrix(0.130134 -0.991496 -0.994767 -0.102172 27 29.5884)" stroke="black" stroke-linecap="round"/>
<line x1="0.5" y1="-0.5" x2="22.591" y2="-0.5" transform="matrix(0.130134 -0.991496 -0.994767 -0.102172 21 29.5884)" stroke="black" stroke-linecap="round"/>
<line x1="0.5" y1="18.1938" x2="8.5" y2="18.1938" stroke="black" stroke-linecap="round"/>
<line x1="10.5" y1="29.1938" x2="27.5" y2="29.1938" stroke="black" stroke-linecap="round"/>
<line x1="9.5" y1="21.1938" x2="28.5" y2="21.1938" stroke="black" stroke-linecap="round"/>
<line x1="8.5" y1="14.1938" x2="29.5" y2="14.1938" stroke="black" stroke-linecap="round"/>
<line x1="7.5" y1="7.19385" x2="30.5" y2="7.19385" stroke="black" stroke-linecap="round"/>
</svg>
