<svg width="83" height="71" viewBox="0 0 83 71" fill="none" xmlns="http://www.w3.org/2000/svg">
<path fill-rule="evenodd" clip-rule="evenodd" d="M6.58637 47.8614C6.39058 47.8968 6.18888 47.9152 5.98286 47.9152C4.12159 47.9152 2.61275 46.4064 2.61275 44.5451C2.61275 44.0018 2.74127 43.4886 2.96964 43.0341C3.89567 43.1462 4.8289 43.6154 5.54837 44.4144C6.46117 45.4282 6.80995 46.7287 6.58643 47.8614L6.58637 47.8614ZM6.06713 48.4208C8.16112 48.4208 9.85849 46.7421 9.85849 44.6714C9.85849 42.6007 8.16099 40.9221 6.06713 40.9221C3.97326 40.9221 2.27576 42.6007 2.27576 44.6714C2.27576 46.7421 3.97326 48.4208 6.06713 48.4208ZM8.39626 44.5082C9.01855 44.2476 9.2341 43.4799 8.87779 42.7936C8.52149 42.1072 7.7282 41.7621 7.10597 42.0227C6.48373 42.2833 6.26813 43.051 6.62444 43.7373C6.98074 44.4237 7.77407 44.7689 8.39626 44.5082Z" fill="#AA3DD0"/>
<rect x="0.641113" y="22.6331" width="2" height="41.6171" rx="1" transform="rotate(-88.828 0.641113 22.6331)" fill="black"/>
<rect x="55.1342" y="54.8909" width="2" height="36.3687" rx="1" transform="rotate(159.072 55.1342 54.8909)" fill="black"/>
<circle r="7" transform="matrix(-1 0 0 1 47.2758 7.92212)" fill="black"/>
<rect width="16.5393" height="7" rx="3.5" transform="matrix(-0.999163 -0.0409001 -0.0409001 0.999163 35.0873 32.5989)" fill="black"/>
<rect width="32.7317" height="8" rx="4" transform="matrix(0.108331 0.994115 0.994115 -0.108331 53.2758 37.7883)" fill="black"/>
<rect width="21.9027" height="8" rx="4" transform="matrix(0.279024 0.960284 0.960284 -0.279024 58.2758 34.1545)" fill="black"/>
<rect width="20.3381" height="8" rx="4" transform="matrix(0.687906 0.7258 0.7258 -0.687906 62.2758 51.425)" fill="black"/>
<rect width="24.8501" height="7" rx="3.5" transform="matrix(-0.682559 0.73083 0.73083 0.682559 45.2367 17.342)" fill="black"/>
<rect width="17.2363" height="7" rx="3.5" transform="matrix(-0.682559 0.73083 0.73083 0.682559 62.0404 7.92212)" fill="black"/>
<rect width="15" height="25" rx="4" transform="matrix(-0.910774 0.412904 0.412904 0.910774 56.9369 12.9221)" fill="black"/>
<path d="M70.8624 13.1569C71.3658 12.9296 71.5895 12.3373 71.3623 11.834C71.135 11.3306 70.5427 11.1068 70.0393 11.3341L12.187 37.458C11.6836 37.6853 11.4598 38.2776 11.6871 38.7809C11.9144 39.2843 12.5067 39.5081 13.0101 39.2808L70.8624 13.1569Z" fill="black"/>
</svg>
