<svg width="71" height="76" viewBox="0 0 71 76" fill="none" xmlns="http://www.w3.org/2000/svg">
<path d="M61.3569 75.4141C66.3648 75.4141 70.4396 71.2035 70.4396 66.0286C70.4396 60.8537 66.3654 56.6432 61.3569 56.6432C56.3484 56.6432 52.2742 60.8537 52.2742 66.0286C52.2742 71.2035 56.3487 75.4141 61.3569 75.4141ZM53.5637 62.8541L54.8973 62.8617C54.9398 63.614 55.1325 65.3994 55.9808 66.8918L54.7178 69.5117L53.6273 69.3694C53.2093 68.3406 52.9778 67.2119 52.9778 66.0284C52.9783 64.9078 53.1876 63.838 53.5637 62.854L53.5637 62.8541ZM64.6302 71.9849C64.1203 71.9647 62.2992 71.8272 60.8613 70.9465L60.4094 67.5224L62.8029 65.0491L66.1166 65.5153C66.9669 66.9973 67.1017 68.8822 67.1221 69.4105L64.6302 71.9849ZM59.9116 67.008L56.5986 66.5415C55.7483 65.059 55.6135 63.1739 55.5937 62.6463L58.0861 60.0708C58.5957 60.0916 60.4163 60.2291 61.8542 61.1092L62.3061 64.5342L59.9116 67.008ZM53.9899 70.1494L54.7586 70.2498L57.2729 72.8471L57.3696 73.6415C55.943 72.8405 54.7655 71.6238 53.9899 70.1493L53.9899 70.1494ZM58.1247 74.0154L57.987 72.8885L60.5214 71.5835C61.965 72.4601 63.6923 72.6591 64.4208 72.703L64.4282 74.0816C63.4763 74.4704 62.4409 74.6868 61.357 74.6868C60.2121 74.6865 59.1203 74.4471 58.1247 74.0154L58.1247 74.0154ZM69.1497 69.2025L67.8171 69.1951C67.7746 68.4423 67.5824 66.6567 66.7334 65.1645L67.9955 62.5464L69.0861 62.6889C69.5036 63.717 69.7356 64.8449 69.7356 66.0284C69.7356 67.1488 69.5262 68.2189 69.1497 69.2026L69.1497 69.2025ZM68.7243 61.9079L67.9555 61.8075L65.442 59.2094L65.3448 58.415C66.7717 59.2168 67.9491 60.4335 68.7243 61.9079L68.7243 61.9079ZM64.5897 58.0411L64.7277 59.168L62.194 60.4728C60.75 59.5957 59.0221 59.3968 58.2939 59.3529L58.2865 57.9756C59.238 57.5868 60.2733 57.3704 61.3575 57.3704C62.5024 57.3699 63.5944 57.6094 64.5898 58.0411L64.5897 58.0411Z" fill="#AA3DD0"/>
<circle r="7" transform="matrix(-1 0 0 1 48.2745 7.64355)" fill="black"/>
<rect width="16.9214" height="7" rx="3.5" transform="matrix(-0.153082 -0.988213 -0.988213 0.153082 51.7823 33.3652)" fill="black"/>
<rect width="16.9214" height="7" rx="3.5" transform="matrix(-0.958502 0.285087 0.285087 0.958502 61.4933 25.6436)" fill="black"/>
<rect width="26" height="8" rx="4" transform="matrix(-0.606546 0.795048 0.795048 0.606546 29.2804 30.6436)" fill="black"/>
<rect width="21.3813" height="8" rx="4" transform="matrix(0.325575 0.945516 0.945516 -0.325575 31.2745 38.248)" fill="black"/>
<rect width="21.4418" height="8" rx="4" transform="matrix(-0.935678 0.352856 0.352856 0.935678 20.337 46.2939)" fill="black"/>
<rect width="21.4418" height="8" rx="4" transform="matrix(-0.256505 0.966543 0.966543 0.256505 38.5714 51.6436)" fill="black"/>
<rect width="19.0051" height="7" rx="3.5" transform="matrix(-0.969981 0.243179 0.243179 0.969981 39.4943 12.6436)" fill="black"/>
<rect width="16.4108" height="7" rx="3.5" transform="matrix(-0.694906 0.7191 0.7191 0.694906 23.6788 16.6436)" fill="black"/>
<rect width="15" height="25" rx="4" transform="matrix(-0.930008 -0.36754 -0.36754 0.930008 49.7745 18.1562)" fill="black"/>
</svg>
