<svg width="83" height="77" viewBox="0 0 83 77" fill="none" xmlns="http://www.w3.org/2000/svg">
<path d="M79.3569 16.3672C79.3569 17.1956 78.6853 17.8672 77.857 17.8672C77.0285 17.8672 76.3569 17.1957 76.3569 16.3672C76.3569 15.5387 77.0285 14.8672 77.857 14.8672C78.6853 14.8672 79.3569 15.5387 79.3569 16.3672Z" fill="#AA3DD0"/>
<rect x="3.35693" y="36.8672" width="2" height="79" rx="1" transform="rotate(-90 3.35693 36.8672)" fill="black"/>
<circle r="7" transform="matrix(-1 0 0 1 38.8569 7.52344)" fill="black"/>
<rect width="26" height="7" rx="3.5" transform="matrix(-0.999163 -0.0409001 -0.0409001 0.999163 64.6216 19.9307)" fill="black"/>
<rect width="26" height="8" rx="4" transform="matrix(-0.454158 0.890921 0.890921 0.454158 24.73 35.8672)" fill="black"/>
<rect width="21.3813" height="8" rx="4" transform="matrix(0.325575 0.945516 0.945516 -0.325575 27.3569 40.4717)" fill="black"/>
<rect width="21.4418" height="8" rx="4" transform="matrix(-0.857244 0.51491 0.51491 0.857244 18.7378 52.8672)" fill="black"/>
<rect width="21.4418" height="8" rx="4" transform="matrix(-0.256505 0.966543 0.966543 0.256505 34.6538 53.8672)" fill="black"/>
<rect width="26" height="7" rx="3.5" transform="matrix(-0.892467 0.451112 0.451112 0.892467 33.6987 14.5234)" fill="black"/>
<rect width="15" height="25" rx="4" transform="matrix(-0.930008 -0.36754 -0.36754 0.930008 45.8569 20.0361)" fill="black"/>
<rect width="2" height="7.05248" transform="matrix(0.30147 -0.953476 -0.953476 -0.30147 68.0815 26.2051)" fill="black"/>
<ellipse rx="3.35383" ry="4.8787" transform="matrix(0.3194 -0.94762 -0.94762 -0.3194 72.0511 26.6034)" fill="black"/>
</svg>
