<svg width="71" height="78" viewBox="0 0 71 78" fill="none" xmlns="http://www.w3.org/2000/svg">
<path d="M19.9078 33.1335C19.9078 39.9294 14.3577 45.4795 7.56181 45.4795C6.99535 45.4795 6.42889 45.0265 6.42889 44.3466C6.42889 43.6671 6.99535 43.2137 7.56181 43.2137C13.1119 43.2137 17.6425 38.683 17.6425 33.1329C17.6425 32.5665 18.0955 32 18.7754 32C19.3414 32.0011 19.9078 32.5671 19.9078 33.1335Z" fill="black"/>
<path d="M15.8131 32.7062C15.8131 36.9394 11.9491 40.3965 7.21779 40.3965C6.82342 40.3965 6.42901 40.0792 6.42901 39.6556C6.42901 39.2324 6.82342 38.6678 7.21779 38.6678C11.0818 38.6678 13.8375 36.1981 13.8375 32.741C13.8375 32.3882 14.3519 32.0002 14.8253 32.0002C15.2193 32.0008 15.8131 32.3534 15.8131 32.7062Z" fill="black"/>
<circle cx="29.4293" cy="9" r="7" fill="black"/>
<rect x="45.5563" y="39" width="34.9834" height="8" rx="4" transform="rotate(62.9892 45.5563 39)" fill="black"/>
<rect x="41.5621" y="41.3511" width="26" height="8" rx="4" transform="rotate(92.5138 41.5621 41.3511)" fill="black"/>
<rect x="41.4762" y="63.2168" width="18.4027" height="8" rx="4" transform="rotate(130.7 41.4762 63.2168)" fill="black"/>
<rect x="44.5592" y="2" width="16.9092" height="7" rx="3.5" transform="rotate(47.1282 44.5592 2)" fill="black"/>
<rect x="35.4293" y="21.1934" width="18.6359" height="7" rx="3.5" transform="rotate(-37.0734 35.4293 21.1934)" fill="black"/>
<rect x="25.4293" y="22.1162" width="15" height="25" rx="4" transform="rotate(-15.9275 25.4293 22.1162)" fill="black"/>
<rect x="41.6979" y="4" width="2" height="43.7741" transform="rotate(62.1957 41.6979 4)" fill="black"/>
<path d="M9.86487 28.7964C11.4293 31.5 12.4293 33 9.92932 35C7.8296 35.7723 4.17377 35.3359 2.80923 31.626C1.44468 27.9161 2.04066 24.2826 4.14039 23.5103C6.24011 22.738 8.50032 25.0865 9.86487 28.7964Z" fill="black"/>
<path d="M67.2799 7.56831C68.9857 6.8091 69.7568 4.80118 68.9976 3.09532C68.2384 1.38949 66.2305 0.618392 64.5246 1.37761C62.8188 2.13683 62.0477 4.14467 62.8069 5.85059C63.5661 7.55643 65.574 8.32753 67.2799 7.56831ZM66.5539 4.97414C66.884 4.8272 67.2617 4.97225 67.4087 5.3024C67.4454 5.38493 67.4149 5.46446 67.3324 5.50119C67.2498 5.53792 67.1703 5.50738 67.1336 5.42485C67.054 5.246 66.8552 5.16965 66.6763 5.24926C66.5938 5.28599 66.5143 5.25545 66.4775 5.17292C66.4407 5.09042 66.4713 5.01089 66.5539 4.97413L66.5539 4.97414ZM65.3871 4.5375C65.7172 4.39056 66.0949 4.53561 66.2419 4.86577C66.2786 4.94829 66.2481 5.02783 66.1656 5.06456C66.083 5.10129 66.0035 5.07074 65.9668 4.98822C65.8872 4.80937 65.6884 4.73302 65.5095 4.81262C65.427 4.84935 65.3475 4.81881 65.3107 4.73628C65.274 4.65376 65.3183 4.56811 65.3871 4.5375L65.3871 4.5375ZM66.5131 5.88237C66.5498 5.96489 66.5193 6.04443 66.4367 6.08116C66.3542 6.11789 66.2747 6.08735 66.2379 6.00482C66.1583 5.82597 65.9595 5.74962 65.7807 5.82922C65.6982 5.86595 65.6186 5.83541 65.5819 5.75289C65.5452 5.67036 65.5757 5.59083 65.6582 5.5541C65.9884 5.40716 66.3661 5.5522 66.5131 5.88236L66.5131 5.88237ZM64.228 4.08098C64.5581 3.93404 64.9358 4.07908 65.0828 4.40924C65.1195 4.49177 65.089 4.5713 65.0064 4.60803C64.9239 4.64476 64.8444 4.61422 64.8076 4.53169C64.728 4.35284 64.5292 4.27649 64.3504 4.3561C64.2679 4.39283 64.1883 4.36228 64.1516 4.27976C64.121 4.21098 64.1453 4.11773 64.2279 4.08097L64.228 4.08098ZM64.5052 5.11129C64.8353 4.96435 65.213 5.1094 65.36 5.43956C65.3967 5.52208 65.3662 5.60162 65.2836 5.63835C65.2011 5.67507 65.1216 5.64453 65.0848 5.56201C65.0052 5.38315 64.8065 5.30681 64.6276 5.38641C64.5451 5.42314 64.4655 5.3926 64.4288 5.31007C64.3921 5.22755 64.4226 5.14801 64.5051 5.11129L64.5052 5.11129ZM64.7763 6.12789C65.1065 5.98095 65.4842 6.126 65.6312 6.45616C65.6679 6.53868 65.6373 6.61822 65.5548 6.65495C65.4723 6.69168 65.3928 6.66113 65.356 6.57861C65.2764 6.39976 65.0776 6.32341 64.8988 6.40301C64.8162 6.43974 64.7367 6.4092 64.7 6.32668C64.6633 6.24415 64.6938 6.16462 64.7763 6.12789L64.7763 6.12789Z" fill="#AA3DD0"/>
<path d="M63.6174 3.1936C63.6174 3.1936 63.8286 3.09346 64.0458 3.14973C64.263 3.20601 64.4147 3.40015 64.4147 3.40015" stroke="white" stroke-width="0.3" stroke-linecap="round"/>
<path d="M64.9338 3.61206C64.9338 3.61206 65.1532 3.53145 65.3644 3.60717C65.5757 3.68289 65.7091 3.88996 65.7091 3.88996" stroke="white" stroke-width="0.3" stroke-linecap="round"/>
<path d="M66.4348 4.09937C66.4348 4.09937 66.6557 4.02295 66.8654 4.10267C67.0752 4.1824 67.2046 4.39198 67.2046 4.39198" stroke="white" stroke-width="0.3" stroke-linecap="round"/>
<path d="M67.9397 4.73999C67.9397 4.73999 68.1644 4.67594 68.3694 4.76719C68.5745 4.85843 68.6921 5.07487 68.6921 5.07487" stroke="white" stroke-width="0.3" stroke-linecap="round"/>
</svg>
