<svg width="63" height="99" viewBox="0 0 63 99" fill="none" xmlns="http://www.w3.org/2000/svg">
<path d="M8.26642 6.30351C8.39695 6.29783 8.51441 6.23952 8.5966 6.13857C8.71306 5.99552 8.73011 5.7855 8.63817 5.64066L5.75123 0.575744C5.67608 0.444578 5.54456 0.365513 5.40406 0.349029C5.25667 0.340994 5.1156 0.394024 5.01969 0.511838L5.01969 1.48802L4.22496 1.48802C4.08795 1.65631 4.09081 1.91056 4.23862 2.07287L7.92711 6.15322C8.01441 6.2522 8.13588 6.3092 8.26642 6.30351Z" fill="#AA3DD0"/>
<path d="M7.00721 7.48948C7.19605 7.60124 7.43878 7.561 7.58267 7.38425L7.64432 7.30852C7.78822 7.13177 7.77847 6.88598 7.63066 6.72367L3.94217 2.64332C3.85493 2.54428 3.72648 2.49573 3.60282 2.49296C3.47229 2.49864 3.35483 2.55696 3.27264 2.65791L3.10669 3.66858L2.14908 4.03801C2.06688 4.13897 2.0336 4.26581 2.05452 4.39478C2.07543 4.52375 2.1559 4.63124 2.27057 4.69658L7.00721 7.48948Z" fill="#AA3DD0"/>
<path d="M0.599353 6.9041L6.13763 8.71232C6.31339 8.77147 6.50031 8.71369 6.61676 8.57064C6.69896 8.46968 6.73224 8.34284 6.71132 8.21387C6.69041 8.0849 6.60994 7.97741 6.49527 7.91207L1.75857 5.11925C1.56973 5.00748 1.327 5.04773 1.1831 5.22448L1.1831 5.94526L0.388373 6.20066C0.292461 6.31847 0.269194 6.46742 0.306895 6.61006C0.344651 6.75275 0.455675 6.85711 0.599353 6.9041Z" fill="#AA3DD0"/>
<path d="M8.87049 6.40367L6.93851 8.77677C6.80832 8.93667 6.83335 9.18096 6.99326 9.31114L8.01158 10.1401C8.8531 10.8252 10.1102 10.6733 10.7601 9.78903C11.362 8.96378 11.1804 7.79456 10.381 7.14371L9.40482 6.34898C9.23653 6.21197 9.00068 6.24377 8.87049 6.40367Z" fill="#AA3DD0"/>
<circle cx="40.1071" cy="32.1685" r="7" fill="black"/>
<rect x="18.1588" y="26.4429" width="26" height="7" rx="3.5" transform="rotate(47.1282 18.1588 26.4429)" fill="black"/>
<rect x="38.234" y="57.1685" width="26" height="8" rx="4" transform="rotate(62.9892 38.234 57.1685)" fill="black"/>
<rect x="34.1364" y="61.7729" width="26" height="8" rx="4" transform="rotate(109 34.1364 61.7729)" fill="black"/>
<rect x="44.2262" y="74.1685" width="21.4418" height="8" rx="4" transform="rotate(30.9915 44.2262 74.1685)" fill="black"/>
<rect x="24.9899" y="76.1685" width="21.4418" height="8" rx="4" transform="rotate(59.3594 24.9899 76.1685)" fill="black"/>
<rect x="41.2369" y="40.1685" width="26" height="7" rx="3.5" transform="rotate(47.1282 41.2369 40.1685)" fill="black"/>
<rect x="29.0299" y="39.9629" width="15" height="25" rx="4" transform="rotate(7.43473 29.0299 39.9629)" fill="black"/>
<rect x="21.0934" y="15.1685" width="2" height="15" transform="rotate(19.4162 21.0934 15.1685)" fill="black"/>
<ellipse cx="25.5003" cy="10.1098" rx="5.29275" ry="8.5" transform="rotate(25.044 25.5003 10.1098)" fill="black"/>
<rect x="9.37537" y="6.5127" width="0.2" height="3.49868" transform="rotate(39.2867 9.37537 6.5127)" fill="#F8F8F8"/>
</svg>
