<svg width="80" height="92" viewBox="0 0 80 92" fill="none" xmlns="http://www.w3.org/2000/svg">
<path d="M9.74301 34.6941C11.2296 34.7103 12.8111 36.2812 12.8661 37.7622C12.8765 38.0341 12.778 38.2152 12.5571 38.362C12.1507 38.6311 11.7006 38.7855 11.2316 38.8983C10.6356 39.0414 10.0273 39.1418 9.46921 39.4184C8.75858 39.7718 8.31325 40.3148 8.26585 41.1268C8.24788 41.4404 8.11139 41.4897 7.86223 41.3694C7.12126 41.0113 6.567 40.4627 6.20316 39.7245C6.07527 39.4658 6.09516 39.3115 6.44572 39.2906C7.21796 39.246 7.7533 38.8282 8.10479 38.1554C8.3578 37.6722 8.47432 37.1454 8.59183 36.6186C8.7188 36.0472 8.86658 35.4834 9.20677 34.9898C9.34603 34.789 9.50901 34.6601 9.74304 34.6942L9.74301 34.6941Z" fill="#AA3DD0"/>
<path d="M8.84937 34.7092C8.32353 35.5317 8.21262 36.4006 7.9938 37.2343C7.91706 37.5252 7.81568 37.8066 7.65745 38.0643C7.39214 38.4946 7.02354 38.7807 6.51569 38.8602C6.09686 38.9256 5.89885 38.7589 5.87327 38.3334C5.82118 37.474 6.05806 36.698 6.58767 36.0244C7.141 35.3223 7.8507 34.8666 8.84935 34.7093L8.84937 34.7092Z" fill="#AA3DD0"/>
<path d="M12.8368 38.7108C12.5392 40.5252 11.0659 41.7304 9.32253 41.6878C8.76728 41.6736 8.59293 41.4528 8.72558 40.9194C8.92743 40.1121 9.55281 39.7804 10.2729 39.5796C11.119 39.3427 12.0097 39.2507 12.8369 38.7107L12.8368 38.7108Z" fill="#AA3DD0"/>
<circle cx="54.2862" cy="9.08574" r="7" transform="rotate(13.0194 54.2862 9.08574)" fill="black"/>
<rect x="29.3099" y="18.2803" width="19.8406" height="7" rx="3.5" transform="rotate(10.6753 29.3099 18.2803)" fill="black"/>
<rect x="62.4181" y="36.6255" width="26" height="8" rx="4" transform="rotate(76.0086 62.4181 36.6255)" fill="black"/>
<rect x="54.9891" y="41.6865" width="21.3813" height="8" rx="4" transform="rotate(122.02 54.9891 41.6865)" fill="black"/>
<rect x="64.4264" y="54.5386" width="21.4418" height="8" rx="4" transform="rotate(44.0109 64.4264 54.5386)" fill="black"/>
<rect x="44.8622" y="53.094" width="21.4418" height="8" rx="4" transform="rotate(88.1566 44.8622 53.094)" fill="black"/>
<rect x="57.7347" y="17.0679" width="26" height="7" rx="3.5" transform="rotate(39.8345 57.7347 17.0679)" fill="black"/>
<rect x="44.6473" y="19.6997" width="15" height="25" rx="4" transform="rotate(-8.54457 44.6473 19.6997)" fill="black"/>
<rect x="15.8663" y="20.6721" width="2" height="15" transform="rotate(-82.6093 15.8663 20.6721)" fill="black"/>
<ellipse cx="10.3663" cy="19.8654" rx="6.89765" ry="8.5" transform="rotate(-80.7314 10.3663 19.8654)" fill="black"/>
<rect x="26.1354" y="88.6887" width="0.2" height="3.49868" transform="rotate(39.2867 26.1354 88.6887)" fill="#F8F8F8"/>
</svg>
