<svg width="27" height="27" viewBox="0 0 27 27" fill="none" xmlns="http://www.w3.org/2000/svg">
<path d="M10 24.4C9.2 24.4 8.49167 24.1625 7.875 23.6875C7.25833 23.2125 6.825 22.6 6.575 21.85C6.30833 22.2833 5.98333 22.6208 5.6 22.8625C5.21667 23.1042 4.75833 23.225 4.225 23.225C3.44167 23.225 2.79167 22.95 2.275 22.4C1.75833 21.85 1.5 21.2 1.5 20.45C1.5 19.6333 1.75417 18.9875 2.2625 18.5125C2.77083 18.0375 3.41667 17.7917 4.2 17.775C3.9 17.4417 3.66667 17.0542 3.5 16.6125C3.33333 16.1708 3.25 15.725 3.25 15.275C3.25 14.6417 3.4125 14.05 3.7375 13.5C4.0625 12.95 4.525 12.5083 5.125 12.175C5.20833 12.3917 5.3125 12.625 5.4375 12.875C5.5625 13.125 5.69167 13.3417 5.825 13.525C5.49167 13.7417 5.22917 14.0083 5.0375 14.325C4.84583 14.6417 4.75 14.975 4.75 15.325C4.75 16.325 5.15417 16.9542 5.9625 17.2125C6.77083 17.4708 7.55 17.675 8.3 17.825L8.575 18.3C8.375 18.8833 8.2125 19.3625 8.0875 19.7375C7.9625 20.1125 7.9 20.4583 7.9 20.775C7.9 21.3417 8.1125 21.8375 8.5375 22.2625C8.9625 22.6875 9.45833 22.9 10.025 22.9C10.7083 22.9 11.2708 22.6125 11.7125 22.0375C12.1542 21.4625 12.5125 20.7792 12.7875 19.9875C13.0625 19.1958 13.275 18.3958 13.425 17.5875C13.575 16.7792 13.7 16.15 13.8 15.7L15.25 16.1C15.1 16.8167 14.925 17.65 14.725 18.6C14.525 19.55 14.2375 20.4542 13.8625 21.3125C13.4875 22.1708 12.9958 22.9 12.3875 23.5C11.7792 24.1 10.9833 24.4 10 24.4ZM11.75 16.975C11 16.3083 10.3167 15.6875 9.7 15.1125C9.08333 14.5375 8.55417 13.975 8.1125 13.425C7.67083 12.875 7.32917 12.3333 7.0875 11.8C6.84583 11.2667 6.725 10.7 6.725 10.1C6.725 9.1 7.075 8.25 7.775 7.55C8.475 6.85 9.325 6.5 10.325 6.5C10.475 6.5 10.6167 6.50417 10.75 6.5125C10.8833 6.52083 11.0167 6.54167 11.15 6.575C11 6.29167 10.8917 6.05 10.825 5.85C10.7583 5.65 10.725 5.45 10.725 5.25C10.725 4.48333 10.9917 3.83333 11.525 3.3C12.0583 2.76667 12.7083 2.5 13.475 2.5C14.2417 2.5 14.8917 2.76667 15.425 3.3C15.9583 3.83333 16.225 4.48333 16.225 5.25C16.225 5.43333 16.1958 5.62917 16.1375 5.8375C16.0792 6.04583 15.9667 6.29167 15.8 6.575C15.9333 6.54167 16.0667 6.52083 16.2 6.5125C16.3333 6.50417 16.475 6.5 16.625 6.5C17.575 6.5 18.3792 6.80417 19.0375 7.4125C19.6958 8.02083 20.075 8.775 20.175 9.675C19.9417 9.65833 19.6917 9.65417 19.425 9.6625C19.1583 9.67083 18.9083 9.69167 18.675 9.725C18.5917 9.225 18.3667 8.8125 18 8.4875C17.6333 8.1625 17.175 8 16.625 8C16.0083 8 15.5208 8.17083 15.1625 8.5125C14.8042 8.85417 14.325 9.375 13.725 10.075H13.2C12.5833 9.34167 12.0958 8.8125 11.7375 8.4875C11.3792 8.1625 10.9083 8 10.325 8C9.725 8 9.225 8.2 8.825 8.6C8.425 9 8.225 9.5 8.225 10.1C8.225 10.5 8.33333 10.9083 8.55 11.325C8.76667 11.7417 9.075 12.1875 9.475 12.6625C9.875 13.1375 10.3583 13.6375 10.925 14.1625C11.4917 14.6875 12.125 15.2667 12.825 15.9L11.75 16.975ZM16.925 24.425C16.5583 24.425 16.1958 24.3667 15.8375 24.25C15.4792 24.1333 15.1333 23.9583 14.8 23.725C14.9333 23.525 15.0667 23.3 15.2 23.05C15.3333 22.8 15.4417 22.5667 15.525 22.35C15.7583 22.5333 15.9958 22.6708 16.2375 22.7625C16.4792 22.8542 16.725 22.9 16.975 22.9C17.5583 22.9 18.0542 22.6875 18.4625 22.2625C18.8708 21.8375 19.075 21.3417 19.075 20.775C19.075 20.4417 19.0083 20.0875 18.875 19.7125C18.7417 19.3375 18.5833 18.8667 18.4 18.3L18.675 17.825C19.4417 17.6917 20.225 17.4958 21.025 17.2375C21.825 16.9792 22.225 16.35 22.225 15.35C22.225 14.6167 21.9583 14.0708 21.425 13.7125C20.8917 13.3542 20.3 13.175 19.65 13.175C18.95 13.175 18.1208 13.3083 17.1625 13.575C16.2042 13.8417 15.0917 14.1833 13.825 14.6L13.45 13.15C14.7167 12.7333 15.8583 12.3833 16.875 12.1C17.8917 11.8167 18.8167 11.675 19.65 11.675C20.7167 11.675 21.6625 11.9958 22.4875 12.6375C23.3125 13.2792 23.725 14.175 23.725 15.325C23.725 15.775 23.6417 16.2167 23.475 16.65C23.3083 17.0833 23.075 17.4667 22.775 17.8C23.5417 17.8167 24.1833 18.0667 24.7 18.55C25.2167 19.0333 25.475 19.675 25.475 20.475C25.475 21.225 25.2167 21.875 24.7 22.425C24.1833 22.975 23.5333 23.25 22.75 23.25C22.2333 23.25 21.775 23.1292 21.375 22.8875C20.975 22.6458 20.65 22.3083 20.4 21.875C20.1333 22.625 19.6917 23.2375 19.075 23.7125C18.4583 24.1875 17.7417 24.425 16.925 24.425Z" fill="black"/>
</svg>
