<svg width="27" height="27" viewBox="0 0 27 27" fill="none" xmlns="http://www.w3.org/2000/svg">
<circle cx="14" cy="14" r="10" stroke="black" stroke-width="1.5"/>
<path d="M11.5317 18.084C11.3957 18.084 11.2877 18.052 11.2077 17.988C11.1277 17.924 11.0597 17.824 11.0037 17.688L9.02367 12.864C8.99967 12.792 8.98767 12.712 8.98767 12.624C8.98767 12.48 9.04367 12.356 9.15567 12.252C9.27567 12.14 9.41567 12.084 9.57567 12.084C9.83167 12.084 10.0117 12.212 10.1157 12.468L11.5317 16.044L12.9597 12.432C12.9997 12.32 13.0677 12.232 13.1637 12.168C13.2677 12.104 13.3797 12.072 13.4997 12.072C13.6677 12.072 13.8037 12.128 13.9077 12.24C14.0197 12.352 14.0757 12.484 14.0757 12.636C14.0757 12.7 14.0557 12.784 14.0157 12.888L12.0717 17.724C12.0237 17.844 11.9557 17.936 11.8677 18C11.7877 18.056 11.6757 18.084 11.5317 18.084ZM16.7013 18.072C16.2373 18.072 15.8333 17.972 15.4893 17.772C15.1533 17.564 14.8933 17.328 14.7093 17.064C14.5333 16.792 14.4453 16.572 14.4453 16.404C14.4453 16.244 14.5013 16.112 14.6133 16.008C14.7253 15.896 14.8573 15.84 15.0093 15.84C15.1453 15.84 15.2573 15.876 15.3453 15.948C15.4413 16.02 15.5093 16.116 15.5493 16.236C15.6373 16.484 15.7813 16.68 15.9813 16.824C16.1813 16.968 16.4293 17.04 16.7253 17.04C17.0373 17.04 17.2813 16.964 17.4573 16.812C17.6333 16.66 17.7213 16.488 17.7213 16.296C17.7213 16.112 17.6453 15.968 17.4933 15.864C17.3493 15.752 17.0533 15.628 16.6053 15.492C15.9493 15.292 15.4773 15.056 15.1893 14.784C14.9013 14.504 14.7573 14.14 14.7573 13.692C14.7573 13.22 14.9453 12.836 15.3213 12.54C15.6973 12.236 16.2213 12.084 16.8933 12.084C17.5173 12.084 18.0013 12.22 18.3453 12.492C18.6973 12.764 18.8733 13.128 18.8733 13.584C18.8733 13.832 18.8213 14.024 18.7173 14.16C18.6133 14.288 18.4653 14.352 18.2733 14.352C18.1053 14.352 17.9693 14.3 17.8653 14.196C17.7613 14.092 17.7093 13.98 17.7093 13.86C17.7093 13.82 17.7173 13.772 17.7333 13.716C17.7573 13.652 17.7693 13.604 17.7693 13.572C17.7693 13.428 17.6973 13.312 17.5533 13.224C17.4173 13.136 17.2053 13.092 16.9173 13.092C16.5573 13.092 16.2893 13.144 16.1133 13.248C15.9453 13.352 15.8613 13.492 15.8613 13.668C15.8613 13.852 15.9493 14.004 16.1253 14.124C16.3013 14.236 16.6173 14.364 17.0733 14.508C17.7373 14.716 18.1973 14.944 18.4533 15.192C18.7173 15.44 18.8493 15.788 18.8493 16.236C18.8493 16.54 18.7573 16.836 18.5733 17.124C18.3973 17.404 18.1453 17.632 17.8173 17.808C17.4973 17.984 17.1253 18.072 16.7013 18.072Z" fill="black"/>
</svg>
