<svg width="27" height="27" viewBox="0 0 27 27" fill="none" xmlns="http://www.w3.org/2000/svg">
<path d="M1.06873 22.5V19.8563C1.06873 19.2 1.23748 18.6047 1.57498 18.0704C1.91248 17.536 2.38123 17.1375 2.98123 16.875C4.34998 16.275 5.58279 15.8438 6.67966 15.5813C7.77654 15.3188 8.90623 15.1875 10.0687 15.1875C11.2312 15.1875 12.3562 15.3188 13.4437 15.5813C14.5312 15.8438 15.7594 16.275 17.1281 16.875C17.7281 17.1375 18.2015 17.536 18.5484 18.0704C18.8953 18.6047 19.0687 19.2 19.0687 19.8563V22.5H1.06873ZM20.7562 22.5V19.8563C20.7562 18.675 20.4562 17.7047 19.8562 16.9454C19.2562 16.186 18.4687 15.5719 17.4937 15.1032C18.7875 15.2532 20.0062 15.4735 21.15 15.7641C22.2937 16.0547 23.2218 16.3875 23.9343 16.7625C24.5531 17.1188 25.0406 17.5594 25.3969 18.0844C25.7531 18.6094 25.9312 19.2 25.9312 19.8563V22.5H20.7562ZM10.0687 13.4719C8.83123 13.4719 7.81873 13.0782 7.03123 12.2907C6.24373 11.5032 5.84998 10.4907 5.84998 9.25317C5.84998 8.01567 6.24373 7.00317 7.03123 6.21567C7.81873 5.42817 8.83123 5.03442 10.0687 5.03442C11.3062 5.03442 12.3187 5.42817 13.1062 6.21567C13.8937 7.00317 14.2875 8.01567 14.2875 9.25317C14.2875 10.4907 13.8937 11.5032 13.1062 12.2907C12.3187 13.0782 11.3062 13.4719 10.0687 13.4719ZM20.1937 9.25317C20.1937 10.4907 19.8 11.5032 19.0125 12.2907C18.225 13.0782 17.2125 13.4719 15.975 13.4719C15.7687 13.4719 15.539 13.4579 15.2859 13.4297C15.0328 13.4016 14.8031 13.35 14.5969 13.275C15.0469 12.8063 15.389 12.2297 15.6234 11.5454C15.8578 10.861 15.975 10.0969 15.975 9.25317C15.975 8.40942 15.8578 7.66411 15.6234 7.01724C15.389 6.37036 15.0469 5.77505 14.5969 5.2313C14.8031 5.17505 15.0328 5.12817 15.2859 5.09067C15.539 5.05317 15.7687 5.03442 15.975 5.03442C17.2125 5.03442 18.225 5.42817 19.0125 6.21567C19.8 7.00317 20.1937 8.01567 20.1937 9.25317ZM2.75623 20.8125H17.3812V19.8563C17.3812 19.5563 17.2922 19.2657 17.114 18.9844C16.9359 18.7032 16.7156 18.5063 16.4531 18.3938C15.1031 17.7938 13.9687 17.3907 13.05 17.1844C12.1312 16.9782 11.1375 16.875 10.0687 16.875C8.99998 16.875 8.00154 16.9782 7.07341 17.1844C6.14529 17.3907 5.00623 17.7938 3.65623 18.3938C3.39373 18.5063 3.1781 18.7032 3.00935 18.9844C2.8406 19.2657 2.75623 19.5563 2.75623 19.8563V20.8125ZM10.0687 11.7844C10.8 11.7844 11.4047 11.5454 11.8828 11.0672C12.3609 10.5891 12.6 9.98442 12.6 9.25317C12.6 8.52192 12.3609 7.91724 11.8828 7.43911C11.4047 6.96099 10.8 6.72192 10.0687 6.72192C9.33748 6.72192 8.73279 6.96099 8.25466 7.43911C7.77654 7.91724 7.53748 8.52192 7.53748 9.25317C7.53748 9.98442 7.77654 10.5891 8.25466 11.0672C8.73279 11.5454 9.33748 11.7844 10.0687 11.7844Z" fill="black"/>
</svg>
