<svg width="24" height="25" viewBox="0 0 24 25" fill="none" xmlns="http://www.w3.org/2000/svg">
<path d="M11 21.475L8.525 19.2C7.075 17.8667 5.87083 16.725 4.9125 15.775C3.95417 14.825 3.18333 13.9667 2.6 13.2C2.01667 12.4333 1.60417 11.7125 1.3625 11.0375C1.12083 10.3625 1 9.64167 1 8.875C1 7.375 1.50417 6.10417 2.5125 5.0625C3.52083 4.02083 4.76667 3.5 6.25 3.5C7.2 3.5 8.07917 3.72083 8.8875 4.1625C9.69583 4.60417 10.4 5.25 11 6.1C11.7 5.2 12.4417 4.54167 13.225 4.125C14.0083 3.70833 14.85 3.5 15.75 3.5C17.1 3.5 18.2292 3.95833 19.1375 4.875C20.0458 5.79167 20.6 6.9 20.8 8.2H19.325C19.175 7.28333 18.7875 6.52083 18.1625 5.9125C17.5375 5.30417 16.7333 5 15.75 5C14.9 5 14.1083 5.25833 13.375 5.775C12.6417 6.29167 12.05 7.025 11.6 7.975H10.375C9.94167 7.04167 9.35833 6.3125 8.625 5.7875C7.89167 5.2625 7.1 5 6.25 5C5.15 5 4.25 5.37083 3.55 6.1125C2.85 6.85417 2.5 7.775 2.5 8.875C2.5 9.525 2.62917 10.1583 2.8875 10.775C3.14583 11.3917 3.59583 12.0917 4.2375 12.875C4.87917 13.6583 5.75 14.575 6.85 15.625C7.95 16.675 9.33333 17.9667 11 19.5C11.5333 19.0167 12.0375 18.5667 12.5125 18.15C12.9875 17.7333 13.4583 17.325 13.925 16.925L14.0875 17.0875C14.1958 17.1958 14.3167 17.3125 14.45 17.4375C14.5833 17.5625 14.7042 17.6792 14.8125 17.7875L14.975 17.95C14.525 18.35 14.0583 18.7583 13.575 19.175C13.0917 19.5917 12.575 20.05 12.025 20.55L11 21.475ZM18.25 17.5V14.25H15V12.75H18.25V9.5H19.75V12.75H23V14.25H19.75V17.5H18.25Z" fill="black"/>
</svg>
