<svg width="20" height="20" viewBox="0 0 20 20" fill="none" xmlns="http://www.w3.org/2000/svg">
<path fill-rule="evenodd" clip-rule="evenodd" d="M13.6228 4C13.8461 4 14.0423 4.14799 14.1036 4.36264L14.4678 5.63736C14.5291 5.85201 14.7253 6 14.9486 6H16.5C16.7761 6 17 6.22386 17 6.5V15.5C17 15.7761 16.7761 16 16.5 16H3.5C3.22386 16 3 15.7761 3 15.5V6.5C3 6.22386 3.22386 6 3.5 6H5.05142C5.27466 6 5.47085 5.85201 5.53218 5.63736L5.89639 4.36264C5.95772 4.14799 6.15391 4 6.37715 4H13.6228ZM10 14C11.6569 14 13 12.6569 13 11C13 9.34315 11.6569 8 10 8C8.34315 8 7 9.34315 7 11C7 12.6569 8.34315 14 10 14ZM11.5 5.5C11.7761 5.5 12 5.72386 12 6C12 6.27614 11.7761 6.5 11.5 6.5H8.5C8.22386 6.5 8 6.27614 8 6C8 5.72386 8.22386 5.5 8.5 5.5H11.5ZM10 13C11.1046 13 12 12.1046 12 11C12 9.89543 11.1046 9 10 9C8.89543 9 8 9.89543 8 11C8 12.1046 8.89543 13 10 13Z" fill="#6E6E6E"/>
</svg>
