<svg width="24" height="24" viewBox="0 0 24 24" fill="none" xmlns="http://www.w3.org/2000/svg">
<path fill-rule="evenodd" clip-rule="evenodd" d="M15.4977 5.67383C14.4224 5.25097 13.2405 5 12 5C7.02944 5 3 9.02944 3 12C3 13.3056 3.7784 14.8158 5.07298 16.0985L6.13337 15.0381C5.01262 13.9316 4.5 12.7717 4.5 12C4.5 11.1272 5.15567 9.75794 6.60518 8.53092C8.00336 7.34736 9.91913 6.5 12 6.5C12.805 6.5 13.5854 6.62683 14.3206 6.85089L15.4977 5.67383ZM13.036 8.13547C12.7056 8.04711 12.3583 8 12 8C9.79086 8 8 9.79086 8 12C8 12.3583 8.04711 12.7056 8.13547 13.036L9.52477 11.6467C9.68008 10.5487 10.5487 9.68008 11.6467 9.52477L13.036 8.13547ZM14.4753 12.3531L15.8645 10.9638C15.9529 11.2943 16 11.6417 16 12C16 14.2091 14.2091 16 12 16C11.6417 16 11.2943 15.9529 10.9638 15.8645L12.3531 14.4753C13.4512 14.32 14.32 13.4512 14.4753 12.3531ZM9.67927 17.1491C10.4145 17.3732 11.1949 17.5 12 17.5C14.0809 17.5 15.9966 16.6526 17.3948 15.4691C18.8443 14.2421 19.5 12.8728 19.5 12C19.5 11.2283 18.9874 10.0683 17.8665 8.9618L18.9269 7.90141C20.2216 9.18413 21 10.6943 21 12C21 14.9706 16.9706 19 12 19C10.7594 19 9.57751 18.749 8.50221 18.3261L9.67927 17.1491Z" fill="#6E6E6E"/>
<path d="M4 20L20 4" stroke="#6E6E6E" stroke-width="1.5"/>
</svg>
