<svg width="22" height="22" viewBox="0 0 22 22" fill="none" xmlns="http://www.w3.org/2000/svg">
<path d="M19.5298 9.48626H18.825V9.44995H10.95V12.95H15.895C15.1736 14.9874 13.235 16.45 10.95 16.45C8.05064 16.45 5.69995 14.0993 5.69995 11.2C5.69995 8.30064 8.05064 5.94995 10.95 5.94995C12.2883 5.94995 13.5058 6.45483 14.4329 7.27951L16.9078 4.80458C15.3451 3.34814 13.2547 2.44995 10.95 2.44995C6.11776 2.44995 2.19995 6.36776 2.19995 11.2C2.19995 16.0321 6.11776 19.95 10.95 19.95C15.7821 19.95 19.7 16.0321 19.7 11.2C19.7 10.6133 19.6396 10.0406 19.5298 9.48626Z" fill="#FFC107"/>
<path d="M3.20886 7.12726L6.08367 9.23558C6.86155 7.3097 8.74542 5.94995 10.95 5.94995C12.2883 5.94995 13.5059 6.45483 14.4329 7.27951L16.9079 4.80458C15.3451 3.34814 13.2547 2.44995 10.95 2.44995C7.58911 2.44995 4.67449 4.34739 3.20886 7.12726Z" fill="#FF3D00"/>
<path d="M10.95 19.95C13.2101 19.95 15.2637 19.0851 16.8164 17.6785L14.1083 15.3869C13.2003 16.0774 12.0907 16.4509 10.95 16.45C8.67409 16.45 6.74165 14.9988 6.01365 12.9736L3.16028 15.1721C4.6084 18.0058 7.54928 19.95 10.95 19.95Z" fill="#4CAF50"/>
<path d="M19.5298 9.48626H18.825V9.44995H10.95V12.95H15.895C15.5499 13.9196 14.9283 14.767 14.107 15.3873L14.1083 15.3864L16.8164 17.678C16.6248 17.8521 19.7 15.5749 19.7 11.2C19.7 10.6133 19.6396 10.0406 19.5298 9.48626Z" fill="#1976D2"/>
</svg>
