<svg width="139" height="163" viewBox="0 0 139 163" fill="none" xmlns="http://www.w3.org/2000/svg">
<g clip-path="url(#clip0_73_7832)">
<path d="M137.754 59.308C137.754 41.1471 123.013 26.3797 104.879 26.3001L117.18 -0.00012207L60.2849 -0.00012207C44.1919 -0.00012207 30.7501 11.5858 27.8602 26.8569C12.5626 29.7202 0.950195 43.1885 0.950195 59.308C0.950195 77.469 15.6911 92.2364 33.8255 92.3159L21.5238 118.616L78.4193 118.616C94.5123 118.616 107.954 107.03 110.844 91.7591C126.142 88.8958 137.754 75.454 137.754 59.3345V59.308ZM78.4193 105.174L42.6276 105.174L48.6459 92.3159H76.4839C80.1956 92.3159 83.1915 89.32 83.1915 85.6083C83.1915 81.8965 80.1956 78.9007 76.4839 78.9007L33.9581 78.9007C23.1676 78.9007 14.3654 70.1251 14.3654 59.308C14.3654 50.5324 20.1982 43.0825 28.1784 40.5903C31.625 55.1456 44.6956 66.0156 60.2849 66.0156H78.3928C89.1833 66.0156 97.9854 74.7912 97.9854 85.5818C97.9854 96.3723 89.2098 105.174 78.3928 105.174H78.4193ZM110.526 77.9992C107.079 63.4439 94.0086 52.5739 78.4193 52.5739L60.3114 52.5739C49.5208 52.5739 40.7187 43.7983 40.7187 32.9812C40.7187 22.1642 49.4943 13.3886 60.3114 13.3886L96.0765 13.3886L90.0582 26.2471L62.2203 26.2471C58.5085 26.2471 55.5126 29.243 55.5126 32.9547C55.5126 36.6665 58.5085 39.6624 62.2203 39.6624L104.773 39.6624C115.563 39.6624 124.365 48.438 124.365 59.255C124.365 68.0306 118.533 75.4806 110.552 77.9727L110.526 77.9992Z" fill="#6F3C8F"/>
</g>
<g clip-path="url(#clip1_73_7832)">
<path d="M45.1729 143.975H37.7886V131.982H30.9991L23.144 148.312V131.982H16.2801L0 162.411H7.28516L16.7013 144.818V162.411H23.4909L31.346 146.082V162.411H37.7886V150.418H45.1729V162.411H51.6156V131.982H45.1729V143.975Z" fill="#6F3C8F"/>
<path d="M95.4255 131.338H58.752V137.78H95.4255V131.338Z" fill="#6F3C8F"/>
<path d="M87.843 139.466H81.4004V145.784H71.9098V139.466H65.492V145.784H58.752V152.227H73.8674V155.969H58.752V162.411H95.4255V155.969H80.3101V152.227H95.4255V145.784H87.843V139.466Z" fill="#6F3C8F"/>
<path d="M120.08 137.632L131.033 152.772H138.789L128.679 137.756H136.955V131.338H124.342L120.006 124.895L115.843 131.338H103.181V137.756H111.68L101.991 152.772H109.648L120.08 137.632Z" fill="#6F3C8F"/>
<path d="M138.815 155.969H102.142V162.411H138.815V155.969Z" fill="#6F3C8F"/>
</g>
<defs>
<clipPath id="clip0_73_7832">
<rect width="136.804" height="118.59" fill="white" transform="translate(0.949219 -0.00012207)"/>
</clipPath>
<clipPath id="clip1_73_7832">
<rect width="138.814" height="37.5161" fill="white" transform="translate(0 124.895)"/>
</clipPath>
</defs>
</svg>
