<svg width="126" height="109" viewBox="0 0 126 109" fill="none" xmlns="http://www.w3.org/2000/svg">
<g clip-path="url(#clip0_73_7098)">
<path d="M125.571 54.4383C125.571 37.7686 112.04 24.2137 95.3948 24.1407L106.686 0L54.4627 0C39.6911 0 27.353 10.6346 24.7004 24.6518C10.6589 27.28 0 39.6424 0 54.4383C0 71.1081 13.5305 84.6629 30.1759 84.7359L18.8843 108.877L71.1081 108.877C85.8797 108.877 98.2177 98.2421 100.87 84.2249C114.912 81.5966 125.571 69.2586 125.571 54.4627V54.4383ZM71.1081 96.5386L38.2553 96.5386L43.7794 84.7359H69.3316C72.7386 84.7359 75.4885 81.986 75.4885 78.5791C75.4885 75.1721 72.7386 72.4222 69.3316 72.4222L30.2976 72.4222C20.3931 72.4222 12.3137 64.3672 12.3137 54.4383C12.3137 46.3833 17.6675 39.5451 24.9925 37.2575C28.1561 50.6177 40.1534 60.5952 54.4627 60.5952L71.0837 60.5952C80.9883 60.5952 89.0676 68.6502 89.0676 78.5547C89.0676 88.4592 81.0126 96.5386 71.0837 96.5386H71.1081ZM100.578 71.5948C97.4147 58.2346 85.4173 48.2571 71.1081 48.2571L54.487 48.2571C44.5825 48.2571 36.5031 40.2021 36.5031 30.2733C36.5031 20.3444 44.5581 12.2894 54.487 12.2894L87.3155 12.2894L81.7913 24.0921L56.2391 24.0921C52.8322 24.0921 50.0823 26.842 50.0823 30.2489C50.0823 33.6559 52.8322 36.4058 56.2391 36.4058L95.2975 36.4058C105.202 36.4058 113.281 44.4608 113.281 54.3897C113.281 62.4447 107.928 69.2829 100.603 71.5705L100.578 71.5948Z" fill="white"/>
</g>
<defs>
<clipPath id="clip0_73_7098">
<rect width="125.571" height="108.852" fill="white"/>
</clipPath>
</defs>
</svg>
