<svg width="112" height="30" viewBox="0 0 112 30" fill="none" xmlns="http://www.w3.org/2000/svg">
<g clip-path="url(#clip0_83_7042)">
<path d="M36.1228 15.2576H30.218V5.66711H24.7886L18.5073 18.7252V5.66711H13.0185L0 30H5.82563L13.3553 15.9313V30H18.7847L25.066 16.9419V30H30.218V20.4095H36.1228V30H41.2748V5.66711H36.1228V15.2576Z" fill="#6F3C8F"/>
<path d="M76.3077 5.15192H46.9814V10.3038H76.3077V5.15192Z" fill="#6F3C8F"/>
<path d="M70.2443 11.6513H65.0924V16.7041H57.5032V11.6513H52.3711V16.7041H46.9814V21.856H59.0686V24.8481H46.9814V30H76.3077V24.8481H64.2205V21.856H76.3077V16.7041H70.2443V11.6513Z" fill="#6F3C8F"/>
<path d="M96.0236 10.1849L104.782 22.2919H110.984L102.899 10.284H109.518V5.15192H99.4318L95.9641 0L92.6352 5.15192H82.5097V10.284H89.3063L81.5586 22.2919H87.6814L96.0236 10.1849Z" fill="#6F3C8F"/>
<path d="M111.004 24.8481H81.6777V30H111.004V24.8481Z" fill="#6F3C8F"/>
</g>
<defs>
<clipPath id="clip0_83_7042">
<rect width="111.004" height="30" fill="white"/>
</clipPath>
</defs>
</svg>
