<svg width="360" height="800" viewBox="0 0 360 800" fill="none" xmlns="http://www.w3.org/2000/svg">
<g clip-path="url(#clip0_73_7101)">
<rect width="360" height="800" fill="#E1CEED"/>
<g filter="url(#filter0_i_73_7101)">
<path d="M12.4355 113.819C101.081 169.7 230.031 188.4 369 187.105V373.35C223.145 421.847 131.126 515.043 -1.72008 506.444C-1.72008 506.444 -76.2104 57.939 12.4355 113.819Z" fill="#F8F8F8"/>
</g>
<path d="M144.095 314.867C195.029 318.545 245.962 322.202 296.876 325.879C298.257 288.943 299.639 252.008 301 215.072C249.843 214.382 198.686 213.691 147.528 213C146.391 246.949 145.253 280.898 144.095 314.867Z" fill="#F0F0F0" stroke="#941FCB" stroke-width="0.711081"/>
<path d="M150.596 311.059C197.289 314.43 243.982 317.783 290.657 321.154C291.923 287.293 293.19 253.433 294.438 219.573C247.54 218.939 200.642 218.306 153.744 217.673C152.701 248.795 151.658 279.918 150.596 311.059Z" fill="#F9F9F9" stroke="#941FCB" stroke-width="0.651878"/>
<path d="M176.017 235.065C193.701 236.632 203.239 234.056 220.19 242.351C217.111 256.144 214.208 267.383 207.927 278.84C199.309 282.084 182.848 281.041 162.631 272.122C168.656 259.141 171.985 248.885 176.017 235.065Z" fill="#941FCB"/>
<path d="M173.807 230.2C191.491 231.767 201.029 229.19 217.98 237.486C214.901 251.279 211.998 262.518 205.717 273.975C197.1 277.219 180.638 276.176 160.421 267.256C166.447 254.276 169.775 244.02 173.807 230.2Z" fill="white"/>
<path d="M172.242 236.791L195.884 238.991L216.876 244.436L216.323 247.564L194.78 242.467L171.69 240.253L172.242 236.791Z" fill="#E1CEED"/>
<path d="M160.421 267.38C167.605 253.599 170.729 245.6 173.678 230.543C193.852 229.433 208.446 232.261 218.312 237.493C215.281 252.795 212.954 261.117 205.275 273.867C197.149 278.059 179.783 275.117 160.421 267.38Z" stroke="#941FCB" stroke-width="0.609498"/>
<path d="M172.132 237.029C190.724 237.646 200.396 239.305 216.544 244.211" stroke="#941FCB" stroke-width="0.609498"/>
<path d="M171.469 240.273C189.791 241.506 199.591 243.076 216.102 247.687" stroke="#941FCB" stroke-width="0.609498"/>
<path d="M170.364 245.37C188.426 248.676 198.062 250.406 214.334 253.247" stroke="#941FCB" stroke-width="0.609498"/>
<path d="M168.375 250.93C185.625 255.148 195.332 257.145 212.788 259.271" stroke="#941FCB" stroke-width="0.609498"/>
<path d="M165.945 256.722C175.463 259.858 180.792 261.616 209.031 266.221" stroke="#941FCB" stroke-width="0.609498"/>
<path d="M163.514 262.051C180.206 267.897 189.666 269.282 206.601 270.623" stroke="#941FCB" stroke-width="0.609498"/>
<path d="M178.981 237.493C173.961 260.491 171.46 261.255 166.829 269.233" stroke="#941FCB" stroke-width="0.609498"/>
<path d="M185.61 237.724C177.179 265.404 176.723 263.441 173.015 271.781" stroke="#941FCB" stroke-width="0.609498"/>
<path d="M192.018 238.419C188.686 254.007 185.808 261.436 179.865 273.635" stroke="#941FCB" stroke-width="0.609498"/>
<path d="M199.309 240.041C196.241 254.093 193.178 261.514 187.157 274.561" stroke="#941FCB" stroke-width="0.609498"/>
<path d="M205.938 241.431C202.977 256.034 199.6 263.158 193.344 275.72" stroke="#941FCB" stroke-width="0.609498"/>
<path d="M211.683 243.053C206.455 264.188 204.09 268.717 199.972 275.488" stroke="#941FCB" stroke-width="0.609498"/>
<path d="M177.087 233.902C177.096 233.915 177.1 233.925 177.099 233.932C177.099 233.941 177.092 233.947 177.081 233.949C177.069 233.951 177.054 233.951 177.036 233.951C177.018 233.95 176.998 233.948 176.977 233.947C176.956 233.945 176.936 233.946 176.917 233.949C176.892 233.952 176.87 233.957 176.85 233.964C176.831 233.971 176.812 233.979 176.795 233.986C176.777 233.994 176.761 234.001 176.746 234.006C176.731 234.011 176.716 234.013 176.703 234.012C176.69 234.012 176.678 234.007 176.667 234C176.656 233.993 176.645 233.989 176.634 233.988C176.618 233.987 176.601 233.988 176.583 233.989C176.566 233.991 176.549 233.994 176.533 233.997C176.518 234 176.504 234.003 176.491 234.005C176.479 234.008 176.469 234.01 176.462 234.011C176.448 234.01 176.436 234.006 176.427 233.999C176.419 233.992 176.415 233.982 176.416 233.971C176.417 233.945 176.428 233.928 176.448 233.919C176.469 233.91 176.496 233.907 176.531 233.909C176.537 233.91 176.543 233.911 176.55 233.912C176.557 233.914 176.565 233.915 176.572 233.915C176.59 233.917 176.605 233.909 176.618 233.893C176.631 233.876 176.641 233.854 176.65 233.827C176.659 233.799 176.666 233.767 176.67 233.732C176.676 233.695 176.68 233.658 176.684 233.621C176.688 233.584 176.69 233.548 176.693 233.514C176.696 233.479 176.699 233.448 176.702 233.422C176.714 233.326 176.725 233.227 176.735 233.125C176.744 233.023 176.752 232.927 176.758 232.837C176.763 232.762 176.766 232.698 176.767 232.644C176.751 232.648 176.738 232.654 176.726 232.663C176.713 232.672 176.702 232.681 176.692 232.692C176.681 232.703 176.672 232.715 176.662 232.728C176.654 232.741 176.646 232.752 176.639 232.763C176.638 232.764 176.638 232.766 176.637 232.768C176.637 232.77 176.637 232.773 176.637 232.776C176.638 232.779 176.638 232.782 176.638 232.784C176.638 232.785 176.635 232.789 176.631 232.796C176.626 232.803 176.62 232.811 176.613 232.82C176.606 232.828 176.599 232.837 176.591 232.846C176.584 232.855 176.578 232.861 176.574 232.865C176.559 232.879 176.539 232.903 176.513 232.937C176.489 232.97 176.461 233.01 176.429 233.057C176.398 233.103 176.366 233.154 176.331 233.21C176.298 233.266 176.264 233.323 176.231 233.381C176.198 233.439 176.167 233.496 176.138 233.553C176.11 233.609 176.086 233.661 176.066 233.708C176.056 233.73 176.048 233.751 176.042 233.773C176.037 233.795 176.03 233.815 176.021 233.834C176.013 233.851 176.003 233.865 175.991 233.876C175.98 233.886 175.964 233.89 175.942 233.888C175.934 233.888 175.927 233.886 175.922 233.882C175.917 233.878 175.914 233.875 175.912 233.875C175.899 233.875 175.888 233.877 175.878 233.88C175.869 233.884 175.861 233.886 175.854 233.885C175.844 233.881 175.836 233.876 175.829 233.871C175.823 233.866 175.818 233.86 175.813 233.853C175.809 233.846 175.807 233.838 175.808 233.829C175.808 233.827 175.808 233.825 175.808 233.823C175.81 233.82 175.81 233.817 175.811 233.815C175.811 233.814 175.81 233.813 175.809 233.812C175.809 233.811 175.809 233.81 175.809 233.809C175.8 233.786 175.791 233.762 175.782 233.738C175.774 233.713 175.767 233.684 175.761 233.651L175.762 233.632C175.763 233.622 175.76 233.606 175.754 233.583C175.75 233.56 175.739 233.53 175.724 233.494C175.72 233.475 175.718 233.457 175.718 233.438C175.718 233.418 175.715 233.401 175.707 233.386C175.705 233.382 175.703 233.38 175.7 233.379C175.696 233.378 175.695 233.373 175.696 233.364C175.696 233.362 175.696 233.36 175.696 233.356C175.698 233.353 175.698 233.351 175.698 233.349C175.695 233.332 175.69 233.312 175.682 233.287C175.674 233.261 175.666 233.236 175.658 233.212C175.65 233.187 175.643 233.166 175.637 233.148C175.632 233.131 175.629 233.122 175.629 233.121C175.63 233.115 175.63 233.111 175.632 233.107C175.633 233.101 175.634 233.097 175.634 233.092C175.635 233.086 175.631 233.078 175.623 233.069C175.616 233.06 175.612 233.052 175.61 233.045C175.604 233.026 175.6 233.006 175.597 232.985C175.595 232.963 175.591 232.94 175.584 232.914C175.582 232.903 175.578 232.889 175.573 232.873C175.568 232.856 175.564 232.837 175.559 232.818C175.554 232.798 175.548 232.778 175.542 232.756C175.537 232.735 175.532 232.714 175.527 232.695C175.525 232.689 175.524 232.682 175.524 232.674C175.523 232.664 175.522 232.655 175.519 232.646C175.518 232.644 175.516 232.64 175.512 232.633C175.508 232.625 175.505 232.618 175.501 232.61C175.497 232.601 175.494 232.594 175.491 232.587C175.489 232.58 175.487 232.576 175.487 232.574L175.488 232.572C175.477 232.574 175.468 232.586 175.46 232.609C175.453 232.631 175.446 232.657 175.44 232.687C175.435 232.716 175.43 232.745 175.425 232.773C175.421 232.8 175.417 232.819 175.412 232.829C175.405 232.843 175.402 232.861 175.4 232.883C175.4 232.904 175.397 232.929 175.392 232.957C175.389 232.976 175.383 232.993 175.374 233.008C175.366 233.023 175.361 233.04 175.36 233.058C175.359 233.066 175.359 233.075 175.358 233.083C175.359 233.091 175.359 233.099 175.358 233.107C175.357 233.132 175.351 233.154 175.342 233.176C175.335 233.198 175.328 233.227 175.322 233.262C175.322 233.264 175.322 233.267 175.322 233.27C175.323 233.273 175.323 233.276 175.323 233.278C175.323 233.283 175.321 233.288 175.317 233.292C175.314 233.295 175.311 233.296 175.309 233.296C175.302 233.329 175.295 233.36 175.29 233.39C175.286 233.421 175.28 233.452 175.273 233.483C175.266 233.509 175.258 233.534 175.249 233.559C175.241 233.583 175.234 233.608 175.228 233.636C175.222 233.663 175.217 233.69 175.214 233.717C175.212 233.745 175.209 233.772 175.204 233.799C175.23 233.8 175.258 233.798 175.286 233.793C175.315 233.786 175.342 233.784 175.369 233.786C175.398 233.788 175.422 233.798 175.441 233.817C175.437 233.829 175.434 233.838 175.43 233.845C175.426 233.85 175.422 233.854 175.416 233.856C175.411 233.858 175.404 233.859 175.396 233.858C175.388 233.858 175.379 233.859 175.367 233.859C175.358 233.859 175.353 233.861 175.351 233.864C175.349 233.867 175.347 233.869 175.342 233.87C175.324 233.873 175.306 233.874 175.286 233.874C175.268 233.875 175.25 233.875 175.232 233.875C175.214 233.875 175.196 233.877 175.178 233.879C175.161 233.881 175.144 233.884 175.128 233.889C175.121 233.892 175.112 233.894 175.099 233.895C175.087 233.896 175.074 233.897 175.059 233.897C175.044 233.898 175.029 233.898 175.013 233.898C174.998 233.899 174.985 233.901 174.973 233.902C174.958 233.903 174.939 233.906 174.917 233.91C174.894 233.915 174.873 233.917 174.854 233.915C174.839 233.914 174.828 233.91 174.818 233.903C174.81 233.896 174.807 233.884 174.808 233.866C174.809 233.849 174.816 233.838 174.828 233.832C174.84 233.828 174.854 233.825 174.87 233.824C174.887 233.824 174.904 233.825 174.921 233.825C174.939 233.826 174.954 233.823 174.966 233.817C174.979 233.81 174.99 233.802 174.999 233.792C175.009 233.782 175.017 233.772 175.023 233.762C175.029 233.752 175.034 233.743 175.038 233.736C175.042 233.728 175.044 233.723 175.044 233.721C175.044 233.716 175.044 233.711 175.043 233.706C175.043 233.702 175.044 233.697 175.044 233.692C175.044 233.687 175.045 233.683 175.046 233.681C175.06 233.648 175.074 233.617 175.089 233.587C175.105 233.557 175.118 233.523 175.129 233.485C175.131 233.484 175.131 233.482 175.131 233.479C175.132 233.476 175.131 233.473 175.13 233.469C175.131 233.466 175.131 233.464 175.131 233.461C175.135 233.452 175.139 233.441 175.144 233.427C175.151 233.413 175.157 233.398 175.163 233.383C175.171 233.367 175.178 233.351 175.184 233.335C175.191 233.318 175.198 233.303 175.203 233.288L175.203 233.282C175.204 233.278 175.203 233.274 175.203 233.271C175.203 233.268 175.203 233.265 175.203 233.261C175.203 233.257 175.208 233.251 175.215 233.243C175.224 233.234 175.229 233.222 175.232 233.208C175.239 233.183 175.243 233.159 175.243 233.135C175.245 233.112 175.248 233.09 175.253 233.068C175.259 233.041 175.266 233.015 175.274 232.99C175.282 232.965 175.29 232.94 175.298 232.917C175.306 232.893 175.312 232.869 175.318 232.847C175.325 232.823 175.33 232.799 175.333 232.774C175.335 232.755 175.339 232.736 175.344 232.716C175.35 232.697 175.356 232.677 175.363 232.657C175.37 232.637 175.377 232.616 175.383 232.595C175.389 232.574 175.394 232.553 175.397 232.531C175.399 232.51 175.404 232.49 175.412 232.471C175.419 232.452 175.425 232.433 175.428 232.414C175.433 232.39 175.436 232.364 175.438 232.338C175.441 232.311 175.445 232.285 175.449 232.261C175.452 232.249 175.457 232.236 175.465 232.221C175.473 232.204 175.478 232.191 175.479 232.18C175.479 232.176 175.477 232.171 175.472 232.164C175.468 232.157 175.466 232.15 175.467 232.141C175.467 232.139 175.472 232.135 175.481 232.128C175.49 232.12 175.501 232.111 175.516 232.102C175.53 232.091 175.546 232.08 175.564 232.069C175.582 232.057 175.6 232.046 175.619 232.036C175.62 232.035 175.623 232.035 175.628 232.035C175.635 232.036 175.642 232.036 175.649 232.037C175.658 232.037 175.666 232.039 175.671 232.04C175.676 232.04 175.679 232.043 175.68 232.047C175.682 232.05 175.683 232.056 175.682 232.063C175.682 232.07 175.681 232.081 175.68 232.093C175.679 232.105 175.678 232.117 175.676 232.129C175.675 232.141 175.675 232.153 175.674 232.166C175.673 232.181 175.672 232.193 175.673 232.202C175.673 232.211 175.674 232.219 175.674 232.228C175.676 232.236 175.678 232.243 175.679 232.251C175.682 232.258 175.684 232.267 175.687 232.278C175.689 232.289 175.691 232.302 175.692 232.317C175.694 232.331 175.697 232.346 175.704 232.362C175.705 232.367 175.709 232.374 175.715 232.384C175.721 232.393 175.724 232.398 175.725 232.4C175.731 232.424 175.733 232.448 175.731 232.472C175.73 232.496 175.732 232.519 175.739 232.543C175.741 232.547 175.745 232.553 175.751 232.558C175.758 232.564 175.761 232.569 175.761 232.572C175.761 232.574 175.76 232.576 175.759 232.58C175.759 232.583 175.759 232.585 175.759 232.587C175.758 232.591 175.759 232.592 175.76 232.592C175.767 232.599 175.772 232.61 175.777 232.625C175.781 232.641 175.785 232.658 175.788 232.677C175.791 232.695 175.793 232.715 175.795 232.735C175.798 232.754 175.802 232.772 175.806 232.787C175.808 232.796 175.811 232.806 175.815 232.816C175.82 232.825 175.824 232.835 175.827 232.847C175.829 232.856 175.83 232.866 175.83 232.878C175.83 232.888 175.832 232.898 175.834 232.907C175.84 232.928 175.85 232.954 175.863 232.983C175.877 233.013 175.887 233.045 175.895 233.078L175.893 233.097C175.893 233.104 175.896 233.116 175.902 233.131C175.91 233.145 175.917 233.16 175.923 233.174C175.929 233.197 175.933 233.223 175.936 233.251C175.938 233.279 175.942 233.306 175.948 233.332C175.95 233.335 175.954 233.34 175.96 233.345C175.967 233.35 175.971 233.354 175.972 233.356C175.972 233.362 175.972 233.371 175.971 233.381C175.972 233.392 175.972 233.403 175.972 233.413C175.974 233.424 175.976 233.433 175.98 233.441C175.985 233.449 175.993 233.453 176.003 233.454C176.013 233.454 176.023 233.449 176.035 233.437C176.047 233.424 176.059 233.408 176.071 233.39C176.084 233.372 176.096 233.353 176.108 233.334C176.121 233.315 176.132 233.299 176.142 233.286C176.143 233.283 176.149 233.276 176.159 233.264C176.169 233.251 176.181 233.236 176.194 233.219C176.196 233.214 176.198 233.208 176.2 233.202C176.201 233.195 176.204 233.189 176.207 233.184C176.21 233.182 176.213 233.18 176.219 233.18C176.225 233.178 176.23 233.176 176.232 233.174C176.236 233.169 176.238 233.164 176.238 233.157C176.238 233.15 176.241 233.144 176.247 233.14C176.249 233.137 176.253 233.136 176.258 233.135C176.265 233.134 176.269 233.132 176.271 233.129C176.276 233.125 176.278 233.119 176.277 233.112C176.277 233.105 176.279 233.099 176.285 233.094C176.287 233.092 176.291 233.091 176.298 233.09C176.304 233.088 176.308 233.087 176.309 233.085C176.319 233.07 176.326 233.054 176.33 233.035C176.335 233.015 176.342 232.997 176.353 232.981C176.354 232.979 176.358 232.978 176.364 232.977C176.371 232.975 176.374 232.974 176.376 232.972C176.382 232.961 176.385 232.954 176.387 232.949C176.388 232.943 176.393 232.935 176.403 232.924C176.411 232.914 176.42 232.905 176.43 232.898C176.44 232.889 176.448 232.879 176.454 232.869C176.46 232.862 176.462 232.855 176.462 232.847C176.461 232.839 176.464 232.831 176.47 232.823C176.475 232.814 176.483 232.805 176.494 232.796C176.505 232.785 176.514 232.771 176.521 232.755C176.526 232.738 176.539 232.72 176.559 232.702C176.579 232.682 176.597 232.663 176.611 232.643C176.625 232.624 176.636 232.608 176.646 232.595C176.655 232.581 176.663 232.568 176.671 232.557C176.679 232.546 176.687 232.535 176.695 232.524C176.704 232.512 176.716 232.499 176.729 232.485C176.736 232.477 176.745 232.469 176.757 232.46C176.768 232.45 176.78 232.436 176.793 232.418C176.795 232.414 176.797 232.408 176.799 232.401C176.8 232.394 176.803 232.388 176.806 232.384C176.813 232.377 176.822 232.372 176.833 232.368C176.843 232.365 176.852 232.359 176.858 232.351C176.872 232.333 176.883 232.314 176.892 232.293C176.901 232.272 176.911 232.252 176.923 232.235C176.934 232.217 176.949 232.202 176.965 232.192C176.982 232.182 177.005 232.177 177.036 232.18C177.061 232.181 177.078 232.19 177.087 232.206C177.095 232.22 177.099 232.238 177.098 232.259C177.096 232.277 177.093 232.296 177.087 232.317C177.082 232.338 177.076 232.359 177.069 232.379C177.062 232.401 177.056 232.426 177.051 232.454C177.047 232.483 177.043 232.513 177.039 232.546C177.036 232.577 177.032 232.61 177.029 232.644C177.027 232.678 177.024 232.711 177.021 232.745C177.015 232.804 177.004 232.862 176.988 232.919C176.974 232.977 176.965 233.034 176.961 233.091C176.96 233.105 176.959 233.118 176.958 233.132C176.958 233.146 176.958 233.16 176.957 233.173C176.956 233.194 176.952 233.212 176.947 233.227C176.942 233.24 176.939 233.256 176.938 233.274C176.937 233.289 176.938 233.305 176.941 233.323C176.944 233.342 176.945 233.357 176.944 233.37C176.939 233.382 176.934 233.399 176.928 233.419C176.923 233.439 176.917 233.461 176.911 233.485C176.906 233.509 176.902 233.535 176.898 233.562C176.894 233.588 176.891 233.615 176.889 233.641C176.889 233.652 176.89 233.664 176.892 233.678C176.895 233.691 176.897 233.701 176.896 233.71C176.895 233.727 176.892 233.743 176.886 233.759C176.881 233.773 176.878 233.788 176.877 233.802C176.876 233.815 176.878 233.827 176.881 233.838C176.885 233.849 176.889 233.858 176.894 233.867C176.899 233.875 176.905 233.881 176.911 233.886C176.917 233.891 176.923 233.893 176.927 233.894C176.936 233.894 176.947 233.894 176.96 233.893C176.973 233.891 176.986 233.888 176.999 233.886C177.012 233.883 177.023 233.88 177.033 233.879C177.042 233.877 177.049 233.875 177.052 233.876C177.058 233.877 177.064 233.881 177.07 233.887C177.077 233.891 177.083 233.897 177.087 233.902ZM178.363 233.657C178.37 233.664 178.373 233.673 178.372 233.683C178.371 233.698 178.366 233.712 178.355 233.724C178.345 233.735 178.332 233.746 178.317 233.757C178.302 233.766 178.286 233.776 178.268 233.786C178.252 233.797 178.236 233.81 178.221 233.824C178.202 233.844 178.179 233.867 178.153 233.893C178.128 233.917 178.108 233.943 178.092 233.969C178.09 233.974 178.082 233.984 178.07 233.998C178.058 234.012 178.044 234.027 178.027 234.043C178.011 234.058 177.993 234.072 177.974 234.083C177.955 234.095 177.937 234.1 177.92 234.098C177.908 234.097 177.897 234.095 177.886 234.089C177.875 234.086 177.866 234.08 177.857 234.073C177.847 234.067 177.84 234.06 177.834 234.052C177.829 234.046 177.827 234.039 177.827 234.033C177.828 234.023 177.832 234.014 177.84 234.005C177.849 233.996 177.855 233.982 177.856 233.962C177.856 233.956 177.856 233.953 177.854 233.95C177.853 233.948 177.851 233.945 177.849 233.942C177.848 233.939 177.848 233.934 177.847 233.929C177.846 233.924 177.846 233.915 177.847 233.904C177.848 233.892 177.85 233.88 177.854 233.868C177.859 233.854 177.865 233.841 177.87 233.827C177.876 233.813 177.881 233.799 177.885 233.785C177.89 233.771 177.893 233.757 177.894 233.743C177.895 233.74 177.894 233.737 177.893 233.734C177.894 233.729 177.894 233.726 177.894 233.722C177.895 233.716 177.897 233.707 177.901 233.694C177.905 233.682 177.909 233.668 177.915 233.654C177.92 233.639 177.925 233.624 177.929 233.607C177.933 233.59 177.936 233.573 177.937 233.557C177.938 233.537 177.937 233.52 177.934 233.506C177.922 233.509 177.912 233.515 177.903 233.523C177.894 233.529 177.885 233.538 177.877 233.548C177.87 233.557 177.863 233.567 177.854 233.578C177.847 233.588 177.84 233.598 177.832 233.607C177.827 233.611 177.819 233.618 177.808 233.625C177.797 233.633 177.786 233.641 177.773 233.65C177.762 233.659 177.752 233.668 177.743 233.676C177.734 233.684 177.729 233.691 177.729 233.696C177.729 233.698 177.729 233.701 177.73 233.704C177.731 233.707 177.731 233.71 177.731 233.712C177.731 233.715 177.728 233.72 177.722 233.726C177.716 233.732 177.71 233.738 177.703 233.745C177.698 233.751 177.692 233.757 177.686 233.763C177.681 233.768 177.678 233.771 177.678 233.773C177.676 233.785 177.666 233.795 177.648 233.805C177.631 233.813 177.615 233.824 177.602 233.838C177.592 233.848 177.583 233.858 177.576 233.869C177.569 233.881 177.562 233.891 177.556 233.9C177.55 233.909 177.545 233.917 177.539 233.922C177.533 233.927 177.527 233.93 177.519 233.929C177.517 233.929 177.514 233.928 177.508 233.927C177.504 233.925 177.501 233.924 177.497 233.924C177.49 233.924 177.485 233.928 177.482 233.937C177.48 233.947 177.478 233.954 177.476 233.959C177.467 233.972 177.456 233.982 177.444 233.989C177.433 233.994 177.418 234.003 177.401 234.014C177.393 234.019 177.387 234.024 177.384 234.03C177.381 234.038 177.378 234.044 177.373 234.049C177.368 234.054 177.361 234.057 177.352 234.06C177.343 234.064 177.329 234.065 177.31 234.063C177.299 234.062 177.289 234.061 177.28 234.058C177.271 234.055 177.266 234.052 177.266 234.047C177.267 234.045 177.267 234.043 177.269 234.04C177.27 234.036 177.271 234.034 177.271 234.032C177.271 234.031 177.269 234.028 177.265 234.025C177.261 234.021 177.256 234.016 177.25 234.01C177.245 234.004 177.241 233.996 177.237 233.986C177.234 233.975 177.232 233.963 177.233 233.948C177.234 233.931 177.237 233.914 177.242 233.896C177.247 233.877 177.253 233.859 177.258 233.841C177.264 233.824 177.27 233.807 177.276 233.792C177.281 233.775 177.285 233.76 177.288 233.745C177.295 233.71 177.299 233.675 177.302 233.639C177.304 233.603 177.312 233.572 177.325 233.544C177.331 233.534 177.338 233.52 177.346 233.503C177.353 233.485 177.36 233.464 177.367 233.44C177.369 233.434 177.371 233.425 177.374 233.414C177.377 233.401 177.38 233.388 177.385 233.373C177.389 233.359 177.393 233.344 177.397 233.33C177.402 233.314 177.408 233.301 177.414 233.289C177.416 233.286 177.42 233.283 177.426 233.279C177.432 233.274 177.437 233.27 177.439 233.267C177.442 233.261 177.443 233.254 177.444 233.247C177.445 233.239 177.449 233.23 177.453 233.222C177.456 233.218 177.46 233.214 177.467 233.211C177.474 233.206 177.478 233.202 177.479 233.199C177.485 233.19 177.489 233.178 177.492 233.165C177.495 233.151 177.5 233.14 177.507 233.131C177.512 233.125 177.52 233.12 177.53 233.117C177.541 233.112 177.55 233.106 177.557 233.098C177.563 233.091 177.567 233.083 177.57 233.075C177.574 233.067 177.578 233.06 177.582 233.054C177.595 233.042 177.605 233.031 177.613 233.022C177.622 233.012 177.63 233.003 177.637 232.995C177.645 232.988 177.652 232.98 177.659 232.973C177.666 232.966 177.675 232.959 177.685 232.953C177.691 232.949 177.699 232.942 177.708 232.931C177.719 232.92 177.727 232.912 177.735 232.909C177.744 232.906 177.751 232.904 177.758 232.902C177.765 232.901 177.774 232.897 177.784 232.89C177.786 232.888 177.789 232.884 177.791 232.878C177.794 232.871 177.796 232.867 177.798 232.866C177.806 232.863 177.813 232.861 177.82 232.859C177.827 232.858 177.836 232.853 177.846 232.845C177.858 232.836 177.868 232.826 177.875 232.816C177.882 232.805 177.89 232.797 177.899 232.79C177.908 232.785 177.918 232.781 177.928 232.78C177.939 232.778 177.949 232.775 177.958 232.771C177.974 232.763 177.99 232.753 178.007 232.741C178.025 232.727 178.043 232.714 178.062 232.702C178.081 232.688 178.1 232.678 178.12 232.67C178.141 232.66 178.162 232.657 178.183 232.658C178.197 232.659 178.21 232.659 178.224 232.658C178.239 232.656 178.253 232.655 178.266 232.656C178.277 232.657 178.288 232.66 178.297 232.665C178.306 232.67 178.31 232.679 178.309 232.693C178.307 232.733 178.299 232.778 178.286 232.827C178.273 232.875 178.259 232.928 178.244 232.984C178.23 233.04 178.216 233.1 178.202 233.163C178.189 233.225 178.181 233.29 178.176 233.358C178.176 233.36 178.176 233.363 178.177 233.368C178.179 233.372 178.18 233.378 178.179 233.387C178.179 233.393 178.176 233.401 178.173 233.41C178.17 233.419 178.167 233.427 178.163 233.437C178.159 233.445 178.155 233.453 178.152 233.461C178.149 233.47 178.148 233.477 178.147 233.483C178.146 233.494 178.146 233.504 178.145 233.515C178.145 233.525 178.145 233.535 178.145 233.543C178.143 233.561 178.14 233.581 178.134 233.603C178.129 233.625 178.122 233.648 178.114 233.672C178.107 233.695 178.101 233.717 178.095 233.74C178.089 233.763 178.086 233.785 178.084 233.805C178.084 233.815 178.084 233.825 178.084 233.835C178.084 233.844 178.086 233.852 178.089 233.861C178.103 233.855 178.114 233.848 178.123 233.839C178.134 233.831 178.143 233.821 178.151 233.81C178.16 233.798 178.169 233.785 178.179 233.772C178.188 233.758 178.2 233.743 178.215 233.728C178.221 233.722 178.229 233.715 178.239 233.705C178.249 233.695 178.26 233.686 178.271 233.677C178.282 233.668 178.294 233.66 178.306 233.654C178.318 233.647 178.329 233.644 178.34 233.645C178.347 233.646 178.355 233.65 178.363 233.657ZM178.05 232.814C178.047 232.814 178.044 232.814 178.041 232.813C178.037 232.812 178.035 232.811 178.033 232.811C178.017 232.81 178.004 232.814 177.995 232.823C177.987 232.831 177.981 232.834 177.976 232.834C177.973 232.834 177.971 232.834 177.968 232.833C177.965 232.832 177.961 232.831 177.958 232.831C177.953 232.831 177.95 232.834 177.95 232.84C177.949 232.845 177.946 232.849 177.941 232.852C177.936 232.857 177.93 232.859 177.923 232.859C177.916 232.857 177.91 232.858 177.905 232.862C177.9 232.867 177.894 232.875 177.888 232.886C177.883 232.897 177.875 232.907 177.865 232.918C177.856 232.927 177.845 232.935 177.832 232.941C177.82 232.948 177.81 232.955 177.803 232.961C177.801 232.966 177.798 232.972 177.796 232.98C177.794 232.987 177.792 232.993 177.79 232.997C177.78 233.011 177.769 233.028 177.754 233.049C177.742 233.068 177.727 233.088 177.712 233.109C177.697 233.13 177.682 233.151 177.667 233.171C177.653 233.19 177.641 233.207 177.632 233.223C177.622 233.237 177.615 233.254 177.611 233.274C177.606 233.293 177.602 233.314 177.599 233.336C177.596 233.357 177.594 233.378 177.591 233.398C177.589 233.417 177.586 233.433 177.582 233.445C177.557 233.513 177.533 233.582 177.511 233.651C177.489 233.72 177.476 233.787 177.472 233.852C177.494 233.851 177.512 233.844 177.524 233.831C177.538 233.817 177.549 233.801 177.558 233.784C177.566 233.766 177.574 233.749 177.582 233.733C177.589 233.717 177.599 233.705 177.611 233.697C177.62 233.692 177.629 233.686 177.638 233.677C177.648 233.668 177.657 233.659 177.663 233.651C177.667 233.647 177.669 233.642 177.669 233.636C177.67 233.629 177.672 233.622 177.677 233.617C177.684 233.611 177.692 233.603 177.701 233.595C177.711 233.588 177.721 233.58 177.731 233.572C177.741 233.564 177.75 233.557 177.758 233.55C177.767 233.542 177.773 233.536 177.778 233.531C177.783 233.526 177.785 233.518 177.786 233.508C177.788 233.496 177.79 233.488 177.792 233.483C177.804 233.463 177.817 233.446 177.831 233.431C177.845 233.415 177.858 233.399 177.871 233.382C177.892 233.354 177.909 233.326 177.924 233.298C177.94 233.271 177.953 233.242 177.965 233.214C177.976 233.185 177.987 233.155 177.996 233.125C178.005 233.094 178.015 233.061 178.025 233.025C178.03 233.005 178.037 232.982 178.044 232.958C178.052 232.935 178.056 232.91 178.058 232.885C178.06 232.858 178.057 232.835 178.05 232.814ZM179.669 232.848C179.671 232.855 179.673 232.861 179.672 232.866C179.671 232.879 179.664 232.891 179.651 232.902C179.638 232.914 179.626 232.93 179.614 232.951C179.609 232.959 179.607 232.968 179.608 232.979C179.608 232.988 179.605 232.999 179.599 233.01C179.594 233.018 179.589 233.024 179.584 233.026C179.579 233.029 179.575 233.032 179.57 233.035C179.567 233.037 179.564 233.04 179.56 233.044C179.558 233.048 179.556 233.055 179.556 233.064C179.555 233.073 179.555 233.081 179.556 233.088C179.556 233.096 179.556 233.102 179.556 233.107C179.555 233.116 179.552 233.125 179.545 233.137C179.538 233.148 179.53 233.16 179.52 233.173C179.511 233.185 179.501 233.198 179.49 233.211C179.48 233.224 179.471 233.236 179.464 233.248C179.459 233.257 179.456 233.265 179.454 233.273C179.454 233.281 179.452 233.288 179.448 233.295C179.439 233.314 179.429 233.332 179.417 233.35C179.407 233.367 179.396 233.384 179.386 233.399C179.376 233.413 179.367 233.425 179.359 233.435C179.351 233.445 179.346 233.452 179.344 233.455C179.337 233.46 179.333 233.467 179.333 233.474C179.333 233.481 179.332 233.489 179.328 233.5L179.303 233.545C179.3 233.547 179.295 233.549 179.288 233.551C179.281 233.552 179.278 233.554 179.278 233.556C179.274 233.562 179.27 233.57 179.264 233.578C179.259 233.586 179.254 233.594 179.25 233.602C179.241 233.615 179.236 233.63 179.234 233.645C179.232 233.661 179.228 233.674 179.222 233.683C179.216 233.691 179.206 233.7 179.191 233.709C179.178 233.718 179.167 233.727 179.158 233.737C179.131 233.772 179.111 233.8 179.097 233.82C179.083 233.839 179.073 233.853 179.067 233.862C179.065 233.864 179.06 233.866 179.052 233.868C179.046 233.868 179.042 233.871 179.042 233.875C179.042 233.877 179.042 233.88 179.042 233.883C179.042 233.885 179.043 233.887 179.043 233.889C179.042 233.893 179.041 233.897 179.037 233.9C179.034 233.902 179.031 233.905 179.027 233.909C179.024 233.912 179.02 233.916 179.017 233.921C179.013 233.926 179.011 233.933 179.011 233.943C179.01 233.957 179.009 233.973 179.009 233.99C179.01 234.007 179.01 234.024 179.009 234.04C179.008 234.051 179.007 234.062 179.005 234.071C179.003 234.081 179.002 234.093 179.001 234.107C179 234.131 178.998 234.158 178.997 234.19C178.997 234.222 178.996 234.254 178.994 234.287C178.993 234.3 178.992 234.314 178.99 234.326C178.989 234.34 178.987 234.353 178.986 234.366C178.982 234.387 178.976 234.406 178.967 234.423C178.96 234.442 178.955 234.462 178.954 234.483C178.953 234.493 178.953 234.503 178.954 234.511C178.954 234.521 178.954 234.53 178.953 234.538C178.952 234.554 178.947 234.568 178.938 234.579C178.929 234.59 178.919 234.604 178.91 234.621C178.901 234.635 178.894 234.648 178.888 234.658C178.883 234.668 178.878 234.678 178.872 234.687C178.866 234.696 178.859 234.705 178.849 234.714C178.841 234.724 178.831 234.735 178.817 234.746L178.692 234.855C178.681 234.865 178.668 234.877 178.655 234.891C178.641 234.904 178.632 234.911 178.626 234.911C178.624 234.911 178.622 234.91 178.619 234.909C178.615 234.908 178.613 234.908 178.611 234.908C178.607 234.908 178.606 234.908 178.606 234.909C178.593 234.921 178.575 234.93 178.55 234.935C178.525 234.942 178.497 234.946 178.466 234.948C178.435 234.95 178.404 234.951 178.371 234.949C178.338 234.948 178.308 234.946 178.282 234.944C178.278 234.944 178.274 234.942 178.271 234.937C178.269 234.933 178.264 234.93 178.259 234.93C178.257 234.932 178.255 234.935 178.254 234.938C178.254 234.942 178.246 234.943 178.231 234.942C178.217 234.941 178.202 234.939 178.189 234.934C178.174 234.93 178.159 234.926 178.142 234.921C178.138 234.921 178.134 234.921 178.131 234.921C178.127 234.921 178.122 234.922 178.117 234.921C178.108 234.921 178.103 234.918 178.1 234.914C178.096 234.909 178.093 234.907 178.091 234.907C178.082 234.906 178.076 234.907 178.073 234.91C178.069 234.914 178.063 234.916 178.055 234.915C178.047 234.914 178.041 234.912 178.038 234.907C178.035 234.904 178.03 234.902 178.024 234.902C178.012 234.902 177.998 234.905 177.982 234.91C177.966 234.915 177.951 234.917 177.939 234.916C177.927 234.915 177.919 234.911 177.914 234.903C177.909 234.895 177.907 234.887 177.908 234.879C177.909 234.869 177.913 234.857 177.921 234.843C177.93 234.83 177.94 234.816 177.953 234.801C177.964 234.786 177.977 234.77 177.991 234.754C178.004 234.739 178.015 234.725 178.024 234.712C178.025 234.71 178.031 234.704 178.043 234.695C178.053 234.685 178.068 234.668 178.089 234.645C178.093 234.64 178.095 234.634 178.095 234.627C178.094 234.62 178.097 234.615 178.102 234.611C178.108 234.606 178.112 234.605 178.115 234.606C178.118 234.607 178.122 234.605 178.127 234.6C178.135 234.593 178.141 234.585 178.146 234.578C178.151 234.571 178.157 234.563 178.166 234.556C178.174 234.549 178.183 234.543 178.193 234.537C178.203 234.532 178.21 234.528 178.215 234.524C178.221 234.517 178.226 234.508 178.228 234.496C178.229 234.486 178.232 234.476 178.236 234.465C178.239 234.456 178.244 234.448 178.252 234.441C178.259 234.434 178.271 234.431 178.288 234.432C178.3 234.433 178.308 234.439 178.31 234.448C178.314 234.459 178.316 234.466 178.315 234.468C178.315 234.479 178.31 234.488 178.303 234.494C178.295 234.5 178.286 234.504 178.276 234.508C178.266 234.511 178.258 234.514 178.25 234.516C178.243 234.517 178.239 234.519 178.239 234.521C178.238 234.526 178.24 234.531 178.244 234.536C178.248 234.54 178.25 234.544 178.25 234.547C178.25 234.555 178.245 234.567 178.235 234.583C178.223 234.599 178.21 234.615 178.196 234.629C178.183 234.645 178.17 234.659 178.159 234.67C178.147 234.682 178.142 234.687 178.142 234.686C178.141 234.698 178.146 234.706 178.156 234.712C178.165 234.718 178.178 234.724 178.193 234.728C178.208 234.732 178.224 234.736 178.243 234.739C178.261 234.744 178.278 234.749 178.295 234.754C178.313 234.761 178.337 234.768 178.367 234.774C178.397 234.781 178.428 234.786 178.461 234.789C178.485 234.791 178.51 234.791 178.534 234.789C178.559 234.788 178.581 234.784 178.602 234.777C178.604 234.777 178.605 234.775 178.605 234.772C178.607 234.77 178.61 234.768 178.615 234.767C178.627 234.764 178.636 234.763 178.641 234.764C178.647 234.765 178.658 234.764 178.675 234.76C178.682 234.76 178.689 234.757 178.694 234.75C178.7 234.744 178.703 234.74 178.703 234.737C178.704 234.73 178.704 234.723 178.703 234.714C178.702 234.707 178.702 234.7 178.703 234.695C178.703 234.688 178.706 234.68 178.711 234.673C178.715 234.667 178.72 234.66 178.725 234.651C178.731 234.643 178.736 234.633 178.741 234.622C178.746 234.611 178.749 234.599 178.75 234.584C178.751 234.574 178.751 234.564 178.75 234.552C178.751 234.541 178.752 234.528 178.753 234.516C178.754 234.503 178.755 234.49 178.757 234.476C178.759 234.463 178.763 234.448 178.768 234.433C178.769 234.428 178.771 234.425 178.773 234.422C178.776 234.42 178.778 234.418 178.78 234.416C178.782 234.414 178.785 234.411 178.787 234.407C178.79 234.403 178.792 234.397 178.795 234.388C178.798 234.374 178.801 234.357 178.803 234.34C178.805 234.323 178.807 234.304 178.808 234.283C178.81 234.251 178.811 234.217 178.812 234.181C178.812 234.146 178.812 234.112 178.812 234.078C178.812 234.044 178.812 234.012 178.812 233.982C178.812 233.951 178.813 233.925 178.814 233.904C178.815 233.89 178.818 233.878 178.823 233.87C178.828 233.862 178.83 233.857 178.83 233.856C178.83 233.853 178.829 233.846 178.827 233.835C178.825 233.825 178.823 233.813 178.821 233.8C178.819 233.786 178.817 233.772 178.814 233.758C178.813 233.743 178.813 233.73 178.814 233.72C178.814 233.711 178.815 233.703 178.815 233.696C178.817 233.688 178.818 233.679 178.819 233.671C178.82 233.65 178.818 233.628 178.813 233.605C178.81 233.581 178.807 233.557 178.804 233.533C178.801 233.504 178.799 233.479 178.798 233.458C178.797 233.435 178.796 233.412 178.793 233.387C178.79 233.363 178.786 233.334 178.781 233.3C178.776 233.267 178.768 233.225 178.756 233.173C178.751 233.151 178.749 233.13 178.749 233.11C178.75 233.09 178.747 233.071 178.74 233.054C178.739 233.052 178.737 233.051 178.734 233.05C178.731 233.05 178.73 233.047 178.73 233.04C178.73 233.035 178.729 233.029 178.725 233.021C178.722 233.012 178.719 233.004 178.714 232.996C178.71 232.988 178.706 232.98 178.7 232.975C178.694 232.969 178.688 232.966 178.683 232.965C178.668 232.964 178.655 232.971 178.645 232.985C178.635 232.999 178.624 233.015 178.611 233.032C178.607 233.037 178.6 233.042 178.591 233.048C178.583 233.054 178.577 233.059 178.573 233.064C178.568 233.071 178.565 233.079 178.565 233.087C178.564 233.096 178.563 233.104 178.562 233.111C178.561 233.117 178.559 233.123 178.554 233.128C178.551 233.132 178.544 233.133 178.533 233.133C178.529 233.137 178.523 233.141 178.516 233.147C178.51 233.152 178.503 233.158 178.496 233.165C178.491 233.17 178.488 233.176 178.487 233.182C178.487 233.187 178.485 233.193 178.483 233.199C178.481 233.204 178.478 233.209 178.474 233.213C178.47 233.216 178.464 233.217 178.454 233.216C178.45 233.216 178.445 233.215 178.44 233.213C178.435 233.211 178.433 233.205 178.433 233.197C178.434 233.186 178.437 233.177 178.442 233.167C178.448 233.157 178.455 233.148 178.463 233.139C178.471 233.13 178.479 233.121 178.488 233.112C178.497 233.103 178.506 233.094 178.514 233.083C178.518 233.076 178.522 233.068 178.525 233.057C178.53 233.047 178.54 233.033 178.554 233.016C178.556 233.012 178.56 233.008 178.566 233.005C178.571 233.001 178.575 232.997 178.577 232.993C178.581 232.99 178.583 232.985 178.585 232.977C178.586 232.97 178.589 232.964 178.592 232.959C178.597 232.954 178.603 232.95 178.611 232.949C178.618 232.946 178.625 232.943 178.63 232.939C178.634 232.934 178.636 232.928 178.636 232.922C178.637 232.915 178.639 232.909 178.644 232.904C178.653 232.894 178.661 232.886 178.669 232.882C178.677 232.877 178.685 232.87 178.694 232.86C178.699 232.854 178.705 232.844 178.712 232.831C178.721 232.816 178.731 232.802 178.742 232.788C178.754 232.774 178.768 232.763 178.784 232.753C178.801 232.743 178.821 232.738 178.844 232.74C178.851 232.743 178.859 232.75 178.868 232.761C178.878 232.772 178.885 232.782 178.89 232.791C178.893 232.803 178.894 232.816 178.892 232.831C178.89 232.845 178.891 232.859 178.895 232.874C178.896 232.878 178.9 232.882 178.906 232.888C178.912 232.893 178.916 232.898 178.918 232.9C178.921 232.915 178.922 232.928 178.92 232.94C178.918 232.95 178.919 232.965 178.923 232.983C178.923 232.985 178.925 232.987 178.928 232.988C178.932 232.988 178.934 232.991 178.933 232.996C178.936 233.009 178.939 233.022 178.944 233.034C178.949 233.045 178.954 233.057 178.959 233.071C178.963 233.085 178.966 233.101 178.968 233.12C178.971 233.138 178.972 233.161 178.97 233.188C178.968 233.213 178.966 233.232 178.961 233.247C178.958 233.261 178.956 233.276 178.955 233.289C178.955 233.3 178.955 233.31 178.957 233.32C178.959 233.329 178.964 233.341 178.97 233.356C178.975 233.365 178.981 233.373 178.988 233.379C178.995 233.385 178.999 233.394 179.002 233.406C179.008 233.434 179.01 233.463 179.005 233.495C179.002 233.526 179.001 233.555 179.003 233.584C179.004 233.615 179.007 233.644 179.011 233.672C179.016 233.7 179.017 233.728 179.015 233.755L179.014 233.774C179.022 233.774 179.03 233.771 179.037 233.765C179.043 233.759 179.05 233.752 179.056 233.744C179.061 233.736 179.067 233.727 179.072 233.716C179.078 233.706 179.084 233.696 179.091 233.686C179.094 233.681 179.098 233.676 179.103 233.672C179.11 233.669 179.114 233.665 179.117 233.662C179.122 233.651 179.126 233.638 179.129 233.623C179.133 233.608 179.138 233.594 179.144 233.582C179.158 233.557 179.172 233.533 179.189 233.508C179.205 233.484 179.222 233.459 179.238 233.434L179.239 233.431C179.239 233.429 179.238 233.426 179.238 233.423C179.238 233.42 179.238 233.417 179.238 233.415C179.238 233.413 179.239 233.411 179.24 233.41C179.25 233.404 179.257 233.394 179.261 233.382C179.266 233.368 179.27 233.354 179.272 233.339C179.275 233.325 179.278 233.31 179.281 233.294C179.284 233.278 179.29 233.263 179.298 233.249C179.3 233.246 179.302 233.245 179.305 233.246C179.308 233.247 179.31 233.244 179.31 233.237C179.31 233.236 179.31 233.235 179.309 233.234C179.309 233.233 179.309 233.231 179.309 233.229C179.31 233.225 179.314 233.218 179.323 233.208C179.333 233.198 179.337 233.19 179.338 233.185C179.338 233.182 179.338 233.179 179.337 233.176C179.337 233.171 179.337 233.168 179.337 233.164C179.337 233.165 179.342 233.159 179.35 233.146C179.358 233.132 179.364 233.117 179.367 233.1C179.368 233.096 179.366 233.09 179.362 233.083C179.359 233.076 179.358 233.069 179.357 233.062C179.356 233.045 179.354 233.034 179.35 233.028C179.346 233.022 179.34 233.018 179.333 233.018C179.323 233.017 179.313 233.019 179.301 233.023C179.289 233.028 179.277 233.03 179.265 233.029C179.26 233.028 179.255 233.027 179.25 233.026C179.245 233.023 179.242 233.018 179.243 233.009C179.244 232.993 179.249 232.98 179.257 232.971C179.266 232.962 179.276 232.955 179.288 232.951C179.3 232.946 179.313 232.942 179.327 232.939C179.341 232.935 179.354 232.929 179.366 232.921C179.375 232.916 179.382 232.911 179.386 232.909C179.391 232.906 179.397 232.903 179.404 232.9C179.413 232.897 179.426 232.892 179.442 232.887C179.458 232.881 179.482 232.872 179.514 232.861C179.529 232.851 179.545 232.842 179.56 232.834C179.576 232.825 179.596 232.822 179.619 232.824C179.63 232.825 179.639 232.827 179.648 232.831C179.657 232.833 179.664 232.839 179.669 232.848Z" fill="#941FCB"/>
<path d="M198.001 233.67C198.001 234.239 197.473 234.741 196.768 234.741C196.064 234.741 195.535 234.239 195.535 233.67C195.535 233.101 196.064 232.599 196.768 232.599C197.473 232.599 198.001 233.101 198.001 233.67Z" stroke="#941FCB" stroke-width="0.406332"/>
<path d="M222.923 271.309C235.132 274.756 241.962 275.484 254.109 273.95C253.239 287.719 251.146 294.8 244.459 306.253C232.924 310.778 226.011 309.313 213.375 303.917C221.737 292.678 224.216 285.665 222.923 271.309Z" fill="#941FCB"/>
<path d="M220.485 266.636C232.694 270.083 239.524 270.811 251.671 269.277C250.801 283.046 248.708 290.127 242.021 301.581C230.486 306.106 223.574 304.641 210.937 299.244C219.299 288.005 221.778 280.992 220.485 266.636Z" fill="white"/>
<path d="M210.937 299.041C218.53 288.847 221.295 282.232 220.079 266.738C231.817 270.182 238.666 270.788 251.367 269.481C250.626 283.549 249.579 291.152 241.208 301.784C231.549 306.52 224.427 304.595 210.937 299.041Z" stroke="#941FCB" stroke-width="0.609498"/>
<path d="M236.739 272.833C236.739 273.356 236.357 273.747 235.926 273.747C235.495 273.747 235.113 273.356 235.113 272.833C235.113 272.309 235.495 271.918 235.926 271.918C236.357 271.918 236.739 272.309 236.739 272.833Z" stroke="#941FCB" stroke-width="0.406332"/>
<path d="M225.26 275.88C224.643 276.832 226.241 277.351 237.551 278.217" stroke="#941FCB" stroke-width="0.609498"/>
<path d="M230.644 281.264C230.644 281.264 243.443 287.46 245.17 284.921" stroke="#941FCB" stroke-width="0.609498"/>
<path d="M227.406 292.844C226.999 295.181 236.345 294.368 240.002 295.181" stroke="#941FCB" stroke-width="0.609498"/>
<path d="M222.517 286.546C227.572 288.057 230.467 288.755 235.926 289.289" stroke="#941FCB" stroke-width="0.609498"/>
<path d="M218.657 296.705C225.52 299.558 229.336 300.081 236.129 300.565" stroke="#941FCB" stroke-width="0.609498"/>
<path d="M251.57 245.608C261.255 244.829 266.805 244.371 277.169 243.475C277.169 248.672 277.169 250.484 275.95 255.462C266.503 256.274 262.273 256.385 251.57 255.462V245.608Z" fill="#941FCB"/>
<path d="M249.132 242.865C258.817 242.086 263.148 241.527 273.512 240.631C275.006 245.827 274.974 247.523 273.512 252.719C264.196 252.595 259.835 253.642 249.132 252.719V242.865Z" fill="white"/>
<path d="M249.538 252.617V242.459L273.715 240.935C275.141 245.855 275.011 248.38 273.715 252.617C264.802 253.715 259.261 253.201 249.538 252.617Z" stroke="#941FCB" stroke-width="0.609498"/>
<path d="M253.094 245.507H268.636" stroke="#941FCB" stroke-width="0.609498"/>
<path d="M259.696 249.57H270.667" stroke="#941FCB" stroke-width="0.609498"/>
<path d="M122.946 427.956C123.067 430.456 123.187 432.933 123.308 435.432C139.879 441.509 143.307 443.818 143.107 444.739C143.057 444.964 142.663 445.652 134.09 445.059C125.597 444.461 118.684 443.284 113.874 442.275C114.458 437.117 115.063 431.959 115.647 426.802C118.087 427.194 120.527 427.585 122.946 427.956Z" fill="white" stroke="#AA3DD0" stroke-width="0.456535"/>
<path d="M123.801 431.919C123.922 434.418 123.801 434.876 123.801 434.876C140.371 440.953 143.403 440.446 143.505 443.879C143.505 446.007 141.012 446.6 132.438 446.007C123.946 445.409 113.233 444.765 112.833 442.906C112.522 439.117 113.83 437.076 114.415 431.919C116.243 433.721 121.039 432.694 123.801 431.919Z" fill="#941FCB"/>
<path d="M78.1701 428.469C77.9619 430.961 77.7555 433.432 77.5473 435.924C93.1494 444.524 96.2391 447.344 95.9208 448.224C95.8417 448.439 95.3615 449.058 86.954 447.134C78.6274 445.217 71.9398 442.974 67.3122 441.225C68.5674 436.212 69.8429 431.201 71.0981 426.187C73.4616 426.956 75.8251 427.724 78.1701 428.469Z" fill="white" stroke="#AA3DD0" stroke-width="0.456535"/>
<path d="M78.3483 432.594C78.1401 435.086 78.3483 435.333 78.3483 435.333C93.9504 443.932 96.7773 444.022 96.4271 447.436C96.1478 449.542 93.6027 449.74 85.1952 447.815C76.8687 445.898 66.3507 443.59 66.1986 441.687C66.3884 437.889 67.9624 435.781 69.2176 430.767C70.7907 432.837 75.5135 432.93 78.3483 432.594Z" fill="#941FCB"/>
<path d="M110.371 323.248C110.884 324.172 111.083 324.937 111.133 325.111C114.685 338.392 118.864 346.114 122.095 361.565C125.623 377.874 127.279 425.478 127.048 428.707C125.78 429.401 121.904 430.69 118.712 430.741C115.906 430.769 113.691 429.987 112.423 429.417C112.415 419.592 108.777 407.977 105.027 394.818C100.441 378.691 97.9545 373.092 92.7071 354.23C88.8157 340.259 84.3045 323.995 90.4788 318.737C95.2042 314.65 106.843 316.774 110.371 323.248Z" fill="white" stroke="#AA3DD0" stroke-width="0.456535"/>
<path opacity="0.19" d="M94.0339 359.261C102.535 370.105 106.744 380.132 108.943 386.904C110.951 393.065 111.969 398.552 113.291 405.662C115.163 415.757 116.106 424.309 116.625 430.401C115.269 430.124 113.932 429.824 112.576 429.547C112.385 420.974 109.678 412.87 107.951 405.662C105.725 396.369 102.872 390.167 100.434 380.864C99.0909 377.504 102.421 379.938 99.3839 372.682C97.0337 367.006 95.2208 362.342 94.0339 359.261Z" fill="#E1CEED"/>
<path d="M82.5683 325.166C77.8377 330.407 78.3366 337.343 78.2649 348.881C78.2649 348.881 80.3287 371.783 76.2569 394.818C75.2339 400.578 69.8467 414.118 65.997 424.942C66.7767 425.917 70.1113 429.177 73.6641 430.281C77.2992 431.403 80.3081 430.52 81.4282 430.122C87.077 418.219 92.3363 407.271 94.8466 400.295C106.49 368.084 105.408 352.308 104.989 343.66C104.558 334.768 103.9 324.115 97.6612 320.904C92.9666 318.49 86.3722 320.955 82.5683 325.166Z" fill="white" stroke="#AA3DD0" stroke-width="0.456535"/>
<path opacity="0.22" d="M78.4799 349.955C79.9115 360.187 82.8368 374 81.3361 390.056C79.8194 406.202 74.3404 419.463 71.0479 429.19C69.5525 428.375 66.8098 426.381 65.9971 425.052C67.2042 421.412 69.2096 416.414 71.0479 410.877C75.1875 398.408 76.6746 390.208 77.5776 381.972C78.4912 373.535 78.3487 362.783 78.4799 349.955Z" fill="#E1CEED"/>
<path d="M166.574 287.476C166.991 288.283 167.474 289.517 167.461 291.016C167.467 291.8 167.435 292.809 166.806 293.808C166.547 294.198 165.997 295.054 165.076 295.212C164.809 295.268 164.187 295.292 162.299 293.813C160.624 292.489 159.779 291.822 159.671 291.039C159.465 289.53 160.999 288.084 162.271 287.478C164.286 286.51 166.247 287.338 166.574 287.476Z" fill="white" stroke="#AA3DD0" stroke-width="0.456535"/>
<path d="M154.11 284.78C149.867 285.732 143.879 283.976 136.428 282.812C131.58 282.81 119.272 279.09 113.312 275.367C107.324 272.026 104.984 268.641 102.661 269.687C99.6427 271.03 99.5972 277.638 100.165 283.613C102.944 284.837 105.901 285.99 109.084 287.005C126.503 292.605 142.972 291.902 154.594 289.973C155.299 290.765 156.024 291.46 158.216 292.618C159.911 293.226 162.646 293.614 163.142 292.693C163.738 291.568 160.3 289.325 160.099 289.153C161.505 289.501 163.624 289.346 166.212 289.35C166.968 289.348 171.312 289.325 171.447 288.417C171.571 287.627 168.373 287.019 165.422 285.996C162.732 285.064 161.104 284.227 158.592 284.154C156.193 284.062 154.713 284.642 154.11 284.78Z" fill="#F9F9F9" stroke="#AA3DD0" stroke-width="0.456535"/>
<path d="M167.038 289.701C166.386 289.905 165.725 290.051 165.052 290.113C164.565 290.159 162.586 290.148 162.911 291.115C162.982 291.293 162.695 291.411 162.624 291.233C162.392 290.586 162.98 290.159 163.534 289.986C163.951 289.863 164.402 289.865 164.861 289.822C165.563 289.757 166.24 289.622 166.908 289.431C167.114 289.355 167.232 289.642 167.038 289.701V289.701Z" fill="#AA3DD0"/>
<path d="M166.136 291.659C165.153 291.973 163.522 292.241 162.807 291.291C162.696 291.134 162.929 290.953 163.041 291.11C163.649 291.931 165.177 291.663 166.007 291.389C166.201 291.329 166.33 291.6 166.136 291.659V291.659Z" fill="#AA3DD0"/>
<path d="M166.019 293.335C164.939 293.678 163.84 293.529 162.885 292.908C162.709 292.804 162.889 292.558 163.065 292.662C163.921 293.211 164.93 293.345 165.902 293.048C166.096 292.988 166.214 293.275 166.019 293.335Z" fill="#AA3DD0"/>
<path d="M165.466 295.195C164.108 295.436 162.816 294.518 162.644 293.134C162.613 292.935 162.925 292.887 162.956 293.085C163.102 294.299 164.23 295.097 165.417 294.883C165.616 294.852 165.665 295.164 165.466 295.195V295.195Z" fill="#AA3DD0"/>
<path opacity="0.2" d="M162.526 293.064C162.85 292.965 162.81 293.019 163.144 292.216C162.761 290.846 162.123 290.379 160.584 289.064C160.88 289.28 163.636 291.509 163.229 292.445C163.166 292.6 162.986 292.961 162.536 293.06C161.428 292.855 159.483 291.882 157.675 290.638C156.744 289.983 156.024 289.281 155.508 288.678C149.693 289.614 140.076 290.416 128.705 287.798C118.72 285.488 106.796 279.64 102.092 276.608C100.826 278.652 101.805 281.857 100.539 283.901C109.434 288.258 124.398 291.596 139.894 291.39C145.176 291.322 150.025 290.813 154.376 290.091C156.398 292.145 158.113 292.794 159.351 292.994C160.409 293.163 160.576 293.149 161.696 293.338C162.204 293.289 162.307 293.191 162.324 293.168C162.324 293.168 162.509 293.069 162.526 293.064Z" fill="#E1CEED"/>
<path d="M112.77 275.474C115.107 279.334 115.005 280.207 115.107 284.108C114.396 290.711 113.177 290.609 110.693 294.673C108.763 304.75 110.998 306.647 110.693 311.99C110.449 316.175 110.774 319.609 111.079 321.884C108.519 323.286 104.232 325.196 98.625 325.623C88.7105 326.374 81.3762 322.006 78.857 320.34C78.5522 313.961 78.2475 307.561 77.9224 301.182C79.0398 295.737 80.3604 291.47 81.3153 288.667C84.3221 279.829 87.1258 275.644 85.338 271.215C84.3425 268.756 82.3717 267.253 81.0105 266.42C81.9654 265.689 93.9166 257.311 104.847 261.15C105.985 261.536 109.591 270.221 112.77 275.474Z" fill="#FCFCFC" stroke="#941FCB" stroke-width="0.456535"/>
<path opacity="0.19" d="M103.42 268.871C100.372 273.747 98.6045 278.46 97.6293 281.467C97.6293 281.467 92.9514 288.788 96.4459 308.252C97.1976 312.396 98.5385 318.288 101.18 325.033C100.164 325.257 98.9448 325.44 97.5633 325.501C97.5633 325.501 95.4301 325.602 93.0327 325.297C90.1071 324.911 85.0889 323.347 79.1768 320.34C79.0752 313.534 78.9736 306.748 78.872 299.942C80.3755 294.193 81.8992 289.581 83.0369 286.35C85.7797 278.65 87.7098 275.034 86.1251 271.215C85.0889 268.716 82.976 267.172 81.3303 266.278C83.4839 264.856 87.466 262.641 92.9108 261.788C97.4008 261.097 101.063 268.363 103.42 268.871Z" fill="#E1CEED"/>
<path d="M82.6107 265.871C78.3646 265.303 73.3057 275.055 71.2944 282.064C68.9783 290.129 68.9629 297.09 69.7959 300.768C71.9291 307.777 75.825 313.067 77.9379 315.81C77.6128 316.886 76.8611 319.812 78.1004 323.022C79.9289 327.715 84.8507 329.841 85.2367 329.414C85.3586 329.272 85.1503 328.812 83.2202 326.598C83.6266 327.024 86.5522 329.93 89.8434 329.239C90.4123 329.117 91.3317 328.662 91.738 328.094C92.6929 326.712 91.4332 323.014 87.5273 320.422C89.503 321.592 90.9251 322.1 92.0425 321.186C92.3473 320.069 89.0714 316.947 87.7102 315.932C85.6989 314.448 84.241 314.299 83.0016 313.669C79.5275 306.456 79.3601 299.963 79.6648 297.322C80.1118 293.421 81.5746 289.175 81.859 288.362C82.6717 286.026 83.0577 285.497 84.683 281.292C87.3039 274.547 87.3039 273.389 87.2023 272.495C86.8366 269.813 85.0284 266.197 82.6107 265.871Z" fill="white" stroke="#AA3DD0" stroke-width="0.456535"/>
<path d="M91.4483 327.837C89.1932 326.557 87.2225 324.911 85.5769 322.92C85.3331 322.616 85.7597 322.189 86.0035 322.494C87.6085 324.444 89.5386 326.069 91.7531 327.329C92.0985 327.492 91.7937 328.02 91.4483 327.837V327.837Z" fill="#AA3DD0"/>
<path d="M89.4574 329.198C87.2226 328.04 85.3128 326.435 83.7687 324.444C83.5249 324.139 84.0532 323.835 84.297 324.139C85.7598 326.049 87.6289 327.573 89.7621 328.67C90.1075 328.853 89.8028 329.381 89.4574 329.198V329.198Z" fill="#AA3DD0"/>
<path opacity="0.17" d="M84.5001 267.475C88.5431 270.989 72.046 286.41 74.87 303.923C76.8001 315.93 84.8048 323.772 84.8048 323.772C87.0396 326.007 91.2452 328.75 90.7373 329.704C90.3716 330.395 87.832 329.765 86.9177 329.481C85.1908 328.953 83.9921 328.059 83.3217 327.47C84.3375 328.607 85.4956 330.009 85.2518 330.294C84.9064 330.659 82.0214 329.156 80.2133 327.043C77.0845 323.386 77.5315 318.307 77.8362 316.235C77.1048 315.28 76.1499 313.939 75.1747 312.232C74.2808 310.708 70.7913 306.231 69.6739 299.77C67.7032 288.332 72.6555 279.035 74.2808 275.5C75.7436 272.351 78.2222 267.129 81.9808 266.906C82.4684 266.845 83.7077 266.784 84.5001 267.475Z" fill="#E1CEED"/>
<path d="M108.52 255.007C108.543 256.618 106.901 257.135 106.04 259.879C105.427 261.861 107.443 266.026 107.341 267.855C107.24 269.683 101.62 269.272 98.7632 268.504C96.5155 267.898 95.4341 263.197 94.4394 262.462C94.766 261.468 95.2489 260.009 95.8261 258.275C98.3335 250.889 98.7965 250.228 99.5535 249.844C102.583 248.327 108.477 252.009 108.52 255.007Z" fill="white" stroke="#941FCB" stroke-width="0.456535"/>
<path d="M118.012 232.932C118.799 233.831 119.855 234.92 120.443 240.027C120.883 243.862 118.241 242.446 119.894 251.214C118.625 251.141 118.446 251.384 117.482 250.952C117.18 251.984 116.81 253.194 115.773 254.628C113.717 257.474 111.775 257.009 109.584 256.565C107.916 256.226 104.796 254.198 100.173 249.466C98.3241 247.573 99.6454 251.53 99.4763 251.077C98.4143 248.103 98.6275 246.603 98.9033 245.512C98.3954 245.34 96.7999 244.871 96.155 244.161C94.7961 242.667 95.2336 238.831 96.609 237.709C97.6254 236.869 99.6428 236.776 101.252 238.122C101.498 237.341 101.864 236.576 102.562 235.421C102.737 235.138 104.049 233.001 105.802 231.779C109.167 229.349 115.188 229.71 118.012 232.932Z" fill="white" stroke="#941FCB" stroke-width="0.456535"/>
<path opacity="0.24" d="M107.005 244.208C104.881 247.388 104.432 250.56 104.432 250.56C104.002 254.117 107.287 255.086 107.915 256.226C105.967 257.141 102.396 258.163 101.114 256.62C100.529 259.662 103.762 266.133 103.176 269.175C102.503 269.183 99.1644 268.83 97.6902 268.001C96.5624 267.362 94.797 262.315 94.3972 261.805C95.8781 260.12 98.6653 256.443 99.5571 251.021C99.9821 248.403 100.072 246.699 99.8164 245.01C97.8611 244.864 96.2173 244.768 96.6051 242.583C96.3896 241.482 99.221 238.433 100.677 238.488C101.888 238.547 102.346 239.623 102.473 241.06C103.383 240.966 104.867 240.303 106.971 238.718C109.151 237.084 110.063 235.03 110.402 234.157C110.701 238.048 109.739 240.414 108.805 241.858C108.192 242.84 107.872 242.914 107.005 244.208Z" fill="#E1CEED"/>
<path d="M114.579 242.787C114.8 243.601 114.776 244.434 114.469 245.225C114.366 245.509 113.98 245.528 113.88 245.223C113.639 244.491 113.641 243.719 113.867 242.988C113.99 242.623 114.579 242.767 114.456 243.153C114.25 243.802 114.269 244.432 114.469 245.083C114.266 245.082 114.083 245.081 113.88 245.081C114.147 244.391 114.19 243.68 113.989 242.968C113.889 242.561 114.458 242.401 114.579 242.787V242.787Z" fill="#941FCB"/>
<path d="M115.047 241.427C114.488 241.158 113.847 241.285 113.446 241.755C113.19 242.047 112.722 241.667 112.978 241.375C113.542 240.704 114.5 240.483 115.296 240.871C115.64 241.039 115.391 241.596 115.047 241.427V241.427Z" fill="#941FCB"/>
<path d="M118.491 242.861C118.7 243.683 118.644 244.514 118.326 245.294C118.213 245.574 117.827 245.557 117.738 245.269C117.525 244.528 117.538 243.756 117.772 243.033C117.89 242.652 118.472 242.84 118.354 243.221C118.143 243.863 118.137 244.493 118.333 245.132C118.13 245.123 117.948 245.115 117.745 245.106C118.018 244.427 118.088 243.718 117.895 242.998C117.81 242.608 118.406 242.471 118.491 242.861V242.861Z" fill="#941FCB"/>
<path d="M119.236 241.858C118.895 241.517 118.303 241.437 117.91 241.74C117.605 241.964 117.193 241.515 117.497 241.291C118.182 240.803 119.083 240.851 119.684 241.445C119.959 241.722 119.511 242.135 119.236 241.858V241.858Z" fill="#941FCB"/>
<path d="M116.55 253.057C114.965 252.934 113.526 252.245 112.388 251.116C112.184 250.913 112.474 250.556 112.678 250.76C113.749 251.834 115.101 252.471 116.626 252.6C116.915 252.632 116.84 253.089 116.55 253.057V253.057Z" fill="#941FCB"/>
<path d="M69.654 280.414L84.3835 286.509C89.0002 276.678 91.8959 268.799 84.3835 265.684C76.869 262.568 72.8875 267.82 69.654 280.414Z" fill="white" stroke="#AA3DD0" stroke-width="0.456535"/>
<path d="M120.181 239.523C120.975 239.298 122.12 238.465 122.7 237.16C122.979 232.924 121.9 232.218 121.374 231.475C120.942 230.846 120.343 228.354 115.923 225.889C112.564 224.009 110.119 225.057 108.401 225.234C104.866 222.636 97.3881 226.184 96.4177 226.876C94.3822 228.331 92.9401 229.848 91.957 231.012C90.4461 232.801 87.839 234.805 86.4779 239.439C78.9752 248.892 82.4409 251.21 82.0662 255.109C81.6424 259.523 76.7538 265.602 79.607 267.923C82.4602 270.243 93.5096 268.657 96.2726 267.126C100.118 264.994 97.5223 259.624 98.5669 256.678C100.335 251.635 100.448 247.968 99.9175 244.999C97.8362 244.621 96.3193 244.369 96.6364 242.886C96.8836 241.717 98.6246 238.393 100.99 238.558C102.093 238.75 102.515 240.872 102.588 242.171C103.556 242.051 105.526 240.807 107.8 238.694C109.46 237.154 110.203 235.444 110.536 234.511C110.67 235.817 113.287 237.182 115.697 238.568C117.709 239.667 119.56 238.647 120.181 239.523Z" fill="#941FCB"/>
<path d="M130.742 541.738H128.652V532.812H126.699V540.84H124.668V524.414H126.699V531.035H128.652V524.082H130.742V541.738ZM116.348 526.113H118.535V535.43C120.26 535.397 121.94 535.221 123.574 534.902L123.789 536.797C121.719 537.161 119.629 537.344 117.52 537.344H116.348V526.113ZM153.711 535.684H146.699V541.719H144.551V535.684H137.617V533.926H153.711V535.684ZM138.457 531.035C139.583 530.892 140.586 530.609 141.465 530.186C142.35 529.762 143.047 529.255 143.555 528.662C144.069 528.063 144.352 527.441 144.404 526.797H139.102V525.078H152.227V526.797H146.924C146.976 527.441 147.253 528.063 147.754 528.662C148.262 529.255 148.958 529.762 149.844 530.186C150.729 530.609 151.738 530.892 152.871 531.035L152.09 532.734C150.592 532.52 149.281 532.087 148.154 531.436C147.035 530.785 146.204 529.98 145.664 529.023C145.117 529.98 144.287 530.785 143.174 531.436C142.061 532.087 140.762 532.52 139.277 532.734L138.457 531.035ZM169.688 537.129H167.52V532.695H163.965V534.258H155.703V525.254H157.871V528.105H161.816V525.254H163.965V527.148H167.52V524.102H169.688V537.129ZM161.816 532.539V529.785H157.871V532.539H161.816ZM158.047 535.84H160.254V539.629H170.078V541.387H158.047V535.84ZM167.52 530.938V528.906H163.965V530.938H167.52ZM178.75 542.129H176.562L181.133 525.195H183.301L178.75 542.129ZM204.004 541.738H201.914V532.812H199.961V540.84H197.93V524.414H199.961V531.035H201.914V524.082H204.004V541.738ZM189.609 526.113H191.797V535.43C193.522 535.397 195.202 535.221 196.836 534.902L197.051 536.797C194.98 537.161 192.891 537.344 190.781 537.344H189.609V526.113ZM215.879 524.648C216.764 524.648 217.562 524.821 218.271 525.166C218.981 525.505 219.538 525.977 219.941 526.582C220.352 527.188 220.56 527.871 220.566 528.633C220.56 529.401 220.352 530.088 219.941 530.693C219.538 531.292 218.981 531.764 218.271 532.109C217.562 532.448 216.764 532.617 215.879 532.617C214.987 532.617 214.183 532.448 213.467 532.109C212.757 531.764 212.201 531.292 211.797 530.693C211.393 530.088 211.191 529.401 211.191 528.633C211.191 527.871 211.393 527.188 211.797 526.582C212.201 525.977 212.757 525.505 213.467 525.166C214.183 524.821 214.987 524.648 215.879 524.648ZM213.301 528.633C213.301 529.082 213.411 529.476 213.633 529.814C213.854 530.146 214.16 530.404 214.551 530.586C214.941 530.768 215.384 530.859 215.879 530.859C216.374 530.859 216.813 530.768 217.197 530.586C217.588 530.404 217.894 530.146 218.115 529.814C218.343 529.476 218.457 529.082 218.457 528.633C218.457 528.197 218.343 527.812 218.115 527.48C217.894 527.148 217.588 526.895 217.197 526.719C216.813 526.536 216.374 526.445 215.879 526.445C215.384 526.445 214.941 526.536 214.551 526.719C214.16 526.895 213.854 527.148 213.633 527.48C213.411 527.812 213.301 528.197 213.301 528.633ZM213.867 533.77H225.586V538.379H216.035V539.805H226.113V541.523H213.906V536.777H223.418V535.469H213.867V533.77ZM223.398 524.082H225.586V533.008H223.398V524.082ZM242.949 534.57H240.781V530.254H237.773V528.477H240.781V524.082H242.949V534.57ZM228.105 532.812C229.023 532.5 229.808 532.048 230.459 531.455C231.117 530.863 231.611 530.192 231.943 529.443C232.275 528.695 232.441 527.923 232.441 527.129V526.992H228.77V525.234H238.301V526.992H234.648V527.109C234.648 527.839 234.808 528.548 235.127 529.238C235.446 529.922 235.918 530.537 236.543 531.084C237.168 531.624 237.923 532.044 238.809 532.344L237.715 534.062C236.758 533.737 235.931 533.258 235.234 532.627C234.538 531.989 233.988 531.243 233.584 530.391C233.187 531.354 232.62 532.194 231.885 532.91C231.149 533.626 230.267 534.167 229.238 534.531L228.105 532.812ZM230.977 538.379C230.97 537.682 231.208 537.083 231.689 536.582C232.171 536.074 232.861 535.687 233.76 535.42C234.665 535.153 235.736 535.02 236.973 535.02C238.216 535.02 239.29 535.153 240.195 535.42C241.1 535.687 241.794 536.071 242.275 536.572C242.764 537.074 243.008 537.676 243.008 538.379C243.008 539.082 242.764 539.684 242.275 540.186C241.794 540.687 241.1 541.071 240.195 541.338C239.29 541.605 238.216 541.738 236.973 541.738C235.736 541.738 234.665 541.605 233.76 541.338C232.861 541.071 232.171 540.684 231.689 540.176C231.208 539.674 230.97 539.076 230.977 538.379ZM233.125 538.379C233.118 538.919 233.444 539.336 234.102 539.629C234.766 539.915 235.703 540.059 236.914 540.059C238.177 540.059 239.147 539.915 239.824 539.629C240.501 539.342 240.84 538.926 240.84 538.379C240.84 537.832 240.505 537.412 239.834 537.119C239.17 536.826 238.216 536.68 236.973 536.68C235.742 536.68 234.792 536.826 234.121 537.119C233.451 537.412 233.118 537.832 233.125 538.379Z" fill="black"/>
<path d="M64.9297 576.266H63.6953V568.5H61.2266V567.422H63.6953V562.375H64.9297V576.266ZM53.0078 572.219C53.5339 571.828 53.9583 571.328 54.2812 570.719C54.6094 570.104 54.8411 569.461 54.9766 568.789C55.1172 568.112 55.1901 567.448 55.1953 566.797V563.625H56.3516V566.797C56.3411 567.646 56.4401 568.505 56.6484 569.375C56.8568 570.245 57.2188 570.995 57.7344 571.625C58.2344 571.016 58.5833 570.284 58.7812 569.43C58.9792 568.57 59.0807 567.693 59.0859 566.797V563.625H60.2734V566.797C60.263 567.865 60.4271 568.896 60.7656 569.891C61.1042 570.885 61.6693 571.661 62.4609 572.219L61.6797 573.109C61.1797 572.755 60.7656 572.292 60.4375 571.719C60.1146 571.141 59.8646 570.495 59.6875 569.781C59.3177 571.391 58.6641 572.536 57.7266 573.219C56.7891 572.542 56.1328 571.396 55.7578 569.781C55.5807 570.484 55.3333 571.12 55.0156 571.688C54.7031 572.255 54.3099 572.719 53.8359 573.078L53.0078 572.219ZM79.7578 574.547H67.0391V573.5H72.7422V570.297H68.1953V569.312H70.3672V564.75H68.1641V563.734H78.5391V564.75H76.3359V569.312H78.5078V570.297H73.9453V573.5H79.7578V574.547ZM75.1328 569.312V564.75H71.5859V569.312H75.1328ZM93.5859 574.484H80.8672V573.453H93.5859V574.484ZM81.6484 570.125C82.5391 569.964 83.3594 569.672 84.1094 569.25C84.8594 568.828 85.4583 568.305 85.9062 567.68C86.3594 567.049 86.5859 566.365 86.5859 565.625H82.0547V564.625H86.6016V562.719H87.8047V564.625H92.3672V565.625H87.8359C87.8359 566.37 88.0573 567.055 88.5 567.68C88.9479 568.305 89.5469 568.828 90.2969 569.25C91.0521 569.672 91.8776 569.964 92.7734 570.125L92.2734 571.125C91.1328 570.891 90.1068 570.474 89.1953 569.875C88.2891 569.276 87.625 568.539 87.2031 567.664C86.7865 568.539 86.1224 569.276 85.2109 569.875C84.3047 570.474 83.2786 570.891 82.1328 571.125L81.6484 570.125ZM105.93 567.578H96.4141V562.891H97.6328V566.594H105.93V567.578ZM94.6797 569.469H107.398V570.469H94.6797V569.469ZM96.3359 571.891H97.5547V574.906H106.008V575.922H96.3359V571.891ZM124.398 576.266H123.195V569.078H121.195V575.547H120.039V562.688H121.195V568.031H123.195V562.375H124.398V576.266ZM113.242 564.078H114.461V571.578C116.055 571.568 117.57 571.417 119.008 571.125L119.164 572.219C118.247 572.385 117.38 572.503 116.562 572.57C115.75 572.638 114.93 572.672 114.102 572.672H113.242V564.078ZM137.398 564.344C137.398 564.938 137.63 565.505 138.094 566.047C138.562 566.583 139.174 567.036 139.93 567.406C140.685 567.776 141.471 568.021 142.289 568.141L141.836 569.109C141.102 568.984 140.396 568.776 139.719 568.484C139.042 568.188 138.438 567.82 137.906 567.383C137.38 566.945 136.982 566.456 136.711 565.914C136.44 566.456 136.042 566.945 135.516 567.383C134.99 567.82 134.388 568.188 133.711 568.484C133.039 568.776 132.341 568.984 131.617 569.109L131.133 568.141C131.951 568.021 132.734 567.776 133.484 567.406C134.234 567.036 134.844 566.583 135.312 566.047C135.786 565.505 136.023 564.938 136.023 564.344V564.25H131.57V563.25H141.836V564.25H137.398V564.344ZM130.383 570.297H143.039V571.312H137.289V576.266H136.086V571.312H130.383V570.297ZM155.727 572.672H154.492V568.938H151.211V570.297H144.914V563.312H146.133V565.781H150.008V563.312H151.211V564.938H154.492V562.391H155.727V572.672ZM150.008 569.281V566.75H146.133V569.281H150.008ZM146.742 571.656H147.977V574.938H156.039V575.969H146.742V571.656ZM154.492 567.922V565.969H151.211V567.922H154.492ZM162.945 576.703H161.727L165.367 563.156H166.602L162.945 576.703ZM183.273 576.266H182.07V569.078H180.07V575.547H178.914V562.688H180.07V568.031H182.07V562.375H183.273V576.266ZM172.117 564.078H173.336V571.578C174.93 571.568 176.445 571.417 177.883 571.125L178.039 572.219C177.122 572.385 176.255 572.503 175.438 572.57C174.625 572.638 173.805 572.672 172.977 572.672H172.117V564.078ZM193.195 562.891C193.883 562.891 194.497 563.023 195.039 563.289C195.586 563.549 196.013 563.914 196.32 564.383C196.633 564.846 196.789 565.375 196.789 565.969C196.789 566.562 196.633 567.094 196.32 567.562C196.013 568.026 195.586 568.388 195.039 568.648C194.497 568.904 193.883 569.031 193.195 569.031C192.503 569.031 191.88 568.904 191.328 568.648C190.781 568.388 190.354 568.026 190.047 567.562C189.74 567.094 189.586 566.562 189.586 565.969C189.586 565.375 189.74 564.846 190.047 564.383C190.354 563.914 190.781 563.549 191.328 563.289C191.88 563.023 192.503 562.891 193.195 562.891ZM190.789 565.969C190.784 566.37 190.883 566.727 191.086 567.039C191.294 567.352 191.581 567.596 191.945 567.773C192.315 567.945 192.732 568.031 193.195 568.031C193.648 568.031 194.057 567.945 194.422 567.773C194.792 567.596 195.081 567.352 195.289 567.039C195.497 566.727 195.602 566.37 195.602 565.969C195.602 565.573 195.497 565.219 195.289 564.906C195.081 564.594 194.792 564.352 194.422 564.18C194.057 564.008 193.648 563.922 193.195 563.922C192.732 563.922 192.315 564.008 191.945 564.18C191.581 564.352 191.294 564.594 191.086 564.906C190.883 565.219 190.784 565.573 190.789 565.969ZM191.695 570.188H200.727V573.531H192.93V575.094H201.227V576.078H191.727V572.609H199.508V571.172H191.695V570.188ZM199.508 562.375H200.727V569.516H199.508V562.375ZM214.602 570.656H213.367V567.016H210.57V566H213.367V562.375H214.602V570.656ZM203.148 569.547C203.831 569.302 204.438 568.943 204.969 568.469C205.505 567.995 205.924 567.451 206.227 566.836C206.529 566.221 206.68 565.589 206.68 564.938V564.422H203.539V563.391H211.023V564.422H207.914V564.922C207.914 565.521 208.057 566.102 208.344 566.664C208.63 567.227 209.034 567.727 209.555 568.164C210.076 568.596 210.669 568.927 211.336 569.156L210.695 570.141C209.924 569.859 209.245 569.443 208.656 568.891C208.073 568.339 207.63 567.701 207.328 566.977C207.031 567.789 206.573 568.505 205.953 569.125C205.339 569.745 204.617 570.214 203.789 570.531L203.148 569.547ZM205.336 573.672C205.336 573.13 205.521 572.667 205.891 572.281C206.266 571.896 206.802 571.602 207.5 571.398C208.203 571.195 209.034 571.094 209.992 571.094C210.951 571.094 211.779 571.195 212.477 571.398C213.174 571.602 213.711 571.896 214.086 572.281C214.461 572.667 214.648 573.13 214.648 573.672C214.648 574.214 214.461 574.677 214.086 575.062C213.711 575.448 213.174 575.742 212.477 575.945C211.779 576.154 210.951 576.26 209.992 576.266C209.029 576.26 208.198 576.154 207.5 575.945C206.802 575.742 206.266 575.448 205.891 575.062C205.521 574.677 205.336 574.214 205.336 573.672ZM206.555 573.672C206.555 574 206.69 574.286 206.961 574.531C207.232 574.771 207.622 574.956 208.133 575.086C208.648 575.216 209.255 575.281 209.953 575.281C210.667 575.281 211.284 575.216 211.805 575.086C212.326 574.961 212.727 574.779 213.008 574.539C213.289 574.294 213.43 574.005 213.43 573.672C213.43 573.339 213.292 573.049 213.016 572.805C212.74 572.56 212.341 572.372 211.82 572.242C211.305 572.112 210.695 572.047 209.992 572.047C209.284 572.047 208.672 572.112 208.156 572.242C207.641 572.372 207.245 572.56 206.969 572.805C206.693 573.049 206.555 573.339 206.555 573.672ZM228.82 576.266H227.633V562.375H228.82V576.266ZM217.086 568.375C217.086 567.401 217.208 566.552 217.453 565.828C217.703 565.099 218.052 564.536 218.5 564.141C218.948 563.745 219.471 563.547 220.07 563.547C220.628 563.547 221.122 563.721 221.555 564.07C221.987 564.414 222.331 564.906 222.586 565.547C222.846 566.182 223.003 566.932 223.055 567.797H224.852V562.672H226.023V575.562H224.852V568.812H223.062C223.026 569.703 222.878 570.482 222.617 571.148C222.362 571.81 222.016 572.318 221.578 572.672C221.141 573.026 220.638 573.203 220.07 573.203C219.471 573.203 218.948 573.008 218.5 572.617C218.052 572.221 217.703 571.659 217.453 570.93C217.208 570.201 217.086 569.349 217.086 568.375ZM218.242 568.375C218.237 569.12 218.307 569.768 218.453 570.32C218.604 570.872 218.818 571.297 219.094 571.594C219.375 571.891 219.701 572.036 220.07 572.031C220.44 572.036 220.763 571.893 221.039 571.602C221.32 571.305 221.536 570.883 221.688 570.336C221.839 569.789 221.914 569.148 221.914 568.414C221.914 567.659 221.839 567.003 221.688 566.445C221.542 565.888 221.328 565.458 221.047 565.156C220.771 564.854 220.445 564.703 220.07 564.703C219.695 564.703 219.37 564.854 219.094 565.156C218.818 565.453 218.604 565.878 218.453 566.43C218.307 566.982 218.237 567.63 218.242 568.375ZM241.773 569.266H235.352V563.328H241.773V569.266ZM236.164 575.266C236.935 575.146 237.654 574.932 238.32 574.625C238.987 574.318 239.529 573.948 239.945 573.516C240.362 573.078 240.594 572.615 240.641 572.125H236.711V571.125H245.867V572.125H241.922C241.964 572.604 242.195 573.062 242.617 573.5C243.039 573.938 243.586 574.312 244.258 574.625C244.93 574.932 245.643 575.146 246.398 575.266L245.945 576.219C244.909 576.047 243.969 575.719 243.125 575.234C242.286 574.75 241.669 574.167 241.273 573.484C240.893 574.167 240.284 574.747 239.445 575.227C238.607 575.711 237.669 576.036 236.633 576.203L236.164 575.266ZM240.586 568.266V564.328H236.555V568.266H240.586ZM244.398 562.375H245.617V565.719H247.711V566.75H245.617V570.312H244.398V562.375ZM260.477 576.266H259.305V562.375H260.477V576.266ZM248.602 572.375C250.081 571.5 251.214 570.453 252 569.234C252.792 568.01 253.247 566.656 253.367 565.172H249.195V564.156H254.586C254.586 565.568 254.354 566.875 253.891 568.078H256.383V562.75H257.555V575.562H256.383V569.078H253.438C252.562 570.766 251.19 572.161 249.32 573.266L248.602 572.375ZM277.18 567.875H279.508V568.906H277.18V576.297H275.961V562.375H277.18V567.875ZM267.039 563.734H273.523V564.75H268.258V571.781C269.57 571.776 270.708 571.737 271.672 571.664C272.635 571.591 273.617 571.464 274.617 571.281L274.773 572.344C273.742 572.531 272.732 572.656 271.742 572.719C270.758 572.781 269.555 572.812 268.133 572.812H267.039V563.734ZM293.18 565.5H291.117V567.438H293.18V568.469H291.117V570.625H289.898V562.375H291.117V564.484H293.18V565.5ZM280.523 566.484C280.523 565.849 280.68 565.284 280.992 564.789C281.305 564.289 281.737 563.904 282.289 563.633C282.846 563.357 283.471 563.219 284.164 563.219C284.862 563.219 285.487 563.357 286.039 563.633C286.596 563.904 287.031 564.289 287.344 564.789C287.656 565.284 287.815 565.849 287.82 566.484C287.815 567.12 287.656 567.685 287.344 568.18C287.031 568.674 286.596 569.06 286.039 569.336C285.487 569.612 284.862 569.75 284.164 569.75C283.471 569.75 282.846 569.612 282.289 569.336C281.737 569.055 281.305 568.667 280.992 568.172C280.68 567.677 280.523 567.115 280.523 566.484ZM281.727 566.484C281.727 566.917 281.831 567.302 282.039 567.641C282.247 567.974 282.536 568.237 282.906 568.43C283.281 568.617 283.701 568.714 284.164 568.719C284.633 568.714 285.052 568.617 285.422 568.43C285.797 568.237 286.089 567.974 286.297 567.641C286.51 567.302 286.617 566.917 286.617 566.484C286.617 566.057 286.51 565.674 286.297 565.336C286.089 564.992 285.797 564.727 285.422 564.539C285.052 564.352 284.633 564.26 284.164 564.266C283.701 564.26 283.281 564.352 282.906 564.539C282.536 564.727 282.247 564.992 282.039 565.336C281.831 565.674 281.727 566.057 281.727 566.484ZM282.055 573.656C282.055 573.115 282.24 572.648 282.609 572.258C282.984 571.867 283.518 571.568 284.211 571.359C284.904 571.151 285.721 571.047 286.664 571.047C287.607 571.047 288.422 571.151 289.109 571.359C289.797 571.568 290.323 571.867 290.688 572.258C291.057 572.648 291.242 573.115 291.242 573.656C291.242 574.193 291.057 574.654 290.688 575.039C290.323 575.424 289.797 575.719 289.109 575.922C288.422 576.13 287.607 576.234 286.664 576.234C285.721 576.234 284.904 576.13 284.211 575.922C283.523 575.719 282.992 575.424 282.617 575.039C282.242 574.654 282.055 574.193 282.055 573.656ZM283.289 573.656C283.284 573.984 283.417 574.268 283.688 574.508C283.958 574.747 284.346 574.93 284.852 575.055C285.362 575.185 285.966 575.25 286.664 575.25C287.362 575.25 287.964 575.185 288.469 575.055C288.979 574.93 289.37 574.747 289.641 574.508C289.917 574.268 290.055 573.984 290.055 573.656C290.055 573.323 289.917 573.036 289.641 572.797C289.37 572.552 288.979 572.367 288.469 572.242C287.964 572.112 287.362 572.047 286.664 572.047C285.971 572.047 285.37 572.112 284.859 572.242C284.349 572.367 283.958 572.552 283.688 572.797C283.417 573.036 283.284 573.323 283.289 573.656ZM304.945 566.969H307.039V568H304.945V572.797H303.727V562.391H304.945V566.969ZM294.117 564.094H297.648V562.391H298.867V564.094H302.398V565.094H294.117V564.094ZM294.914 568.453C294.914 567.932 295.052 567.477 295.328 567.086C295.604 566.695 295.995 566.393 296.5 566.18C297.005 565.966 297.591 565.859 298.258 565.859C298.914 565.859 299.492 565.966 299.992 566.18C300.497 566.393 300.891 566.695 301.172 567.086C301.453 567.477 301.596 567.932 301.602 568.453C301.596 568.969 301.453 569.422 301.172 569.812C300.891 570.198 300.497 570.495 299.992 570.703C299.492 570.911 298.914 571.016 298.258 571.016C297.591 571.016 297.005 570.911 296.5 570.703C295.995 570.495 295.604 570.198 295.328 569.812C295.052 569.422 294.914 568.969 294.914 568.453ZM296.086 568.453C296.086 568.776 296.174 569.06 296.352 569.305C296.529 569.544 296.781 569.729 297.109 569.859C297.443 569.99 297.826 570.052 298.258 570.047C298.685 570.052 299.062 569.99 299.391 569.859C299.724 569.729 299.982 569.544 300.164 569.305C300.346 569.06 300.44 568.776 300.445 568.453C300.44 568.13 300.346 567.846 300.164 567.602C299.982 567.352 299.727 567.161 299.398 567.031C299.076 566.896 298.703 566.828 298.281 566.828C297.844 566.828 297.458 566.896 297.125 567.031C296.792 567.161 296.534 567.349 296.352 567.594C296.174 567.839 296.086 568.125 296.086 568.453ZM296.258 571.969H297.461V574.938H305.586V575.969H296.258V571.969ZM63.6562 589.453H58.0156V592.297H56.7812V589.453H50.9375V588.438H63.6562V589.453ZM52.375 584.531C52.375 583.964 52.5755 583.469 52.9766 583.047C53.3776 582.625 53.9479 582.302 54.6875 582.078C55.4323 581.849 56.2969 581.734 57.2812 581.734C58.2656 581.734 59.125 581.849 59.8594 582.078C60.599 582.302 61.1693 582.625 61.5703 583.047C61.9714 583.469 62.1719 583.964 62.1719 584.531C62.1719 585.094 61.9714 585.586 61.5703 586.008C61.1693 586.424 60.599 586.745 59.8594 586.969C59.125 587.188 58.2656 587.297 57.2812 587.297C56.2969 587.297 55.4349 587.188 54.6953 586.969C53.9557 586.745 53.3828 586.424 52.9766 586.008C52.5755 585.586 52.375 585.094 52.375 584.531ZM52.5781 590.906H53.8125V593.922H62.2344V594.969H52.5781V590.906ZM53.6875 584.531C53.6823 584.885 53.8281 585.195 54.125 585.461C54.4219 585.727 54.8411 585.932 55.3828 586.078C55.9297 586.224 56.5625 586.297 57.2812 586.297C57.9948 586.297 58.6224 586.227 59.1641 586.086C59.7057 585.94 60.125 585.734 60.4219 585.469C60.724 585.198 60.875 584.885 60.875 584.531C60.875 584.167 60.7266 583.849 60.4297 583.578C60.1328 583.307 59.7135 583.099 59.1719 582.953C58.6302 582.807 58 582.734 57.2812 582.734C56.5625 582.734 55.9297 582.807 55.3828 582.953C54.8411 583.099 54.4219 583.307 54.125 583.578C53.8281 583.849 53.6823 584.167 53.6875 584.531ZM77.4531 589.234H64.7812V588.25H70.5156V586.625H66.3906V582.031H75.875V583.016H67.5938V585.625H75.9688V586.625H71.7031V588.25H77.4531V589.234ZM66.3125 592.75C66.3125 592.224 66.5026 591.776 66.8828 591.406C67.263 591.031 67.8125 590.745 68.5312 590.547C69.25 590.349 70.1094 590.25 71.1094 590.25C72.099 590.25 72.9505 590.349 73.6641 590.547C74.3776 590.745 74.9245 591.031 75.3047 591.406C75.6901 591.776 75.8854 592.224 75.8906 592.75C75.8854 593.281 75.6927 593.732 75.3125 594.102C74.9323 594.477 74.3828 594.763 73.6641 594.961C72.9505 595.159 72.099 595.26 71.1094 595.266C70.1094 595.26 69.25 595.159 68.5312 594.961C67.8125 594.763 67.263 594.477 66.8828 594.102C66.5026 593.727 66.3125 593.276 66.3125 592.75ZM67.5625 592.75C67.5573 593.068 67.6927 593.344 67.9688 593.578C68.25 593.807 68.6536 593.982 69.1797 594.102C69.7057 594.221 70.3333 594.281 71.0625 594.281C72.1875 594.281 73.0651 594.148 73.6953 593.883C74.3307 593.617 74.651 593.24 74.6562 592.75C74.6562 592.432 74.513 592.159 74.2266 591.93C73.9401 591.701 73.5312 591.526 73 591.406C72.4688 591.281 71.8385 591.219 71.1094 591.219C70.3698 591.219 69.7318 591.281 69.1953 591.406C68.6641 591.526 68.2578 591.701 67.9766 591.93C67.6953 592.159 67.5573 592.432 67.5625 592.75ZM89.5469 588.297H95.2812V589.312H82.625V588.297H88.3438V586.312H89.5469V588.297ZM83.3281 586.031C84.1458 585.943 84.9193 585.758 85.6484 585.477C86.3776 585.195 86.9714 584.844 87.4297 584.422C87.888 583.995 88.1302 583.531 88.1562 583.031H83.7812V582.031H94.1562V583.031H89.75C89.776 583.526 90.0182 583.987 90.4766 584.414C90.9349 584.841 91.5286 585.195 92.2578 585.477C92.987 585.758 93.7604 585.943 94.5781 586.031L94.125 587C93.3542 586.906 92.6198 586.734 91.9219 586.484C91.2292 586.234 90.6224 585.914 90.1016 585.523C89.5859 585.133 89.2031 584.688 88.9531 584.188C88.7031 584.688 88.3177 585.133 87.7969 585.523C87.2812 585.914 86.6771 586.234 85.9844 586.484C85.2917 586.734 84.5573 586.906 83.7812 587L83.3281 586.031ZM84.1562 592.844C84.1562 592.333 84.3438 591.901 84.7188 591.547C85.099 591.188 85.6484 590.917 86.3672 590.734C87.0859 590.547 87.9479 590.453 88.9531 590.453C89.9479 590.453 90.8021 590.547 91.5156 590.734C92.2292 590.917 92.776 591.188 93.1562 591.547C93.5365 591.901 93.7292 592.333 93.7344 592.844C93.7292 593.354 93.5365 593.786 93.1562 594.141C92.776 594.5 92.2292 594.771 91.5156 594.953C90.8021 595.141 89.9479 595.234 88.9531 595.234C87.9479 595.234 87.0859 595.141 86.3672 594.953C85.6484 594.771 85.099 594.5 84.7188 594.141C84.3438 593.786 84.1562 593.354 84.1562 592.844ZM85.4062 592.844C85.401 593.146 85.5365 593.404 85.8125 593.617C86.0885 593.831 86.4896 593.995 87.0156 594.109C87.5417 594.224 88.1719 594.281 88.9062 594.281C90.0365 594.281 90.9167 594.156 91.5469 593.906C92.1771 593.656 92.4948 593.302 92.5 592.844C92.4948 592.396 92.1849 592.047 91.5703 591.797C90.9557 591.547 90.099 591.422 89 591.422C87.8594 591.422 86.974 591.547 86.3438 591.797C85.7135 592.042 85.401 592.391 85.4062 592.844ZM107.5 586.656H103.391V588.438H109.109V589.438H96.4531V588.438H102.172V586.656H98.0938V581.969H107.5V586.656ZM97.8594 590.891H107.547V595.266H106.312V591.875H97.8594V590.891ZM106.281 585.672V582.953H99.2969V585.672H106.281ZM116.609 581.625C117.635 581.625 118.516 581.719 119.25 581.906C119.984 582.089 120.544 582.359 120.93 582.719C121.32 583.073 121.516 583.505 121.516 584.016C121.516 584.536 121.32 584.979 120.93 585.344C120.544 585.708 119.984 585.984 119.25 586.172C118.521 586.354 117.641 586.448 116.609 586.453C115.573 586.448 114.688 586.354 113.953 586.172C113.219 585.984 112.656 585.708 112.266 585.344C111.88 584.979 111.688 584.536 111.688 584.016C111.688 583.505 111.88 583.073 112.266 582.719C112.656 582.359 113.219 582.089 113.953 581.906C114.693 581.719 115.578 581.625 116.609 581.625ZM110.281 587.391H122.938V588.391H110.281V587.391ZM111.812 589.594H121.312V592.703H113.062V594.141H121.734V595.109H111.844V591.797H120.109V590.531H111.812V589.594ZM112.969 584.016C112.964 584.495 113.279 584.865 113.914 585.125C114.549 585.385 115.448 585.516 116.609 585.516C117.766 585.516 118.661 585.388 119.297 585.133C119.938 584.872 120.26 584.5 120.266 584.016C120.266 583.714 120.12 583.453 119.828 583.234C119.542 583.016 119.122 582.846 118.57 582.727C118.023 582.607 117.37 582.547 116.609 582.547C115.844 582.547 115.188 582.607 114.641 582.727C114.094 582.846 113.677 583.016 113.391 583.234C113.104 583.453 112.964 583.714 112.969 584.016ZM132.859 584.266C132.859 584.828 133.003 585.365 133.289 585.875C133.581 586.38 133.987 586.826 134.508 587.211C135.029 587.596 135.63 587.891 136.312 588.094L135.734 589.062C134.938 588.812 134.237 588.44 133.633 587.945C133.034 587.445 132.581 586.859 132.273 586.188C131.971 586.922 131.513 587.562 130.898 588.109C130.284 588.656 129.562 589.062 128.734 589.328L128.125 588.359C128.812 588.151 129.422 587.844 129.953 587.438C130.49 587.026 130.906 586.547 131.203 586C131.505 585.453 131.656 584.875 131.656 584.266V584.016H128.516V583.031H131.656V581.312H132.891V583.031H136V584.016H132.859V584.266ZM130.219 590.25H138.984V595.078H130.219V590.25ZM137.766 594.078V591.219H131.422V594.078H137.766ZM137.766 581.375H138.984V584.906H141.078V585.938H138.984V589.609H137.766V581.375ZM145.688 582.453C146.323 582.458 146.891 582.638 147.391 582.992C147.896 583.341 148.299 583.839 148.602 584.484H152.25V581.375H153.469V595.297H152.25V589.906H148.688C148.396 590.615 147.99 591.164 147.469 591.555C146.948 591.94 146.354 592.13 145.688 592.125C145.005 592.125 144.398 591.93 143.867 591.539C143.341 591.143 142.932 590.581 142.641 589.852C142.349 589.122 142.203 588.271 142.203 587.297C142.203 586.328 142.349 585.479 142.641 584.75C142.932 584.016 143.341 583.451 143.867 583.055C144.398 582.654 145.005 582.453 145.688 582.453ZM143.375 587.297C143.375 588.042 143.471 588.698 143.664 589.266C143.862 589.828 144.135 590.263 144.484 590.57C144.833 590.878 145.234 591.031 145.688 591.031C146.135 591.031 146.534 590.878 146.883 590.57C147.237 590.263 147.51 589.826 147.703 589.258C147.901 588.69 148 588.036 148 587.297C148 586.557 147.901 585.904 147.703 585.336C147.51 584.768 147.237 584.328 146.883 584.016C146.534 583.703 146.135 583.547 145.688 583.547C145.234 583.547 144.833 583.703 144.484 584.016C144.135 584.328 143.862 584.768 143.664 585.336C143.471 585.898 143.375 586.552 143.375 587.297ZM148.953 585.516C149.089 586.068 149.156 586.661 149.156 587.297C149.156 587.865 149.104 588.396 149 588.891H152.25V585.516H148.953ZM166.641 584.703H168.75V585.719H166.641V589.016H165.422V581.328H166.641V584.703ZM155.812 582.641H159.344V581.234H160.562V582.641H164.094V583.625H155.812V582.641ZM156.609 586.531C156.609 586.068 156.745 585.667 157.016 585.328C157.292 584.984 157.682 584.719 158.188 584.531C158.693 584.344 159.281 584.25 159.953 584.25C160.62 584.25 161.203 584.344 161.703 584.531C162.208 584.714 162.599 584.977 162.875 585.32C163.151 585.664 163.292 586.068 163.297 586.531C163.292 586.995 163.151 587.398 162.875 587.742C162.599 588.086 162.208 588.352 161.703 588.539C161.203 588.721 160.62 588.812 159.953 588.812C159.281 588.812 158.693 588.721 158.188 588.539C157.682 588.352 157.292 588.086 157.016 587.742C156.745 587.398 156.609 586.995 156.609 586.531ZM157.781 589.734H166.641V592.812H159.016V594.172H167.156V595.109H157.812V591.906H165.422V590.656H157.781V589.734ZM157.781 586.531C157.781 586.807 157.87 587.049 158.047 587.258C158.224 587.461 158.477 587.617 158.805 587.727C159.133 587.836 159.516 587.891 159.953 587.891C160.385 587.891 160.766 587.836 161.094 587.727C161.422 587.617 161.677 587.461 161.859 587.258C162.042 587.049 162.135 586.807 162.141 586.531C162.135 586.255 162.042 586.016 161.859 585.812C161.677 585.604 161.422 585.443 161.094 585.328C160.766 585.214 160.385 585.156 159.953 585.156C159.516 585.156 159.133 585.214 158.805 585.328C158.477 585.443 158.224 585.604 158.047 585.812C157.87 586.021 157.781 586.26 157.781 586.531ZM180.594 582.672C180.594 583.302 180.836 583.904 181.32 584.477C181.81 585.044 182.443 585.523 183.219 585.914C184 586.299 184.812 586.552 185.656 586.672L185.156 587.672C184.427 587.552 183.721 587.344 183.039 587.047C182.357 586.745 181.745 586.37 181.203 585.922C180.667 585.469 180.255 584.966 179.969 584.414C179.682 584.971 179.271 585.474 178.734 585.922C178.198 586.37 177.589 586.745 176.906 587.047C176.224 587.344 175.516 587.552 174.781 587.672L174.281 586.672C175.13 586.552 175.943 586.299 176.719 585.914C177.495 585.529 178.122 585.052 178.602 584.484C179.086 583.917 179.328 583.312 179.328 582.672V581.875H180.594V582.672ZM173.625 589.203H186.281V590.234H180.531V595.266H179.328V590.234H173.625V589.203ZM196.172 590.703C196.167 591.344 196.333 591.961 196.672 592.555C197.016 593.143 197.508 593.62 198.148 593.984C198.576 593.719 198.94 593.401 199.242 593.031C199.549 592.656 199.781 592.266 199.938 591.859C200.099 591.453 200.177 591.068 200.172 590.703V589.938H201.375V590.703C201.37 591.182 201.479 591.648 201.703 592.102C201.932 592.555 202.26 592.964 202.688 593.328C203.115 593.688 203.62 593.969 204.203 594.172L203.594 595.078C202.917 594.839 202.336 594.49 201.852 594.031C201.367 593.578 201 593.052 200.75 592.453C200.521 593.052 200.188 593.594 199.75 594.078C199.318 594.562 198.797 594.932 198.188 595.188C197.536 594.938 196.99 594.578 196.547 594.109C196.109 593.641 195.781 593.102 195.562 592.492C195.302 593.07 194.935 593.583 194.461 594.031C193.987 594.484 193.427 594.833 192.781 595.078L192.156 594.172C192.724 593.958 193.221 593.667 193.648 593.297C194.076 592.922 194.404 592.508 194.633 592.055C194.862 591.602 194.979 591.151 194.984 590.703V589.938H196.172V590.703ZM191.797 585.453C191.797 584.818 191.951 584.253 192.258 583.758C192.57 583.263 193.003 582.88 193.555 582.609C194.112 582.339 194.74 582.203 195.438 582.203C196.135 582.203 196.76 582.339 197.312 582.609C197.865 582.88 198.297 583.263 198.609 583.758C198.922 584.253 199.078 584.818 199.078 585.453C199.078 586.078 198.922 586.635 198.609 587.125C198.297 587.615 197.865 587.995 197.312 588.266C196.76 588.536 196.135 588.672 195.438 588.672C194.74 588.672 194.112 588.536 193.555 588.266C193.003 587.995 192.57 587.615 192.258 587.125C191.951 586.635 191.797 586.078 191.797 585.453ZM193 585.453C192.995 585.875 193.096 586.253 193.305 586.586C193.513 586.919 193.802 587.182 194.172 587.375C194.542 587.562 194.964 587.656 195.438 587.656C195.906 587.656 196.326 587.562 196.695 587.375C197.065 587.182 197.354 586.919 197.562 586.586C197.771 586.253 197.875 585.875 197.875 585.453C197.875 585.026 197.771 584.646 197.562 584.312C197.354 583.974 197.062 583.711 196.688 583.523C196.318 583.336 195.901 583.245 195.438 583.25C194.969 583.245 194.547 583.336 194.172 583.523C193.802 583.711 193.513 583.974 193.305 584.312C193.096 584.646 192.995 585.026 193 585.453ZM201.719 581.391H202.938V589.328H201.719V581.391ZM216.531 586.578H207.016V581.891H208.234V585.594H216.531V586.578ZM205.281 588.469H218V589.469H205.281V588.469ZM206.938 590.891H208.156V593.906H216.609V594.922H206.938V590.891ZM228.031 585.109C228.031 585.932 228.19 586.745 228.508 587.547C228.831 588.349 229.268 589.062 229.82 589.688C230.378 590.307 230.99 590.771 231.656 591.078L230.922 592.078C230.13 591.672 229.424 591.078 228.805 590.297C228.19 589.51 227.729 588.622 227.422 587.633C227.109 588.68 226.643 589.62 226.023 590.453C225.409 591.286 224.708 591.911 223.922 592.328L223.125 591.344C223.797 591.016 224.411 590.523 224.969 589.867C225.526 589.206 225.966 588.458 226.289 587.625C226.617 586.786 226.781 585.948 226.781 585.109V582.578H228.031V585.109ZM230.141 586.125H233.438V581.375H234.656V595.297H233.438V587.125H230.141V586.125ZM248.422 595.297H247.188V581.375H248.422V595.297ZM237.781 582.562H239V586.234H243.141V582.562H244.344V591.938H237.781V582.562ZM243.141 590.906V587.219H239V590.906H243.141ZM257.719 583.422C257.719 584.182 257.974 584.914 258.484 585.617C258.995 586.32 259.646 586.919 260.438 587.414C261.234 587.904 262.042 588.224 262.859 588.375L262.297 589.406C261.583 589.24 260.883 588.969 260.195 588.594C259.513 588.219 258.898 587.755 258.352 587.203C257.805 586.651 257.385 586.047 257.094 585.391C256.802 586.047 256.383 586.651 255.836 587.203C255.289 587.75 254.672 588.214 253.984 588.594C253.302 588.969 252.604 589.24 251.891 589.406L251.328 588.375C252.146 588.219 252.948 587.896 253.734 587.406C254.526 586.917 255.174 586.32 255.68 585.617C256.185 584.914 256.438 584.182 256.438 583.422V582.359H257.719V583.422ZM250.797 592.359H263.516V593.375H250.797V592.359ZM276.094 588.828H274.875V581.375H276.094V588.828ZM264.953 585.25C264.953 584.625 265.107 584.07 265.414 583.586C265.727 583.102 266.159 582.727 266.711 582.461C267.268 582.19 267.896 582.057 268.594 582.062C269.292 582.057 269.917 582.19 270.469 582.461C271.021 582.727 271.453 583.102 271.766 583.586C272.078 584.07 272.234 584.625 272.234 585.25C272.234 585.87 272.078 586.422 271.766 586.906C271.453 587.391 271.021 587.768 270.469 588.039C269.917 588.305 269.292 588.438 268.594 588.438C267.896 588.438 267.268 588.305 266.711 588.039C266.159 587.768 265.727 587.391 265.414 586.906C265.107 586.422 264.953 585.87 264.953 585.25ZM266.156 585.25C266.151 585.667 266.253 586.039 266.461 586.367C266.669 586.695 266.958 586.953 267.328 587.141C267.698 587.328 268.12 587.422 268.594 587.422C269.062 587.422 269.482 587.328 269.852 587.141C270.221 586.953 270.51 586.695 270.719 586.367C270.927 586.039 271.031 585.667 271.031 585.25C271.031 584.833 270.927 584.461 270.719 584.133C270.51 583.805 270.221 583.549 269.852 583.367C269.482 583.185 269.062 583.094 268.594 583.094C268.12 583.094 267.698 583.185 267.328 583.367C266.958 583.549 266.669 583.805 266.461 584.133C266.253 584.461 266.151 584.833 266.156 585.25ZM267.094 589.531H268.312V591.219H274.875V589.531H276.094V595.078H267.094V589.531ZM274.875 594.078V592.203H268.312V594.078H274.875ZM289.906 595.266H288.688V581.375H289.906V595.266ZM279.359 582.75H280.562V590.625C281.708 590.615 282.826 590.56 283.914 590.461C285.003 590.357 286.099 590.188 287.203 589.953L287.375 591C286.193 591.245 285.042 591.422 283.922 591.531C282.807 591.635 281.661 591.688 280.484 591.688H279.359V582.75ZM303.031 586.875H305.359V587.906H303.031V595.297H301.812V581.375H303.031V586.875ZM292.891 582.734H299.375V583.75H294.109V590.781C295.422 590.776 296.56 590.737 297.523 590.664C298.487 590.591 299.469 590.464 300.469 590.281L300.625 591.344C299.594 591.531 298.583 591.656 297.594 591.719C296.609 591.781 295.406 591.812 293.984 591.812H292.891V582.734ZM307.578 594.094C307.396 594.094 307.227 594.047 307.07 593.953C306.919 593.859 306.797 593.737 306.703 593.586C306.615 593.43 306.573 593.26 306.578 593.078C306.573 592.901 306.615 592.737 306.703 592.586C306.797 592.43 306.919 592.307 307.07 592.219C307.227 592.125 307.396 592.078 307.578 592.078C307.755 592.078 307.919 592.122 308.07 592.211C308.227 592.299 308.349 592.419 308.438 592.57C308.531 592.721 308.578 592.885 308.578 593.062C308.578 593.344 308.482 593.586 308.289 593.789C308.096 593.987 307.859 594.089 307.578 594.094Z" fill="black"/>
</g>
<defs>
<filter id="filter0_i_73_7101" x="-31" y="109" width="400" height="403" filterUnits="userSpaceOnUse" color-interpolation-filters="sRGB">
<feFlood flood-opacity="0" result="BackgroundImageFix"/>
<feBlend mode="normal" in="SourceGraphic" in2="BackgroundImageFix" result="shape"/>
<feColorMatrix in="SourceAlpha" type="matrix" values="0 0 0 0 0 0 0 0 0 0 0 0 0 0 0 0 0 0 127 0" result="hardAlpha"/>
<feOffset dy="5"/>
<feGaussianBlur stdDeviation="2.5"/>
<feComposite in2="hardAlpha" operator="arithmetic" k2="-1" k3="1"/>
<feColorMatrix type="matrix" values="0 0 0 0 0.0958333 0 0 0 0 0.0958333 0 0 0 0 0.0958333 0 0 0 0.25 0"/>
<feBlend mode="normal" in2="shape" result="effect1_innerShadow_73_7101"/>
</filter>
<clipPath id="clip0_73_7101">
<rect width="360" height="800" fill="white"/>
</clipPath>
</defs>
</svg>
