<svg width="264" height="393" viewBox="0 0 264 393" fill="none" xmlns="http://www.w3.org/2000/svg">
<rect x="0.402439" y="0.402439" width="127.976" height="90.1463" rx="6.03659" fill="white" stroke="#E1E1E1" stroke-width="0.804878"/>
<path d="M17.2068 44.4414H19.634V41.7123H20.552V49.0317H16.2636V41.7123H17.2068V44.4414ZM19.634 48.2142V45.2462H17.2068V48.2142H19.634ZM21.9732 40.8823H22.9164V45.0828H24.4758V40.6433H25.4316V51.8236H24.4758V45.9002H22.9164V51.2577H21.9732V40.8823ZM36.0082 46.8434H28.2864V41.6872H35.895V42.5046H29.2674V46.026H36.0082V46.8434ZM26.9785 49.4719H37.2155V50.3019H26.9785V49.4719ZM43.9438 46.8057H38.6995V41.6243H43.9438V46.8057ZM42.9754 46.0134V42.4417H39.6679V46.0134H42.9754ZM40.1206 47.9124H41.1016V50.6289H47.6915V51.4463H40.1206V47.9124ZM46.3584 40.6559H47.3394V48.6921H46.3584V40.6559ZM58.5071 48.9562H57.5135V44.6174H55.3253V43.8H57.5135V40.6559H58.5071V48.9562ZM49.8169 41.5237H54.8474V42.3411H50.7978V43.9006H54.5456V44.6929H50.7978V46.3529H51.1123C52.0932 46.3529 52.9002 46.332 53.5332 46.2901C54.1662 46.2481 54.8055 46.1685 55.451 46.0511L55.5391 46.8686C54.8306 46.9943 54.1264 47.0782 53.4263 47.1201C52.7262 47.162 51.7956 47.183 50.6344 47.183H49.8169V41.5237ZM51.3009 48.2394H52.2944V50.7546H58.8089V51.5847H51.3009V48.2394Z" fill="black"/>
<rect x="135.622" y="0.402439" width="127.976" height="90.1463" rx="6.03659" fill="white" stroke="#E1E1E1" stroke-width="0.804878"/>
<path d="M163.309 41.8255C163.305 42.3537 163.29 42.8106 163.265 43.1963C163.244 43.582 163.187 44.0138 163.095 44.4917L162.114 44.3911C162.206 43.9299 162.265 43.517 162.29 43.1523C162.315 42.7834 162.328 42.3705 162.328 41.9135H155.637V41.1087H163.309V41.8255ZM154.43 45.1079H158.643V43.1712H159.611V45.1079H164.604V45.9128H154.43V45.1079ZM155.637 46.9566H163.347V49.6102H156.643V50.893H163.636V51.6978H155.65V48.9059H162.366V47.7615H155.637V46.9566ZM175.784 50.3899H165.547V49.5473H175.784V50.3899ZM166.453 41.7752H174.804V42.5927H173.03V46.5039H174.778V47.3087H166.478V46.5039H168.226V42.5927H166.453V41.7752ZM172.062 46.5039V42.5927H169.207V46.5039H172.062Z" fill="black"/>
<rect x="0.402439" y="101.012" width="127.976" height="90.1463" rx="6.03659" fill="white" stroke="#E1E1E1" stroke-width="0.804878"/>
<path d="M28.2276 145.202H24.7818V146.674H29.3972V147.504H19.1979V146.674H23.8134V145.202H20.5939V141.48H21.5748V144.385H28.2276V145.202ZM20.4304 150.384C20.4304 149.952 20.5834 149.585 20.8894 149.283C21.1954 148.977 21.6377 148.744 22.2162 148.585C22.7947 148.426 23.4864 148.346 24.2913 148.346C25.0878 148.346 25.7732 148.426 26.3475 148.585C26.9218 148.744 27.362 148.977 27.668 149.283C27.9782 149.585 28.1354 149.952 28.1396 150.384C28.1354 150.811 27.9782 151.176 27.668 151.478C27.362 151.78 26.9218 152.01 26.3475 152.169C25.7732 152.329 25.0878 152.408 24.2913 152.408C23.4864 152.408 22.7947 152.329 22.2162 152.169C21.6377 152.01 21.1954 151.78 20.8894 151.478C20.5834 151.176 20.4304 150.811 20.4304 150.384ZM21.4365 150.384C21.4323 150.639 21.5434 150.861 21.7697 151.05C21.9961 151.235 22.3252 151.377 22.757 151.478C23.1888 151.578 23.7002 151.629 24.2913 151.629C24.8782 151.629 25.3854 151.578 25.813 151.478C26.2406 151.377 26.5697 151.235 26.8002 151.05C27.0308 150.861 27.1461 150.639 27.1461 150.384C27.1419 149.985 26.8883 149.677 26.3852 149.459C25.8822 149.241 25.1842 149.13 24.2913 149.126C23.39 149.13 22.6878 149.241 22.1848 149.459C21.6817 149.677 21.4323 149.985 21.4365 150.384ZM39.1689 142.964C39.1689 143.685 39.1501 144.326 39.1124 144.888C39.0788 145.445 38.9908 146.078 38.8483 146.787H40.5146V147.604H35.8991V152.459H34.9056V147.604H30.3279V146.787H37.8484C37.9994 146.074 38.0937 145.439 38.1314 144.881C38.1691 144.32 38.188 143.68 38.188 142.964V142.8H31.6106V141.983H39.1689V142.964Z" fill="black"/>
<rect x="135.622" y="101.012" width="127.976" height="90.1463" rx="6.03659" fill="white" stroke="#E1E1E1" stroke-width="0.804878"/>
<path d="M152.321 143.416H149.102V145.63H151.806V146.422H149.102V148.937C149.936 148.929 150.63 148.904 151.183 148.862C151.741 148.816 152.313 148.74 152.9 148.635L152.988 149.44C152.384 149.562 151.791 149.642 151.208 149.679C150.63 149.717 149.848 149.738 148.863 149.742H148.158V142.624H152.321V143.416ZM152.409 145.504H154.057V141.53H155V151.855H154.057V146.321H152.409V145.504ZM156.333 141.253H157.289V152.433H156.333V141.253ZM168.067 152.433H167.086V141.253H168.067V152.433ZM159.578 142.36H160.546V148.698C161.468 148.69 162.368 148.646 163.244 148.566C164.12 148.482 165.002 148.346 165.891 148.158L166.029 149C165.078 149.197 164.151 149.34 163.25 149.428C162.353 149.512 161.431 149.554 160.483 149.554H159.578V142.36ZM175.549 142.901C175.549 143.513 175.755 144.102 176.166 144.668C176.577 145.234 177.101 145.716 177.738 146.114C178.379 146.508 179.029 146.766 179.687 146.887L179.234 147.717C178.66 147.583 178.096 147.365 177.543 147.063C176.994 146.762 176.499 146.388 176.059 145.944C175.619 145.5 175.281 145.013 175.046 144.485C174.812 145.013 174.474 145.5 174.034 145.944C173.594 146.384 173.097 146.757 172.544 147.063C171.995 147.365 171.433 147.583 170.859 147.717L170.406 146.887C171.064 146.762 171.71 146.502 172.343 146.108C172.98 145.714 173.502 145.234 173.908 144.668C174.315 144.102 174.518 143.513 174.518 142.901V142.046H175.549V142.901ZM169.978 150.094H180.215V150.912H169.978V150.094Z" fill="black"/>
<rect x="0.402439" y="201.622" width="127.976" height="90.1463" rx="6.03659" fill="white" stroke="#E1E1E1" stroke-width="0.804878"/>
<path d="M24.8698 243.447H20.7071V244.906H24.656V245.686H20.7071V247.233C21.8389 247.233 22.7591 247.212 23.4675 247.17C24.176 247.124 24.8866 247.036 25.5992 246.906L25.7124 247.723C25.0333 247.841 24.3584 247.92 23.6876 247.962C23.0169 248.004 22.1785 248.025 21.1724 248.025H20.5687H19.7261V242.63H24.8698V243.447ZM20.619 249.195H27.9384V253.043H26.9574V250H20.619V249.195ZM26.9574 241.863H27.9384V244.843H29.6236V245.686H27.9384V248.641H26.9574V241.863ZM39.1689 243.573C39.1689 244.294 39.1501 244.936 39.1124 245.497C39.0788 246.055 38.9908 246.688 38.8483 247.396H40.5146V248.214H35.8991V253.068H34.9056V248.214H30.3279V247.396H37.8484C37.9994 246.684 38.0937 246.049 38.1314 245.491C38.1691 244.929 38.188 244.29 38.188 243.573V243.41H31.6106V242.592H39.1689V243.573Z" fill="black"/>
<rect x="135.622" y="201.622" width="127.976" height="90.1463" rx="6.03659" fill="white" stroke="#E1E1E1" stroke-width="0.804878"/>
<path d="M163.636 242.995H161.913V245.321H163.598V246.151H155.411V245.321H157.096V242.995H155.373V242.177H163.636V242.995ZM154.417 247.208H164.642V248.025H159.976V249.27H159.008V248.025H154.417V247.208ZM155.172 252.238C155.847 252.175 156.474 252.041 157.052 251.836C157.635 251.626 158.102 251.362 158.454 251.043C158.807 250.725 158.983 250.373 158.983 249.987V249.685H159.989V249.987C159.989 250.373 160.165 250.727 160.517 251.05C160.869 251.368 161.336 251.63 161.919 251.836C162.502 252.041 163.137 252.175 163.824 252.238L163.51 252.993C162.596 252.896 161.779 252.685 161.058 252.358C160.337 252.031 159.813 251.614 159.486 251.106C159.163 251.614 158.639 252.031 157.914 252.358C157.193 252.689 156.379 252.901 155.474 252.993L155.172 252.238ZM160.932 245.321V242.995H158.077V245.321H160.932ZM169.295 243.146C169.295 243.64 169.413 244.11 169.647 244.554C169.882 244.994 170.209 245.382 170.628 245.717C171.047 246.053 171.529 246.306 172.074 246.478L171.546 247.245C170.917 247.027 170.368 246.711 169.899 246.296C169.433 245.877 169.079 245.386 168.836 244.825C168.597 245.47 168.23 246.032 167.736 246.51C167.245 246.983 166.663 247.342 165.988 247.585L165.485 246.793C166.046 246.6 166.541 246.323 166.969 245.963C167.396 245.602 167.729 245.181 167.968 244.699C168.207 244.212 168.327 243.695 168.327 243.146V242.253H169.295V243.146ZM167.157 248.214H174.288V250.88H168.151V252.112H174.703V252.917H167.182V250.125H173.307V249.006H167.157V248.214ZM173.307 241.863H174.288V244.315H175.973V245.145H174.288V247.711H173.307V241.863Z" fill="black"/>
<rect x="0.402439" y="302.232" width="127.976" height="90.1463" rx="6.03659" fill="white" stroke="#E1E1E1" stroke-width="0.804878"/>
<path d="M27.951 345.39H29.6236V346.22H27.951V349.151H26.9574V342.473H27.951V345.39ZM19.7135 343.328H24.6811V344.145H20.6819V347.428C21.8766 347.419 22.8387 347.39 23.5681 347.34C24.3018 347.285 25.0291 347.185 25.7501 347.038L25.8507 347.855C25.1004 348.006 24.3458 348.107 23.587 348.157C22.8324 348.207 21.8305 348.233 20.5813 348.233H19.7135V343.328ZM20.6442 351.49C20.6442 351.05 20.7951 350.67 21.0969 350.352C21.3988 350.033 21.8263 349.79 22.3797 349.622C22.9372 349.45 23.5954 349.364 24.3542 349.364C25.1129 349.364 25.769 349.45 26.3223 349.622C26.8757 349.79 27.2991 350.033 27.5925 350.352C27.8902 350.67 28.039 351.05 28.039 351.49C28.039 351.938 27.8902 352.322 27.5925 352.641C27.2991 352.963 26.8757 353.209 26.3223 353.376C25.769 353.544 25.1129 353.628 24.3542 353.628C23.5954 353.628 22.9372 353.544 22.3797 353.376C21.8221 353.209 21.3925 352.963 21.0906 352.641C20.793 352.322 20.6442 351.938 20.6442 351.49ZM21.6125 351.49C21.6125 351.762 21.7236 352.001 21.9458 352.207C22.168 352.408 22.4845 352.563 22.8953 352.672C23.3103 352.781 23.7966 352.835 24.3542 352.835C24.9075 352.835 25.3896 352.781 25.8004 352.672C26.2154 352.563 26.5319 352.408 26.7499 352.207C26.9721 352.001 27.0832 351.762 27.0832 351.49C27.0832 351.217 26.9721 350.983 26.7499 350.786C26.5319 350.589 26.2154 350.438 25.8004 350.333C25.3896 350.228 24.9075 350.178 24.3542 350.182C23.7966 350.178 23.3124 350.228 22.9016 350.333C22.4908 350.438 22.1722 350.589 21.9458 350.786C21.7236 350.983 21.6125 351.217 21.6125 351.49ZM39.1689 344.183C39.1689 344.904 39.1501 345.545 39.1124 346.107C39.0788 346.665 38.9908 347.298 38.8483 348.006H40.5146V348.824H35.8991V353.678H34.9056V348.824H30.3279V348.006H37.8484C37.9994 347.294 38.0937 346.658 38.1314 346.101C38.1691 345.539 38.188 344.9 38.188 344.183V344.02H31.6106V343.202H39.1689V344.183Z" fill="black"/>
<rect x="135.622" y="302.232" width="127.976" height="90.1463" rx="6.03659" fill="white" stroke="#E1E1E1" stroke-width="0.804878"/>
<path d="M163.699 343.743H160.152C160.156 344.15 160.341 344.531 160.706 344.887C161.074 345.239 161.554 345.535 162.146 345.774C162.741 346.013 163.372 346.17 164.038 346.246L163.674 347.025C163.053 346.946 162.464 346.803 161.907 346.598C161.349 346.392 160.861 346.13 160.441 345.812C160.022 345.493 159.712 345.133 159.511 344.73C159.31 345.133 158.999 345.493 158.58 345.812C158.165 346.13 157.679 346.392 157.121 346.598C156.568 346.803 155.981 346.946 155.361 347.025L154.996 346.246C155.658 346.17 156.285 346.013 156.876 345.774C157.467 345.535 157.945 345.239 158.31 344.887C158.679 344.531 158.865 344.15 158.869 343.743H155.348V342.938H163.699V343.743ZM154.417 348.094H159.02V346.396H159.989V348.094H164.642V348.912H154.417V348.094ZM155.549 350.018H163.347V353.653H162.353V350.823H155.549V350.018ZM174.388 344.183C174.388 344.904 174.37 345.545 174.332 346.107C174.298 346.665 174.21 347.298 174.068 348.006H175.734V348.824H171.119V353.678H170.125V348.824H165.547V348.006H173.068C173.219 347.294 173.313 346.658 173.351 346.101C173.389 345.539 173.408 344.9 173.408 344.183V344.02H166.83V343.202H174.388V344.183Z" fill="black"/>
<path d="M210.531 45.1807C210.531 50.6505 206.064 55.1177 200.594 55.1177C200.138 55.1177 199.683 54.7531 199.683 54.2058C199.683 53.6589 200.138 53.294 200.594 53.294C205.062 53.294 208.708 49.6473 208.708 45.1802C208.708 44.7243 209.073 44.2684 209.62 44.2684C210.076 44.2692 210.531 44.7247 210.531 45.1807Z" fill="black"/>
<path d="M207.236 44.8369C207.236 48.2441 204.126 51.0266 200.317 51.0266C200 51.0266 199.683 50.7712 199.683 50.4303C199.683 50.0897 200 49.6353 200.317 49.6353C203.428 49.6353 205.646 47.6475 205.646 44.8649C205.646 44.5809 206.06 44.2686 206.441 44.2686C206.758 44.2691 207.236 44.5529 207.236 44.8369Z" fill="black"/>
<circle cx="218.195" cy="25.7562" r="5.63415" fill="black"/>
<rect x="231.175" y="49.9026" width="28.1574" height="6.43902" rx="3.21951" transform="rotate(62.9892 231.175 49.9026)" fill="black"/>
<rect x="227.961" y="51.7949" width="20.9268" height="6.43902" rx="3.21951" transform="rotate(92.5138 227.961 51.7949)" fill="black"/>
<rect x="227.891" y="69.394" width="14.812" height="6.43902" rx="3.21951" transform="rotate(130.7 227.891 69.394)" fill="black"/>
<rect x="230.373" y="20.1221" width="13.6098" height="5.63415" rx="2.81707" transform="rotate(47.1282 230.373 20.1221)" fill="black"/>
<rect x="223.024" y="35.5703" width="14.9996" height="5.63415" rx="2.81707" transform="rotate(-37.0734 223.024 35.5703)" fill="black"/>
<rect x="214.976" y="36.3132" width="12.0732" height="20.122" rx="3.21951" transform="rotate(-15.9275 214.976 36.3132)" fill="black"/>
<rect x="228.07" y="21.7319" width="1.60976" height="35.2328" transform="rotate(62.1957 228.07 21.7319)" fill="black"/>
<path d="M202.448 41.6899C203.707 43.866 204.512 45.0733 202.5 46.6831C200.81 47.3047 197.867 46.9534 196.769 43.9674C195.671 40.9814 196.151 38.0569 197.841 37.4353C199.531 36.8136 201.35 38.7039 202.448 41.6899Z" fill="black"/>
<path d="M248.66 24.6037C250.033 23.9926 250.654 22.3765 250.043 21.0035C249.432 19.6305 247.816 19.0099 246.443 19.6209C245.07 20.232 244.449 21.8481 245.06 23.2212C245.671 24.5941 247.287 25.2148 248.66 24.6037ZM248.076 22.5157C248.342 22.3974 248.646 22.5142 248.764 22.7799C248.793 22.8463 248.769 22.9104 248.702 22.9399C248.636 22.9695 248.572 22.9449 248.542 22.8785C248.478 22.7345 248.318 22.6731 248.174 22.7371C248.108 22.7667 248.044 22.7421 248.014 22.6757C247.985 22.6093 248.009 22.5453 248.076 22.5157L248.076 22.5157ZM247.137 22.1643C247.402 22.046 247.706 22.1627 247.825 22.4285C247.854 22.4949 247.83 22.5589 247.763 22.5885C247.697 22.618 247.633 22.5935 247.603 22.527C247.539 22.3831 247.379 22.3216 247.235 22.3857C247.169 22.4153 247.105 22.3907 247.075 22.3243C247.046 22.2578 247.081 22.1889 247.137 22.1643L247.137 22.1643ZM248.043 23.2467C248.073 23.3131 248.048 23.3772 247.982 23.4067C247.915 23.4363 247.851 23.4117 247.822 23.3453C247.757 23.2013 247.597 23.1399 247.453 23.204C247.387 23.2335 247.323 23.2089 247.293 23.1425C247.264 23.0761 247.289 23.0121 247.355 22.9825C247.621 22.8642 247.925 22.981 248.043 23.2467L248.043 23.2467ZM246.204 21.7968C246.469 21.6786 246.773 21.7953 246.892 22.061C246.921 22.1275 246.897 22.1915 246.83 22.221C246.764 22.2506 246.7 22.226 246.67 22.1596C246.606 22.0156 246.446 21.9542 246.302 22.0183C246.236 22.0478 246.172 22.0232 246.142 21.9568C246.118 21.9015 246.137 21.8264 246.204 21.7968L246.204 21.7968ZM246.427 22.6261C246.693 22.5078 246.997 22.6246 247.115 22.8903C247.144 22.9567 247.12 23.0208 247.053 23.0503C246.987 23.0799 246.923 23.0553 246.893 22.9889C246.829 22.8449 246.669 22.7835 246.525 22.8475C246.459 22.8771 246.395 22.8525 246.365 22.7861C246.336 22.7197 246.36 22.6557 246.427 22.6261L246.427 22.6261ZM246.645 23.4443C246.911 23.3261 247.215 23.4428 247.333 23.7086C247.363 23.775 247.338 23.839 247.272 23.8686C247.205 23.8981 247.141 23.8735 247.112 23.8071C247.048 23.6632 246.888 23.6017 246.744 23.6658C246.677 23.6953 246.613 23.6708 246.584 23.6043C246.554 23.5379 246.579 23.4739 246.645 23.4443L246.645 23.4443Z" fill="#AA3DD0"/>
<path d="M245.712 21.0828C245.712 21.0828 245.882 21.0021 246.057 21.0474C246.232 21.0928 246.354 21.2491 246.354 21.2491" stroke="white" stroke-width="0.241463" stroke-linecap="round"/>
<path d="M246.772 21.4194C246.772 21.4194 246.949 21.3545 247.119 21.4155C247.289 21.4765 247.396 21.6432 247.396 21.6432" stroke="white" stroke-width="0.241463" stroke-linecap="round"/>
<path d="M247.98 21.8118C247.98 21.8118 248.158 21.7502 248.327 21.8144C248.496 21.8786 248.6 22.0474 248.6 22.0474" stroke="white" stroke-width="0.241463" stroke-linecap="round"/>
<path d="M249.191 22.3274C249.191 22.3274 249.372 22.2758 249.537 22.3493C249.702 22.4228 249.797 22.5971 249.797 22.5971" stroke="white" stroke-width="0.241463" stroke-linecap="round"/>
<path d="M74.1771 12.9869C74.2822 12.9823 74.3767 12.9354 74.4429 12.8541C74.5366 12.739 74.5503 12.57 74.4763 12.4534L72.1527 8.37674C72.0922 8.27117 71.9863 8.20753 71.8733 8.19426C71.7546 8.18779 71.6411 8.23048 71.5639 8.3253L71.5639 9.11101L70.9242 9.11101C70.8139 9.24646 70.8162 9.4511 70.9352 9.58174L73.904 12.8659C73.9743 12.9456 74.072 12.9915 74.1771 12.9869Z" fill="#AA3DD0"/>
<path d="M73.1637 13.9413C73.3157 14.0313 73.511 13.9989 73.6269 13.8566L73.6765 13.7957C73.7923 13.6534 73.7844 13.4556 73.6655 13.3249L70.6967 10.0408C70.6265 9.96104 70.5231 9.92197 70.4236 9.91974C70.3185 9.92431 70.224 9.97125 70.1578 10.0525L70.0242 10.866L69.2535 11.1633C69.1873 11.2446 69.1605 11.3467 69.1774 11.4505C69.1942 11.5543 69.259 11.6408 69.3513 11.6934L73.1637 13.9413Z" fill="#AA3DD0"/>
<path d="M68.0062 13.4702L72.4638 14.9256C72.6053 14.9732 72.7557 14.9267 72.8494 14.8116C72.9156 14.7303 72.9424 14.6282 72.9255 14.5244C72.9087 14.4206 72.8439 14.3341 72.7516 14.2815L68.9392 12.0336C68.7872 11.9437 68.5918 11.9761 68.476 12.1183L68.476 12.6985L67.8363 12.9041C67.7591 12.9989 67.7404 13.1188 67.7708 13.2336C67.8012 13.3484 67.8905 13.4324 68.0062 13.4702Z" fill="#AA3DD0"/>
<path d="M74.6634 13.0674L73.1083 14.9775C73.0036 15.1062 73.0237 15.3028 73.1524 15.4076L73.972 16.0748C74.6494 16.6262 75.6612 16.5039 76.1842 15.7922C76.6687 15.128 76.5226 14.1869 75.8791 13.6631L75.0934 13.0234C74.958 12.9131 74.7681 12.9387 74.6634 13.0674Z" fill="#AA3DD0"/>
<circle cx="99.8049" cy="33.805" r="5.63415" fill="black"/>
<rect x="82.1393" y="29.1965" width="20.9268" height="5.63415" rx="2.81707" transform="rotate(47.1282 82.1393 29.1965)" fill="black"/>
<rect x="98.2974" y="53.927" width="20.9268" height="6.43902" rx="3.21951" transform="rotate(62.9892 98.2974 53.927)" fill="black"/>
<rect x="94.9992" y="57.6328" width="20.9268" height="6.43902" rx="3.21951" transform="rotate(109 94.9992 57.6328)" fill="black"/>
<rect x="103.12" y="67.6099" width="17.258" height="6.43902" rx="3.21951" transform="rotate(30.9915 103.12 67.6099)" fill="black"/>
<rect x="87.6375" y="69.2195" width="17.258" height="6.43902" rx="3.21951" transform="rotate(59.3594 87.6375 69.2195)" fill="black"/>
<rect x="100.714" y="40.2439" width="20.9268" height="5.63415" rx="2.81707" transform="rotate(47.1282 100.714 40.2439)" fill="black"/>
<rect x="90.8892" y="40.0786" width="12.0732" height="20.122" rx="3.21951" transform="rotate(7.43473 90.8892 40.0786)" fill="black"/>
<rect x="84.5012" y="20.1221" width="1.60976" height="12.0732" transform="rotate(19.4162 84.5012 20.1221)" fill="black"/>
<ellipse cx="88.0483" cy="16.0504" rx="4.26002" ry="6.84146" transform="rotate(25.044 88.0483 16.0504)" fill="black"/>
<rect x="75.0697" y="13.1553" width="0.160976" height="2.81601" transform="rotate(39.2867 75.0697 13.1553)" fill="white"/>
<path d="M197.901 142.468C199.097 142.481 200.37 143.745 200.414 144.937C200.423 145.156 200.343 145.302 200.166 145.42C199.839 145.637 199.476 145.761 199.099 145.852C198.619 145.967 198.13 146.048 197.68 146.27C197.108 146.555 196.75 146.992 196.712 147.646C196.697 147.898 196.587 147.938 196.387 147.841C195.791 147.553 195.344 147.111 195.052 146.517C194.949 146.309 194.965 146.184 195.247 146.168C195.868 146.132 196.299 145.795 196.582 145.254C196.786 144.865 196.88 144.441 196.974 144.017C197.076 143.557 197.195 143.103 197.469 142.706C197.581 142.544 197.712 142.441 197.901 142.468L197.901 142.468Z" fill="#AA3DD0"/>
<path d="M197.181 142.48C196.758 143.142 196.669 143.842 196.493 144.513C196.431 144.747 196.349 144.973 196.222 145.181C196.009 145.527 195.712 145.757 195.303 145.821C194.966 145.874 194.807 145.74 194.786 145.397C194.744 144.706 194.935 144.081 195.361 143.539C195.806 142.974 196.378 142.607 197.181 142.48L197.181 142.48Z" fill="#AA3DD0"/>
<path d="M200.391 145.701C200.151 147.161 198.966 148.131 197.562 148.097C197.115 148.086 196.975 147.908 197.082 147.479C197.244 146.829 197.748 146.562 198.327 146.4C199.008 146.21 199.725 146.136 200.391 145.701L200.391 145.701Z" fill="#AA3DD0"/>
<circle cx="233.753" cy="121.856" r="5.63415" transform="rotate(13.0194 233.753 121.856)" fill="black"/>
<rect x="213.65" y="129.257" width="15.9693" height="5.63415" rx="2.81707" transform="rotate(10.6753 213.65 129.257)" fill="black"/>
<rect x="240.298" y="144.022" width="20.9268" height="6.43902" rx="3.21951" transform="rotate(76.0086 240.298 144.022)" fill="black"/>
<rect x="234.318" y="148.096" width="17.2094" height="6.43902" rx="3.21951" transform="rotate(122.02 234.318 148.096)" fill="black"/>
<rect x="241.914" y="158.44" width="17.258" height="6.43902" rx="3.21951" transform="rotate(44.0109 241.914 158.44)" fill="black"/>
<rect x="226.167" y="157.278" width="17.258" height="6.43902" rx="3.21951" transform="rotate(88.1566 226.167 157.278)" fill="black"/>
<rect x="236.528" y="128.281" width="20.9268" height="5.63415" rx="2.81707" transform="rotate(39.8345 236.528 128.281)" fill="black"/>
<rect x="225.994" y="130.399" width="12.0732" height="20.122" rx="3.21951" transform="rotate(-8.54457 225.994 130.399)" fill="black"/>
<rect x="202.829" y="131.182" width="1.60976" height="12.0732" transform="rotate(-82.6093 202.829 131.182)" fill="black"/>
<ellipse cx="198.402" cy="130.533" rx="5.55177" ry="6.84146" transform="rotate(-80.7314 198.402 130.533)" fill="black"/>
<rect x="211.095" y="185.927" width="0.160976" height="2.81601" transform="rotate(39.2867 211.095 185.927)" fill="white"/>
<path d="M118.317 234.094C118.317 234.761 117.777 235.301 117.11 235.301C116.443 235.301 115.902 234.761 115.902 234.094C115.902 233.427 116.443 232.886 117.11 232.886C117.777 232.886 118.317 233.427 118.317 234.094Z" fill="#AA3DD0"/>
<rect x="57.1463" y="250.594" width="1.60976" height="63.5854" rx="0.804878" transform="rotate(-90 57.1463 250.594)" fill="black"/>
<circle r="5.63415" transform="matrix(-1 0 0 1 85.7196 226.976)" fill="black"/>
<rect width="20.9268" height="5.63415" rx="2.81707" transform="matrix(-0.999163 -0.0409001 -0.0409001 0.999163 106.457 236.962)" fill="black"/>
<rect width="20.9268" height="6.43902" rx="3.21951" transform="matrix(-0.454158 0.890921 0.890921 0.454158 74.349 249.789)" fill="black"/>
<rect width="17.2094" height="6.43902" rx="3.21951" transform="matrix(0.325575 0.945516 0.945516 -0.325575 76.4634 253.495)" fill="black"/>
<rect width="17.258" height="6.43902" rx="3.21951" transform="matrix(-0.857244 0.51491 0.51491 0.857244 69.526 263.472)" fill="black"/>
<rect width="17.258" height="6.43902" rx="3.21951" transform="matrix(-0.256505 0.966543 0.966543 0.256505 82.3365 264.277)" fill="black"/>
<rect width="20.9268" height="5.63415" rx="2.81707" transform="matrix(-0.892467 0.451112 0.451112 0.892467 81.5678 232.61)" fill="black"/>
<rect width="12.0732" height="20.122" rx="3.21951" transform="matrix(-0.930008 -0.36754 -0.36754 0.930008 91.3537 237.047)" fill="black"/>
<rect width="1.60976" height="5.67639" transform="matrix(0.30147 -0.953476 -0.953476 -0.30147 109.242 242.012)" fill="black"/>
<ellipse rx="2.69943" ry="3.92676" transform="matrix(0.3194 -0.94762 -0.94762 -0.3194 112.437 242.333)" fill="black"/>
<path d="M241.53 279.913C245.561 279.913 248.84 276.524 248.84 272.359C248.84 268.194 245.561 264.805 241.53 264.805C237.499 264.805 234.219 268.194 234.219 272.359C234.219 276.524 237.499 279.913 241.53 279.913ZM235.257 269.804L236.331 269.81C236.365 270.415 236.52 271.852 237.203 273.053L236.186 275.162L235.308 275.048C234.972 274.22 234.786 273.311 234.786 272.359C234.786 271.457 234.955 270.596 235.257 269.804L235.257 269.804ZM244.164 277.153C243.754 277.136 242.288 277.026 241.131 276.317L240.767 273.561L242.694 271.57L245.361 271.946C246.045 273.138 246.154 274.655 246.17 275.081L244.164 277.153ZM240.367 273.147L237.7 272.772C237.016 271.578 236.907 270.061 236.891 269.636L238.897 267.563C239.307 267.58 240.773 267.691 241.93 268.399L242.294 271.156L240.367 273.147ZM235.6 275.675L236.219 275.756L238.243 277.847L238.321 278.486C237.172 277.841 236.225 276.862 235.6 275.675L235.6 275.675ZM238.928 278.787L238.817 277.88L240.857 276.83C242.019 277.535 243.41 277.695 243.996 277.731L244.002 278.84C243.236 279.153 242.402 279.327 241.53 279.327C240.608 279.327 239.73 279.135 238.928 278.787L238.928 278.787ZM247.802 274.913L246.729 274.907C246.695 274.301 246.541 272.864 245.857 271.663L246.873 269.556L247.751 269.671C248.087 270.498 248.274 271.406 248.274 272.359C248.274 273.26 248.105 274.122 247.802 274.913L247.802 274.913ZM247.46 269.042L246.841 268.961L244.818 266.87L244.74 266.231C245.888 266.876 246.836 267.855 247.46 269.042L247.46 269.042ZM244.132 265.93L244.243 266.837L242.204 267.887C241.041 267.181 239.651 267.021 239.064 266.986L239.059 265.877C239.824 265.564 240.658 265.39 241.53 265.39C242.452 265.39 243.331 265.582 244.132 265.93L244.132 265.93Z" fill="#AA3DD0"/>
<circle r="5.63415" transform="matrix(-1 0 0 1 231 225.366)" fill="black"/>
<rect width="13.6197" height="5.63415" rx="2.81707" transform="matrix(-0.153082 -0.988213 -0.988213 0.153082 233.823 246.069)" fill="black"/>
<rect width="13.6197" height="5.63415" rx="2.81707" transform="matrix(-0.958502 0.285087 0.285087 0.958502 241.639 239.854)" fill="black"/>
<rect width="20.9268" height="6.43902" rx="3.21951" transform="matrix(-0.606546 0.795048 0.795048 0.606546 215.712 243.878)" fill="black"/>
<rect width="17.2094" height="6.43902" rx="3.21951" transform="matrix(0.325575 0.945516 0.945516 -0.325575 217.317 249.999)" fill="black"/>
<rect width="17.258" height="6.43902" rx="3.21951" transform="matrix(-0.935678 0.352856 0.352856 0.935678 208.514 256.475)" fill="black"/>
<rect width="17.258" height="6.43902" rx="3.21951" transform="matrix(-0.256505 0.966543 0.966543 0.256505 223.19 260.781)" fill="black"/>
<rect width="15.2968" height="5.63415" rx="2.81707" transform="matrix(-0.969981 0.243179 0.243179 0.969981 223.933 229.39)" fill="black"/>
<rect width="13.2087" height="5.63415" rx="2.81707" transform="matrix(-0.694906 0.7191 0.7191 0.694906 211.203 232.61)" fill="black"/>
<rect width="12.0732" height="20.122" rx="3.21951" transform="matrix(-0.930008 -0.36754 -0.36754 0.930008 232.207 233.827)" fill="black"/>
<path fill-rule="evenodd" clip-rule="evenodd" d="M58.7121 362.146C58.5545 362.175 58.3921 362.19 58.2263 362.19C56.7282 362.19 55.5138 360.975 55.5138 359.477C55.5138 359.04 55.6172 358.627 55.801 358.261C56.5464 358.351 57.2975 358.729 57.8766 359.372C58.6113 360.188 58.892 361.235 58.7121 362.146L58.7121 362.146ZM58.2941 362.597C59.9796 362.597 61.3457 361.245 61.3457 359.579C61.3457 357.912 59.9794 356.561 58.2941 356.561C56.6088 356.561 55.2426 357.912 55.2426 359.579C55.2426 361.245 56.6088 362.597 58.2941 362.597ZM60.1688 359.447C60.6697 359.238 60.8432 358.62 60.5564 358.067C60.2696 357.515 59.6311 357.237 59.1303 357.447C58.6295 357.657 58.4559 358.275 58.7427 358.827C59.0295 359.379 59.668 359.657 60.1688 359.447Z" fill="#AA3DD0"/>
<rect x="53.9269" y="341.841" width="1.60976" height="33.4967" rx="0.804878" transform="rotate(-88.828 53.9269 341.841)" fill="black"/>
<rect x="97.787" y="367.804" width="1.60976" height="29.2724" rx="0.804878" transform="rotate(159.072 97.787 367.804)" fill="black"/>
<circle r="5.63415" transform="matrix(-1 0 0 1 91.462 330)" fill="black"/>
<rect width="13.3121" height="5.63415" rx="2.81707" transform="matrix(-0.999163 -0.0409001 -0.0409001 0.999163 81.6517 349.862)" fill="black"/>
<rect width="26.3451" height="6.43902" rx="3.21951" transform="matrix(0.108331 0.994115 0.994115 -0.108331 96.2913 354.039)" fill="black"/>
<rect width="17.629" height="6.43902" rx="3.21951" transform="matrix(0.279024 0.960284 0.960284 -0.279024 100.316 351.114)" fill="black"/>
<rect width="16.3697" height="6.43902" rx="3.21951" transform="matrix(0.687906 0.7258 0.7258 -0.687906 103.535 365.015)" fill="black"/>
<rect width="20.0013" height="5.63415" rx="2.81707" transform="matrix(-0.682559 0.73083 0.73083 0.682559 89.8209 337.582)" fill="black"/>
<rect width="13.8731" height="5.63415" rx="2.81707" transform="matrix(-0.682559 0.73083 0.73083 0.682559 103.346 330)" fill="black"/>
<rect width="12.0732" height="20.122" rx="3.21951" transform="matrix(-0.910774 0.412904 0.412904 0.910774 99.2381 334.024)" fill="black"/>
<path d="M110.446 334.214C110.852 334.031 111.032 333.554 110.849 333.149C110.666 332.744 110.189 332.564 109.784 332.746L63.2199 353.773C62.8147 353.956 62.6346 354.433 62.8175 354.838C63.0005 355.243 63.4772 355.423 63.8824 355.24L110.446 334.214Z" fill="black"/>
<path d="M199.908 348.308C201.496 346.44 203.457 345.506 205.792 345.6C203.457 342.051 198.414 341.584 195.426 344.759C195.892 345.133 196.359 347.654 199.908 348.308Z" fill="#AA3DD0"/>
<path d="M201.185 348.702C202.025 351.036 201.838 353.184 200.624 355.145H200.718C204.921 354.772 207.816 350.662 206.602 346.647C205.947 346.927 203.519 345.993 201.185 348.702H201.185Z" fill="#AA3DD0"/>
<path d="M199.979 349.351C197.551 348.977 195.776 347.67 194.656 345.615C192.788 349.444 194.936 354.02 199.045 355.048C199.232 354.394 201.287 352.713 199.979 349.351H199.979Z" fill="#AA3DD0"/>
<circle cx="240.625" cy="328.215" r="5.63415" transform="rotate(36.1616 240.625 328.215)" fill="black"/>
<rect x="239.047" y="353.098" width="20.9268" height="6.43902" rx="3.21951" transform="rotate(88.8215 239.047 353.098)" fill="black"/>
<rect x="235.463" y="355.945" width="33.2005" height="6.43902" rx="3.21951" transform="rotate(160.421 235.463 355.945)" fill="black"/>
<rect x="236.452" y="368.501" width="17.258" height="6.43902" rx="3.21951" transform="rotate(34.2191 236.452 368.501)" fill="black"/>
<rect x="243.957" y="335.634" width="15.2968" height="5.63415" rx="2.81707" transform="rotate(50.2359 243.957 335.634)" fill="black"/>
<rect x="252.334" y="345.745" width="13.2087" height="5.63415" rx="2.81707" transform="rotate(82.1419 252.334 345.745)" fill="black"/>
<rect x="234.658" y="334.334" width="12.0732" height="20.122" rx="3.21951" transform="rotate(14.5977 234.658 334.334)" fill="black"/>
<path d="M79.6873 114.693C78.8874 115.028 78.1827 115.556 77.636 116.229C77.8501 116.663 78.0955 117.08 78.3703 117.479C79.0798 116.704 79.5388 115.733 79.6873 114.693V114.693Z" fill="#AA3DD0"/>
<path d="M76.5176 118.778C77.1082 118.533 77.6489 118.182 78.1125 117.742C77.8477 117.36 77.6067 116.962 77.3908 116.55C76.9306 117.214 76.6316 117.977 76.5176 118.778V118.778Z" fill="#AA3DD0"/>
<path d="M84.4971 115.108C83.8465 114.694 83.1121 114.429 82.3468 114.333C81.5816 114.237 80.8045 114.312 80.0717 114.553C79.9414 115.762 79.4195 116.895 78.5851 117.78C78.9269 118.256 79.2986 118.71 79.6982 119.139C80.8564 117.869 82.5775 116.213 84.497 115.108L84.4971 115.108Z" fill="#AA3DD0"/>
<path d="M79.451 119.409C79.0461 118.977 78.669 118.519 78.3217 118.04C77.7873 118.538 77.1603 118.926 76.4762 119.182C76.4635 119.295 76.4635 119.409 76.4635 119.525C76.4607 120.478 76.7204 121.415 77.214 122.231C77.9014 121.245 78.6484 120.303 79.451 119.409L79.451 119.409Z" fill="#AA3DD0"/>
<path d="M85.7547 118.377C86.1132 118.378 86.4708 118.413 86.8227 118.482C86.5654 117.224 85.8554 116.104 84.8274 115.335C82.879 116.418 81.1201 118.112 79.9457 119.4C80.3683 119.832 80.8191 120.235 81.2951 120.607C81.8153 119.916 82.4888 119.355 83.2627 118.968C84.0365 118.581 84.8896 118.379 85.7547 118.377L85.7547 118.377Z" fill="#AA3DD0"/>
<path d="M79.7001 119.671C78.8821 120.58 78.1235 121.541 77.4288 122.548C78.1042 123.498 79.0766 124.196 80.1927 124.533C80.1746 124.352 80.1602 124.154 80.1602 123.968C80.16 122.877 80.4805 121.811 81.082 120.901C80.5947 120.522 80.133 120.111 79.7002 119.671L79.7001 119.671Z" fill="#AA3DD0"/>
<path d="M85.7544 118.738C84.9453 118.739 84.1473 118.927 83.4232 119.288C82.6992 119.65 82.0688 120.174 81.5816 120.82C82.7997 121.718 84.1638 122.398 85.6136 122.831C85.6464 122.843 85.6752 122.864 85.6966 122.891C86.1637 122.339 86.5105 121.696 86.7149 121.003C86.9193 120.309 86.9768 119.581 86.8836 118.864C86.5129 118.781 86.1342 118.739 85.7543 118.738L85.7544 118.738Z" fill="#AA3DD0"/>
<path d="M80.5226 123.97C80.524 124.191 80.539 124.412 80.5677 124.632C81.4403 124.826 82.3481 124.792 83.2039 124.534C84.0597 124.275 84.8348 123.802 85.4549 123.158C83.9883 122.714 82.6076 122.024 81.3722 121.117C80.8171 121.965 80.5218 122.956 80.5225 123.97L80.5226 123.97Z" fill="#AA3DD0"/>
<circle cx="107.854" cy="130.39" r="5.63415" fill="black"/>
<rect x="103.682" y="152.881" width="16.7608" height="6.43902" rx="3.21951" transform="rotate(104.05 103.682 152.881)" fill="black"/>
<rect x="108.644" y="152.122" width="16.7608" height="6.43902" rx="3.21951" transform="rotate(86.0549 108.644 152.122)" fill="black"/>
<rect x="99.0338" y="162.585" width="14.812" height="6.43902" rx="3.21951" transform="rotate(61.668 99.0338 162.585)" fill="black"/>
<rect x="107.422" y="162.585" width="10.9115" height="6.43902" rx="3.21951" transform="rotate(33.9164 107.422 162.585)" fill="black"/>
<rect x="88.6412" y="135.219" width="13.6098" height="5.63415" rx="2.81707" transform="rotate(47.1282 88.6412 135.219)" fill="black"/>
<rect x="89.6456" y="123.732" width="21.5971" height="5.63415" rx="2.81707" transform="rotate(47.1282 89.6456 123.732)" fill="black"/>
<rect x="90.9512" y="145.872" width="14.9996" height="5.63415" rx="2.81707" transform="rotate(-37.0734 90.9512 145.872)" fill="black"/>
<rect x="99.0723" y="135.885" width="12.0732" height="20.122" rx="3.21951" transform="rotate(7.87682 99.0723 135.885)" fill="black"/>
<line x1="45.4756" y1="139.646" x2="45.4756" y2="117.11" stroke="black" stroke-width="0.804878" stroke-linecap="round"/>
<line x1="0.402439" y1="-0.402439" x2="18.183" y2="-0.402439" transform="matrix(-0.130134 -0.991496 0.994767 -0.102172 53.9308 137.549)" stroke="black" stroke-width="0.804878" stroke-linecap="round"/>
<line x1="0.402439" y1="-0.402439" x2="18.183" y2="-0.402439" transform="matrix(-0.130134 -0.991496 0.994767 -0.102172 58.7601 137.549)" stroke="black" stroke-width="0.804878" stroke-linecap="round"/>
<line x1="0.402439" y1="-0.402439" x2="18.183" y2="-0.402439" transform="matrix(0.130134 -0.991496 -0.994767 -0.102172 66.8049 137.549)" stroke="black" stroke-width="0.804878" stroke-linecap="round"/>
<line x1="0.402439" y1="-0.402439" x2="18.183" y2="-0.402439" transform="matrix(0.130134 -0.991496 -0.994767 -0.102172 61.9756 137.549)" stroke="black" stroke-width="0.804878" stroke-linecap="round"/>
<line x1="45.4756" y1="128.378" x2="51.9146" y2="128.378" stroke="black" stroke-width="0.804878" stroke-linecap="round"/>
<line x1="53.5244" y1="137.232" x2="67.2074" y2="137.232" stroke="black" stroke-width="0.804878" stroke-linecap="round"/>
<line x1="52.7196" y1="130.793" x2="68.0123" y2="130.793" stroke="black" stroke-width="0.804878" stroke-linecap="round"/>
<line x1="51.9146" y1="125.159" x2="68.817" y2="125.159" stroke="black" stroke-width="0.804878" stroke-linecap="round"/>
<line x1="51.1097" y1="119.524" x2="69.6219" y2="119.524" stroke="black" stroke-width="0.804878" stroke-linecap="round"/>
</svg>
