<svg width="260" height="240" viewBox="0 0 260 240" fill="none" xmlns="http://www.w3.org/2000/svg">
<rect x="124.351" y="117.481" width="1.85306" height="3.08843" fill="#AA3DD0"/>
<rect x="179.325" y="117.172" width="1.85306" height="3.08843" fill="#AA3DD0"/>
<ellipse cx="152.764" cy="120.569" rx="28.4135" ry="5.25032" fill="#AA3DD0"/>
<path d="M180.869 117.481C180.869 117.721 180.738 117.998 180.393 118.309C180.05 118.62 179.525 118.934 178.821 119.241C177.415 119.856 175.361 120.416 172.799 120.889C167.681 121.835 160.597 122.422 152.764 122.422C144.931 122.422 137.847 121.835 132.729 120.889C130.167 120.416 128.113 119.856 126.707 119.241C126.003 118.934 125.478 118.62 125.135 118.309C124.79 117.998 124.659 117.721 124.659 117.481C124.659 117.24 124.79 116.963 125.135 116.652C125.478 116.341 126.003 116.028 126.707 115.72C128.113 115.106 130.167 114.545 132.729 114.072C137.847 113.126 144.931 112.539 152.764 112.539C160.597 112.539 167.681 113.126 172.799 114.072C175.361 114.545 177.415 115.106 178.821 115.72C179.525 116.028 180.05 116.341 180.393 116.652C180.738 116.963 180.869 117.24 180.869 117.481Z" fill="white" stroke="#AA3DD0" stroke-width="0.617685"/>
<rect x="148.749" y="122.731" width="8.02991" height="49.106" fill="#AA3DD0"/>
<path d="M132.042 185.271L152.919 169.201L173.795 185.271H132.042Z" stroke="#AA3DD0" stroke-width="4.63264"/>
<path d="M129.292 123.657L152.61 141.879L175.927 123.657" stroke="#AA3DD0" stroke-width="4.63264" stroke-linecap="round"/>
<path d="M122.575 156.776C123.091 159.377 123.602 161.955 124.118 164.555C108.908 174.699 106.03 177.88 106.467 178.781C106.575 179.001 107.149 179.616 115.67 176.993C124.108 174.385 130.8 171.551 135.408 169.383C133.5 164.212 131.571 159.045 129.663 153.875C127.295 154.851 124.927 155.827 122.575 156.776Z" fill="white" stroke="#AA3DD0" stroke-width="0.344636"/>
<path d="M122.875 162.607C123.39 165.208 123.626 164.949 123.626 164.949C108.416 175.092 105.483 175.095 106.257 178.652C106.8 180.842 109.473 180.867 117.994 178.244C126.432 175.635 137.103 172.458 137.034 170.451C136.881 166.048 135.507 163.397 132.775 158.734C131.385 161.018 125.866 162.757 122.875 162.607Z" fill="#AA3DD0"/>
<path d="M148.784 168.166C150.067 170.477 151.339 172.767 152.622 175.077C141.254 189.51 139.488 193.44 140.178 194.159C140.347 194.334 141.081 194.739 148.383 189.562C155.61 184.426 161.109 179.625 164.829 176.113C161.438 171.797 158.029 167.492 154.638 163.176C152.684 164.85 150.73 166.523 148.784 168.166Z" fill="white" stroke="#AA3DD0" stroke-width="0.344636"/>
<path d="M150.847 173.616C152.13 175.927 152.274 175.606 152.274 175.606C140.906 190.039 138.118 190.964 139.938 194.103C141.123 196.014 143.672 195.196 150.974 190.02C158.201 184.883 167.379 178.503 166.7 176.616C165.212 172.478 163.098 170.39 159.078 166.817C158.454 169.426 153.736 172.817 150.847 173.616Z" fill="#AA3DD0"/>
<path d="M131.811 37.8214C130.312 37.9782 129.386 39.1432 127.556 41.5627C122.617 48.0597 119.045 53.7726 118.736 54.2654C118.097 55.2736 115.914 58.3204 111.526 64.4142C103.434 75.6831 101.56 77.7666 102.266 80.7014C103.081 84.1291 106.764 87.176 109.476 86.6831C111.063 86.3919 112.011 84.9357 113.444 82.4937C115.297 79.3124 117.678 75.011 120.213 69.6565C126.828 65.0863 131.172 60.2919 133.884 56.8194C139.396 49.7624 139.22 46.7155 139.021 45.4609C138.404 41.4731 134.832 37.5301 131.811 37.8214Z" fill="white" stroke="#AA3DD0" stroke-width="0.586204"/>
<path opacity="0.09" d="M136.442 40.6442C135.361 40.7786 135.119 43.9599 134.7 45.9314C133.244 52.7421 127.975 53.4366 119.243 63.5405C115.583 67.7971 112.981 71.7401 110.578 75.4367C108.241 79.0212 106.411 82.1577 105.088 84.5324C105.308 84.9581 105.882 85.8542 106.962 86.3023C108.417 86.8848 109.828 86.2351 110.291 86.0111C112.033 85.1821 112.342 83.9051 115.208 78.9764C117.038 75.8175 117.016 76.1536 117.81 74.5629C119.265 71.6281 119.155 70.7544 120.412 69.2757C121.514 67.9539 122.308 68.0212 124.447 66.3409C125.549 65.4896 127.49 63.9661 129.65 61.793C130.29 61.1657 132.87 58.5221 135.582 54.4447C137.72 51.241 138.228 49.7176 138.47 48.8663C139.352 45.7746 138.801 43.9599 138.624 43.4447C138.228 42.3021 137.279 40.5322 136.442 40.6442Z" fill="#E1CEED"/>
<path d="M118.758 97.0524C115.341 104.222 119.634 99.5568 119.791 106.239C121.37 112.254 125.91 111.128 125.416 115.496C124.921 119.791 131.743 126.24 134.038 138.949C135.611 147.669 137.318 154.171 138.353 157.85C139.505 161.96 140.628 165.405 141.534 168.05C142.57 168.601 146.422 170.427 150.988 168.489C156.377 166.18 158.646 160.357 159.04 159.307C157.441 155.568 155.855 151.459 154.345 147.001C151.585 138.841 145.458 130.349 145.458 123.183C145.458 110.189 150.014 111.437 153.065 100.892C153.65 90.6474 141.625 90.8827 140.504 88.6975C137.976 83.8261 123.499 93.6919 118.758 97.0524Z" fill="white" stroke="#AA3DD0" stroke-width="0.586204"/>
<path d="M139.793 35.5138C139.705 35.5138 139.352 35.5362 138.867 35.581C137.875 35.6706 136.309 35.8498 134.457 36.3427C132.958 36.7236 131.767 37.1716 131.062 37.4629C129.805 40.0841 128.217 44.1391 127.622 49.2695C126.762 56.573 128.482 61.2777 129.651 68.5588C130.444 73.5547 131.106 80.791 130.202 89.954C132.098 91.7463 137.037 95.9357 144.578 97.0111C155.228 98.5569 163.055 92.732 164.665 91.4774C165.15 88.3858 165.613 85.2493 166.076 82.068C166.076 82.068 166.759 77.2737 167.421 72.0089C168.986 59.7542 170.596 43.243 170.794 41.1818C165.128 35.357 160.431 34.0128 157.168 33.9008C152.934 33.7439 143.233 35.3346 139.793 35.5138Z" fill="white" stroke="#AA3DD0" stroke-width="0.488503"/>
<path opacity="0.17" d="M146.32 40.3717C147.488 41.6039 150.862 43.4894 152.273 46.0434C159.064 58.2757 154.853 72.5466 152.978 78.8868C151.678 83.3226 149.208 89.842 144.313 96.8543C146.187 97.1903 148.525 97.3695 151.192 97.1007C157.565 96.451 162.173 93.449 164.488 91.6791C166.076 80.9927 167.553 70.0374 168.876 58.8357C169.559 53.0557 170.177 47.3652 170.772 41.6972C169.78 40.4426 168.148 38.6279 165.701 37.0821C163.76 35.8499 160.96 34.0576 157.476 34.2368C152.008 34.5505 146.827 39.61 146.32 40.3717Z" fill="#E1CEED"/>
<path d="M102.039 78.987C101.615 79.3464 101.88 79.6985 102.527 81.6878C102.97 83.0329 102.896 83.1034 103.148 83.3352C103.826 83.9997 104.554 83.7638 105.299 84.5417C105.771 85.0499 105.559 85.2803 106.061 85.6425C106.671 86.0923 107.533 86.1845 108.168 86.1841C108.279 86.373 108.553 86.6426 109.082 86.7573C110.107 86.9302 111.982 86.4856 112.723 85.7806C113.136 85.4023 113.031 84.9281 112.789 84.0244C112.581 83.1775 112.431 83.2171 112.113 82.2826C111.885 81.4992 111.935 81.2895 111.607 81.0269C111.236 80.6886 110.817 80.7628 110.222 80.5347C109.398 80.2139 109.478 79.8582 108.814 79.4154C107.779 78.6343 106.239 78.5683 105.41 78.5328C104.57 78.4784 102.782 78.3834 102.039 78.987Z" fill="white"/>
<path d="M101.641 78.9975C100.639 82.6014 104.391 83.683 110.064 81.3474C110.715 81.0806 110.727 80.5102 110.075 80.7769C105.054 82.8458 100.898 82.0421 102.615 78.6892C102.684 78.3146 101.753 78.5971 101.641 78.9975Z" fill="#AA3DD0"/>
<path d="M102.011 79.2345C105.821 78.6425 109.037 79.0012 110.38 80.698C110.577 80.9367 111.062 80.5891 110.907 80.3246C109.498 78.5145 106.582 77.8739 102.515 78.5193C101.936 78.6142 101.432 79.3294 102.011 79.2345Z" fill="#AA3DD0"/>
<path d="M102.111 81.8181C102.301 84.6995 106.446 85.5116 111.791 82.9133C112.42 82.6087 112.432 82.0383 111.802 82.3428C107.044 84.6623 102.937 84.3469 102.773 81.7061C102.745 81.3642 102.073 81.4573 102.111 81.8181Z" fill="#AA3DD0"/>
<path d="M104.653 84.5231C104.746 86.7465 107.988 86.9591 112.009 84.9579C112.639 84.6534 112.65 84.0829 112.021 84.3875C108.544 86.1356 105.407 86.1086 105.308 84.1705C105.323 83.8028 104.668 84.1554 104.653 84.5231Z" fill="#AA3DD0"/>
<path d="M107.474 86.4764C107.78 87.3921 109.322 87.5594 111.203 86.8295C112.004 86.5231 112.952 85.9744 113.34 85.3555C113.758 84.692 113.237 84.3934 112.708 84.2786C112.351 84.162 111.881 84.5018 112.238 84.6184C112.573 84.6972 113.472 85.0665 112.238 85.7412C111.783 86.1453 110.84 86.4088 110.379 86.5088C109.297 86.7295 108.126 86.6622 107.954 86.0747C107.873 85.7396 107.361 86.1861 107.474 86.4764Z" fill="#AA3DD0"/>
<path d="M112.382 84.7068C113.318 84.1391 113.458 83.4913 113.375 83.0549C113.29 82.5171 112.854 82.1669 112.121 82.0987C111.679 82.0337 111.647 82.6939 112.121 82.7142C112.552 82.7603 112.44 82.8093 112.584 83.0549C112.662 83.1871 112.638 83.9626 112.127 84.2723C111.53 84.6335 111.785 85.0681 112.382 84.7068Z" fill="#AA3DD0"/>
<path d="M112.554 82.2461C113.006 81.6392 112.729 81.1669 112.401 80.9042C112.019 80.5471 111.371 80.4272 110.501 80.5189C109.953 80.5691 109.449 81.2843 109.997 81.2341C110.545 81.1838 111.375 80.9042 111.813 81.2341C112.02 81.3903 112.254 82.0421 111.653 82.3824C111.338 82.8294 112.196 82.7188 112.554 82.2461Z" fill="#AA3DD0"/>
<path d="M164.775 91.3206C165.128 94.3002 165.26 99.0721 163.518 104.449C162.768 106.734 161.511 110.475 158.204 113.993C156.087 116.233 152.383 120.176 146.981 120.019C142.615 119.885 139.529 117.174 138.404 116.076C138.073 120.288 136.64 124.855 136.728 129.761C136.861 137.311 135.758 144.413 136.728 150.372C134.082 155.346 132.098 158.15 126.74 157.993C119.861 157.791 118.317 154.92 117.876 154.293C116.289 139.126 115.054 128.26 115.341 118.896C115.583 111.256 114.084 108.254 117.876 101.197C122.308 96.1786 120.963 97.3883 126.74 94.5466C138.029 92.5079 145.967 96.3802 146.981 97.3883C148.613 97.5003 156.903 96.2269 160.343 94.5466C162.371 93.5385 163.827 92.2839 164.775 91.3206Z" fill="white" stroke="#AA3DD0" stroke-width="0.586204"/>
<path d="M138.757 109.557C138.139 112.357 137.809 115.203 137.742 118.07C137.742 118.496 138.404 118.496 138.404 118.07C138.47 115.247 138.779 112.469 139.374 109.736C139.484 109.31 138.845 109.131 138.757 109.557Z" fill="#AA3DD0"/>
<path d="M138.911 113.142C139.22 112.447 139.506 111.753 139.815 111.036C139.992 110.632 139.418 110.296 139.242 110.7C138.933 111.394 138.647 112.089 138.338 112.806C138.161 113.186 138.735 113.522 138.911 113.142Z" fill="#AA3DD0"/>
<path opacity="0.09" d="M157.741 95.3533C157.785 96.4286 157.785 97.9072 157.609 99.6771C157.19 103.822 156.837 107.339 154.588 108.862C151.964 110.655 147.973 108.952 146.496 108.302C141.381 106.107 140.785 102.433 137.853 102.164C134.391 101.85 130.797 106.555 129.077 110.251C124.822 119.325 129.651 126.427 130.18 142.714C130.378 149.256 129.805 154.543 129.364 157.769C130.51 157.635 132.01 157.299 133.619 156.514C136.839 152.501 136.133 151.157 136.839 149.812C136.684 148.58 136.596 141.814 136.287 139.507C136.287 134.578 136.53 135.205 136.287 132.786C136.287 129.649 136.64 132.472 136.839 124.497C136.905 122.144 138.139 120.243 138.272 116.368C138.867 116.793 139.683 117.331 140.741 117.891C141.469 118.272 144.027 119.639 146.364 119.975C150.09 120.512 153.265 118.384 154.875 117.331C159.262 114.396 161.159 110.274 162.415 107.429C165.216 101.133 165.304 95.2188 165.017 91.5447C164.246 92.396 162.812 93.7626 160.63 94.6139C159.527 95.062 158.535 95.2636 157.741 95.3533Z" fill="#E1CEED"/>
<path d="M128.879 74.1596C129.077 73.5771 130.4 73.5771 130.753 73.5771C132.296 73.5771 133.531 74.6077 133.928 75.4814C134.038 75.7279 134.06 75.9295 134.06 76.0415C134.104 76.6464 133.752 77.2513 133.443 77.4529C132.296 78.1922 128.482 75.3022 128.879 74.1596Z" fill="white" stroke="#AA3DD0" stroke-width="0.586204"/>
<path d="M169.096 39.6585C172.602 41.854 172.183 48.0598 171.654 55.8337C171.059 64.4142 169.03 70.4407 168.258 72.6363C166.891 76.4224 165.37 79.4917 164.113 81.6872C159.571 83.6587 152.339 85.9887 143.387 85.5854C140.146 85.4286 137.257 84.9581 134.766 84.3532C131.789 86.4367 129.386 86.4143 128.35 86.3023C126.74 86.1455 124.623 85.4062 124.645 84.6893C124.645 84.1964 125.682 83.7931 126.145 83.6139C127.269 83.1659 128.261 83.2107 128.261 83.1659C128.261 83.121 127.446 83.1659 126.586 83.0762C126.012 83.009 124.888 82.9194 123.918 82.4041C123.565 82.2249 121.823 81.3512 121.492 79.6485C121.184 78.1027 122.11 76.3552 123.808 75.3247C125.373 74.899 128.129 74.3837 131.459 74.9886C133.928 75.4367 135.824 76.3328 137.081 77.0273C143.012 75.5487 148.943 74.0477 154.853 72.5691C154.963 71.3145 155.161 69.4774 155.404 67.2146C156.176 60.068 156.55 56.4834 157.146 53.459C158.601 46.0211 159.549 41.1595 163.253 39.4569C164.907 38.7176 167.31 38.5383 169.096 39.6585Z" fill="white" stroke="#AA3DD0" stroke-width="0.586204"/>
<path opacity="0.18" d="M165.635 39.1432C166.362 43.7359 167.024 50.5241 166.428 58.6789C165.767 67.6627 165.392 72.1434 162.261 75.8623C157.565 81.4408 147.444 84.2412 139.573 81.9785C136.53 81.1047 132.142 79.1108 126.762 80.231C125.219 80.5446 122.859 81.2839 122.904 81.8664C122.948 82.3145 124.535 82.7626 125.66 82.897C126.52 82.9866 127.071 82.9194 127.115 83.0986C127.247 83.5243 124.756 84.2412 124.822 84.9805C124.866 85.6078 126.828 86.1007 128.438 86.1455C129.673 86.1903 131.855 86.0335 134.501 84.4876C136.839 85.0477 139.506 85.5182 142.439 85.6974C151.81 86.2799 159.483 83.7931 164.268 81.6872C165.238 79.9173 166.473 77.4306 167.663 74.3389C171.345 64.8399 171.764 56.9315 171.83 54.7808C171.963 51.5547 171.853 47.0292 170.816 41.6748C170.662 41.3387 170 40.0617 168.479 39.3896C167.2 38.8295 166.032 39.0536 165.635 39.1432Z" fill="#E1CEED"/>
<path opacity="0.21" d="M159.748 81.7994C156.33 82.3371 154.346 82.8971 152.802 83.2108C146.54 84.555 141.469 83.9501 139.683 83.7261C137.853 83.5244 136.353 83.2108 135.317 82.9868C134.06 83.502 132.186 84.1517 129.849 84.4206C126.85 84.7566 124.712 84.3086 124.645 84.6894C124.579 85.0479 126.409 85.9888 128.35 86.2128C131.304 86.5489 133.708 85.0927 134.788 84.331C136.155 84.7118 138.117 85.2047 140.521 85.4959C153.287 87.0866 164.51 81.7098 164.378 81.2169C164.356 81.0601 162.812 81.3065 159.748 81.7994Z" fill="#3D3D3D"/>
<path d="M122.815 81.8442C124.888 80.9481 127.137 80.7688 129.32 81.2841C129.739 81.3737 129.915 80.724 129.496 80.6344C127.115 80.0743 124.734 80.276 122.485 81.2617C122.088 81.4409 122.44 82.0234 122.815 81.8442Z" fill="#AA3DD0"/>
<path d="M121.647 79.6934C124.094 78.7972 126.652 78.506 129.232 78.842C129.651 78.8868 129.651 78.2147 129.232 78.1699C126.608 77.8339 123.962 78.1251 121.47 79.0437C121.073 79.2005 121.25 79.8502 121.647 79.6934Z" fill="#AA3DD0"/>
<path d="M122.264 77.4083C124.689 76.6914 127.159 76.4226 129.673 76.6018C130.092 76.6242 130.092 75.9521 129.673 75.9297C127.115 75.7505 124.557 76.0417 122.088 76.7586C121.669 76.8706 121.845 77.5203 122.264 77.4083Z" fill="#AA3DD0"/>
<path d="M133.928 3.83547C127.776 8.89863 128.019 19.2042 130.444 25.858C131.966 30.0698 135.03 31.8361 136.618 33.4268C137.015 35.1294 136.794 37.9782 137.191 39.6809C139.132 40.1065 140.697 40.9767 143.674 40.7079C150.377 40.0806 150.95 38.7364 153.045 37.0113C150.288 27.2658 156.131 27.0418 153.927 20.4328C153.728 19.0662 157.366 18.3941 157.013 15.8401C156.109 9.14149 153.221 12.3228 152.824 11.2474C152.648 10.7993 148.988 2.31204 143.145 1.16947C138.404 0.250931 134.501 3.3426 133.928 3.83547Z" fill="white" stroke="#AA3DD0" stroke-width="0.586204"/>
<path d="M136.016 16.3076C135.486 18.7496 135.156 21.2139 135.023 23.7007C135.001 23.9696 135.31 24.104 135.53 23.992C136.39 23.5439 137.61 23.5693 138.492 23.1213C138.867 22.9196 138.536 22.2475 138.161 22.4492C137.302 22.8972 136.082 22.9614 135.2 23.4095C135.376 23.4991 135.53 23.6111 135.707 23.7007C135.861 21.2587 136.17 18.8616 136.677 16.4868C136.743 16.0612 136.104 15.8819 136.016 16.3076Z" fill="#AA3DD0"/>
<path d="M132.588 16.5482C132.643 16.9984 132.433 17.5423 132.207 17.5555C131.931 17.5693 131.536 16.8032 131.706 16.2397C131.763 16.0686 131.917 15.7959 132.094 15.7835C132.341 15.7801 132.554 16.208 132.588 16.5482Z" fill="#AA3DD0" stroke="#AA3DD0" stroke-width="0.586204"/>
<path d="M131.601 13.6294C132.373 13.2261 133.299 13.2934 134.005 13.8534C134.335 14.1223 134.798 13.6518 134.468 13.383C133.542 12.6213 132.329 12.4868 131.271 13.0469C130.896 13.2485 131.227 13.831 131.601 13.6294Z" fill="#AA3DD0"/>
<path d="M139.525 13.7898C140.627 13.0505 142.127 13.297 142.876 14.4171C143.119 14.7756 143.692 14.4395 143.45 14.0811C142.502 12.6921 140.605 12.2664 139.194 13.2074C138.841 13.4538 139.172 14.0363 139.525 13.7898Z" fill="#AA3DD0"/>
<path d="M140.796 25.8405C139.483 27.2675 137.183 28.0708 135.623 27.5666C135.12 27.4071 134.418 28.1051 134.921 28.2647C136.882 28.8772 139.838 27.9649 141.521 26.1432C141.937 25.6776 141.212 25.3749 140.796 25.8405Z" fill="#AA3DD0"/>
<path opacity="0.24" d="M151.567 22.6096C150.399 25.2497 149.892 27.8709 149.627 27.8261C149.958 28.4758 142.792 32.0827 141.248 34.8831C147.643 33.6509 149.473 30.7609 148.635 33.6509C147.885 36.2273 146.959 39.207 145.879 40.1479C147.202 39.9015 147.929 40.1031 149.848 39.1398C152.074 38.0196 152.008 37.93 153.045 36.8994C151.413 32.2171 155.448 23.435 153.816 18.7527C153.816 18.8423 153.706 18.6407 151.567 22.6096Z" fill="#E1CEED"/>
<path d="M140.948 16.7671C140.987 17.219 140.757 17.7546 140.53 17.7591C140.254 17.7624 139.888 16.9818 140.078 16.4252C140.142 16.2564 140.306 15.9898 140.483 15.9841C140.73 15.9901 140.907 16.4153 140.948 16.7671Z" fill="#AA3DD0" stroke="#AA3DD0" stroke-width="0.586204"/>
<ellipse cx="131.216" cy="17.7444" rx="4.07908" ry="3.69656" stroke="#AA3DD0" stroke-width="0.390803"/>
<ellipse cx="140.477" cy="17.7444" rx="4.07908" ry="3.69656" stroke="#AA3DD0" stroke-width="0.390803"/>
<path d="M135.648 18.2409C135.736 18.1289 135.912 18.0841 136.023 18.1737C136.155 18.2857 136.353 18.3081 136.486 18.1737C136.596 18.0616 136.618 17.8152 136.486 17.7032C136.111 17.3671 135.516 17.3671 135.185 17.7704C135.075 17.9048 135.053 18.1065 135.185 18.2409C135.295 18.3753 135.538 18.3753 135.648 18.2409Z" fill="#AA3DD0"/>
<path d="M127.534 18.3754C127.953 18.1513 128.372 17.9049 128.769 17.6361C129.121 17.412 128.791 16.8295 128.438 17.0536C128.041 17.3224 127.622 17.5688 127.203 17.7929C126.806 17.9945 127.159 18.577 127.534 18.3754Z" fill="#AA3DD0"/>
<path d="M145.324 17.0763C148.012 15.4256 150.743 13.7808 153.432 12.13C154.045 11.7482 153.523 11.2659 152.909 11.6478C150.221 13.2986 147.489 14.9433 144.801 16.5941C144.187 16.976 144.71 17.4582 145.324 17.0763Z" fill="#AA3DD0"/>
<rect x="193.027" y="86.3105" width="8.64759" height="7.10338" fill="#AA3DD0"/>
<path d="M181.949 112.31L59.8251 113.909L80.2549 93.4792L201.147 93.4792L181.949 112.31Z" fill="#AA3DD0" stroke="#AA3DD0" stroke-width="0.617685"/>
<rect x="6.17676" y="140.358" width="1.85306" height="3.08843" fill="#AA3DD0"/>
<rect x="61.1508" y="140.049" width="1.85306" height="3.08843" fill="#AA3DD0"/>
<ellipse cx="34.5903" cy="143.447" rx="28.4135" ry="5.25032" fill="#AA3DD0"/>
<path d="M62.6949 140.358C62.6949 140.599 62.564 140.876 62.2195 141.187C61.8759 141.497 61.3515 141.811 60.6473 142.119C59.2411 142.733 57.1872 143.293 54.6255 143.767C49.5072 144.713 42.4235 145.299 34.5903 145.299C26.757 145.299 19.6733 144.713 14.555 143.767C11.9933 143.293 9.93944 142.733 8.53327 142.119C7.82907 141.811 7.30462 141.497 6.96101 141.187C6.6165 140.876 6.4856 140.599 6.4856 140.358C6.4856 140.117 6.6165 139.84 6.96101 139.529C7.30462 139.219 7.82907 138.905 8.53327 138.597C9.93944 137.983 11.9933 137.423 14.555 136.949C19.6733 136.003 26.757 135.417 34.5903 135.417C42.4235 135.417 49.5072 136.003 54.6255 136.949C57.1872 137.423 59.2411 137.983 60.6473 138.597C61.3515 138.905 61.8759 139.219 62.2195 139.529C62.564 139.84 62.6949 140.117 62.6949 140.358Z" fill="white" stroke="#AA3DD0" stroke-width="0.617685"/>
<rect x="30.5753" y="145.608" width="8.02991" height="49.106" fill="#AA3DD0"/>
<rect x="122.61" y="111.636" width="8.02991" height="99.7561" fill="#AA3DD0"/>
<path d="M13.8683 208.149L34.7447 192.078L55.6211 208.149H13.8683Z" stroke="#AA3DD0" stroke-width="4.63264"/>
<path d="M105.903 226.062L126.78 209.991L147.656 226.062H105.903Z" stroke="#AA3DD0" stroke-width="4.63264"/>
<path d="M11.1183 146.535L34.4359 164.757L57.7535 146.535" stroke="#AA3DD0" stroke-width="4.63264" stroke-linecap="round"/>
<path d="M94.8146 111.945L126.008 130.166L157.201 111.945" stroke="#AA3DD0" stroke-width="4.63264" stroke-linecap="round"/>
<path d="M59.028 188.404C58.0833 190.305 57.147 192.188 56.2023 194.089C65.9554 205.445 67.5379 208.573 67.0091 209.173C66.879 209.318 66.3026 209.665 60.2005 205.678C54.1605 201.721 49.5292 197.988 46.3862 195.251C48.953 191.674 51.5353 188.105 54.1021 184.529C55.7465 185.829 57.3908 187.129 59.028 188.404Z" fill="white" stroke="#AA3DD0" stroke-width="0.344636"/>
<path d="M57.5783 192.861C56.6336 194.762 56.5043 194.507 56.5043 194.507C66.2574 205.863 68.5457 206.537 67.2001 209.12C66.3196 210.696 64.2286 210.103 58.1265 206.116C52.0865 202.159 44.4218 197.249 44.8948 195.707C45.9322 192.325 47.5565 190.581 50.6612 187.588C51.269 189.679 55.213 192.293 57.5783 192.861Z" fill="#AA3DD0"/>
<path d="M70.0601 189.666C69.6345 191.745 69.2126 193.806 68.787 195.885C81.1265 204.36 83.4583 206.978 83.1009 207.692C83.0124 207.867 82.5442 208.349 75.6236 206.06C68.7708 203.785 63.3372 201.365 59.5971 199.525C61.1608 195.41 62.7414 191.298 64.3051 187.183C66.2279 188.018 68.1506 188.853 70.0601 189.666Z" fill="white" stroke="#AA3DD0" stroke-width="0.344636"/>
<path d="M69.802 194.346C69.3764 196.425 69.1859 196.211 69.1859 196.211C81.5254 204.686 83.91 204.751 83.272 207.593C82.825 209.341 80.6519 209.305 73.7314 207.016C66.8785 204.741 58.2108 201.961 58.2725 200.349C58.4078 196.814 59.5306 194.712 61.7637 191.023C62.8876 192.888 67.37 194.403 69.802 194.346Z" fill="#AA3DD0"/>
<path d="M10.1307 118.73C7.54785 129.45 11.4402 135.478 13.2955 137.794C17.006 142.426 21.9534 143.851 36.3952 149.701C42.0338 151.988 43.071 152.469 53.5842 157.19C52.8566 160.961 51.27 166.212 49.4148 170.934C47.6687 175.388 46.7465 178.322 44.7821 181.589C46.7101 183.103 57.4578 188.897 63.3874 190.442C69.7898 192.134 75.2828 191.629 77.9747 191.243C83.686 182.038 85.1411 173.961 85.5413 169.032C86.0142 163.093 87.9525 154.576 83.6963 147.925C80.4223 142.817 81.0322 141.046 67.7908 132.791C47.8923 120.409 40.7242 118.849 30.4657 117.127C22.0625 115.731 14.6051 117.364 10.1307 118.73Z" fill="white" stroke="#AA3DD0" stroke-width="0.617685"/>
<path opacity="0.22" d="M23.736 116.741C23.5541 120.185 23.8815 125.59 27.2646 131.113C30.1021 135.775 33.8853 139.1 46.3628 145.99C57.458 152.106 70.5706 152.106 72.009 159.857C73.4474 167.607 64.7335 179.752 61.0957 189.699C60.0044 189.402 58.6948 188.957 57.3488 188.333C54.8752 187.175 45.91 183.121 44.7823 182.052C46.3829 179.261 47.3785 175.738 48.7972 172.323C51.1254 166.86 52.5204 161.46 53.4299 157.036C44.4082 152.938 45.9627 153.621 42.2521 152.106C36.7228 149.85 33.9945 148.721 31.1934 147.623C30.2476 147.266 28.1377 146.465 25.373 145.277C22.2809 143.97 20.753 143.347 19.3707 142.575C18.243 141.951 15.4055 140.318 13.1138 137.616C9.83978 133.756 9.54875 129.717 9.33048 126.777C9.18497 124.877 9.22135 122.115 10.0944 118.879C11.986 118.225 14.5325 117.513 17.5882 117.097C19.9527 116.741 22.0262 116.681 23.736 116.741Z" fill="#E1CEED"/>
<path d="M32.3875 58.8492C35.5231 57.8553 39.1758 61.689 42.3269 65.0802C45.4917 68.4965 51.8281 75.5207 54.9189 87.6344C56.184 92.6399 57.4103 97.276 56.1805 103.317C54.5948 111.211 49.9491 116.478 47.664 118.733C45.7891 122.457 44.8083 124.359 44.2313 125.389C43.823 126.133 43.5699 126.564 43.1525 127.409C42.5572 128.645 42.5047 128.967 42.1375 129.427C41.7452 129.902 41.0246 130.49 39.6153 130.77C39.5286 130.85 38.8057 131.375 37.9141 131.112C37.3714 130.953 37.0772 130.592 36.9815 130.417C36.9062 130.458 36.4022 130.667 35.8573 130.444C35.351 130.232 35.0387 129.719 35.0182 129.144C34.8084 128.998 34.5576 128.777 34.3661 128.426C33.2831 126.738 34.5992 124.198 35.3154 122.766C36.0795 121.243 37.7741 118.561 41.3454 116.158C42.7891 113.971 44.7711 110.384 45.6906 105.685C45.9963 104.216 47.8331 94.0369 42.1971 84.7757C39.8464 80.8829 34.3675 74.2373 29.7892 67.7514C29.4654 67.2771 28.5762 66.0045 28.5924 64.3034C28.6747 61.9478 30.4537 59.4806 32.3875 58.8492Z" fill="white" stroke="#AA3DD0" stroke-width="0.571457"/>
<path d="M35.1892 129.279C35.5404 129.087 35.2509 128.496 34.8746 128.702C34.5234 128.893 34.838 129.47 35.1892 129.279Z" fill="#AA3DD0"/>
<path d="M34.7492 129.128C34.7765 129.178 34.8039 129.228 34.8449 129.304C35.0342 129.591 35.4013 129.488 35.4538 129.167C35.7322 127.29 36.5533 125.573 37.8601 124.21C38.1566 123.918 37.7051 123.448 37.4087 123.74C35.9787 125.236 35.0983 127.083 34.7879 129.14C34.9909 129.094 35.1939 129.048 35.3968 129.003C35.3695 128.953 35.3421 128.902 35.3011 128.827C35.1095 128.476 34.5326 128.791 34.7492 129.128Z" fill="#AA3DD0"/>
<path d="M37.2619 130.394C37.7478 128.241 38.7263 126.276 40.1358 124.563C40.3935 124.26 39.9671 123.776 39.6843 124.093C38.1882 125.886 37.1481 127.917 36.6279 130.186C36.5663 130.61 37.1866 130.793 37.2619 130.394Z" fill="#AA3DD0"/>
<path d="M39.8821 130.723C40.3794 128.531 41.2143 126.481 42.3729 124.548C42.5782 124.208 42.0286 123.857 41.8371 124.221C40.667 126.194 39.7957 128.296 39.3006 130.551C39.1865 130.939 39.8068 131.122 39.8821 130.723Z" fill="#AA3DD0"/>
<path opacity="0.13" d="M31.8035 60.4045C31.6026 62.304 34.4849 63.8892 36.3478 65.2166C39.0771 67.178 40.851 69.9534 44.3986 75.5042C50.8304 85.5681 50.8474 97.1774 50.8382 97.9961C50.7071 108.319 46.394 116.822 45.0301 119.454C42.7082 123.909 38.9792 129.425 39.9665 130.221C40.3222 130.515 41.1774 130.114 41.5149 129.897C42.6916 129.191 42.6872 127.989 43.725 125.893C44.261 124.787 44.3453 125.002 45.358 123.278C45.9487 122.272 46.7653 120.786 47.6297 118.85C50.4987 116.114 52.2298 113.38 53.2379 111.528C54.7022 108.842 57.2226 103.139 56.7081 95.8692C56.5305 93.3949 56.0199 91.623 55.0123 88.1043C53.9478 84.4214 52.1606 78.3988 47.7603 71.881C45.763 68.9346 44.1008 67.1398 41.8822 64.8022C38.3595 61.0278 35.2654 57.8007 33.1719 58.6169C32.465 58.8722 31.8925 59.6725 31.8035 60.4045Z" fill="#E1CEED"/>
<path d="M35.5168 64.2286C37.4625 66.3596 41.5393 70.2509 41.5393 75.5013C39.995 90.3257 37.6478 91.4684 39.995 98.9733C41.0759 102.401 42.929 110.092 41.5393 115.651C37.8949 117.998 38.1657 119.372 30.2594 121.225C22.4456 123.047 14.0522 122.785 9.7284 122.291C6.17671 104.687 6.38583 91.3907 7.52855 82.8976C8.6095 74.8059 14.3919 55.9206 24.0896 53.5734C33.8181 50.3306 32.8916 60.5225 35.5168 64.2286Z" fill="white" stroke="#AA3DD0" stroke-width="0.617685"/>
<path opacity="0.12" d="M23.2177 53.8972C23.3722 55.1635 23.5884 57.0474 23.8045 59.302C25.2561 74.4044 23.5575 77.1531 24.6693 86.0477C25.287 91.1127 26.5841 100.594 33.2551 109.427C36.0347 113.102 38.9687 115.666 41.0688 117.241C37.7025 118.939 32.5757 121.07 26.0282 122.059C20.1602 122.924 13.2492 123.125 9.72842 122.6C8.74012 119.758 8.68001 113.628 8.02979 110.4C6.30027 101.815 6.72556 94.8189 6.94175 89.7538C7.34324 79.9635 8.23889 58.9622 18.9866 54.6693C20.6544 54.0208 22.1677 53.8972 23.2177 53.8972Z" fill="#E1CEED"/>
<path d="M15.0951 58.1901C11.6052 58.8696 10.1227 64.3979 8.88738 69.2467C7.65201 74.1264 5.27392 84.0711 8.60942 97.1661C9.99921 102.571 11.2346 107.605 15.5275 112.701C21.1175 119.372 28.2518 121.966 31.5873 122.924C35.2934 125.487 37.2082 126.784 38.2892 127.464C39.0613 127.958 39.5246 128.236 40.3584 128.822C41.5629 129.687 41.7791 129.965 42.3659 130.212C42.9836 130.459 43.9719 130.645 45.4543 130.181C45.5779 130.212 46.5353 130.336 47.2456 129.625C47.678 129.193 47.7707 128.699 47.7707 128.483C47.8633 128.483 48.4501 128.421 48.8516 127.927C49.2222 127.464 49.2531 126.815 48.9751 126.259C49.0987 126.012 49.2222 125.672 49.2222 125.24C49.3766 123.078 46.8132 121.348 45.3926 120.36C43.8792 119.31 40.8835 117.642 36.2508 117.21C33.7492 115.882 30.0122 113.504 26.7076 109.52C25.6575 108.284 18.6468 99.575 19.2027 87.8699C19.4189 82.9593 21.1793 73.8176 22.1676 65.2935C22.2294 64.6758 22.4147 63.0081 21.519 61.4021C20.2219 59.2093 17.257 57.7886 15.0951 58.1901Z" fill="white" stroke="#AA3DD0" stroke-width="0.617685"/>
<path d="M48.8825 126.475C48.4501 126.475 48.4192 125.765 48.8825 125.765C49.3149 125.765 49.3149 126.475 48.8825 126.475Z" fill="#AA3DD0"/>
<path d="M49.2222 126.105C49.2222 126.166 49.2222 126.228 49.2222 126.321C49.1913 126.692 48.7898 126.784 48.5736 126.506C47.3382 124.869 45.6705 123.665 43.7248 123.047C43.2924 122.924 43.4777 122.244 43.9101 122.368C46.0411 123.047 47.8324 124.344 49.1913 126.136C48.9751 126.197 48.7589 126.259 48.5427 126.321C48.5427 126.259 48.5427 126.197 48.5427 126.105C48.5427 125.672 49.2531 125.672 49.2222 126.105Z" fill="#AA3DD0"/>
<path d="M47.4927 128.606C45.9176 126.815 43.9719 125.456 41.7482 124.561C41.3467 124.406 41.5012 123.727 41.9335 123.881C44.2807 124.808 46.3191 126.197 47.9868 128.081C48.2648 128.452 47.7707 128.946 47.4927 128.606Z" fill="#AA3DD0"/>
<path d="M45.1764 130.274C43.5704 128.452 41.7174 126.939 39.6172 125.703C39.2466 125.487 39.5864 124.869 39.957 125.116C42.088 126.383 44.0028 127.927 45.6397 129.811C45.9485 130.12 45.4544 130.614 45.1764 130.274Z" fill="#AA3DD0"/>
<path opacity="0.13" d="M16.4541 59.3635C17.6277 61.0622 15.7128 64.0579 14.6319 66.2816C13.0568 69.5553 12.8097 73.107 12.3156 80.2104C11.4199 93.0891 17.4115 104.115 17.8438 104.887C23.3104 114.615 31.8035 120.453 34.4596 122.244C38.9687 125.271 45.3617 128.575 44.8367 129.841C44.6514 130.305 43.6322 130.366 43.1998 130.336C41.7174 130.274 41.0997 129.131 39.0304 127.679C37.9495 126.907 37.9804 127.154 36.1273 126.043C35.0464 125.394 33.5022 124.406 31.68 123.016C27.5415 121.904 24.484 120.206 22.5691 118.97C19.7896 117.179 14.4466 113.071 11.1728 105.906C10.061 103.466 9.62863 101.521 8.76387 97.66C7.86823 93.6142 6.44756 86.974 7.25055 78.5118C7.62115 74.6821 8.26973 72.1187 9.16537 68.7523C10.5552 63.3476 11.8214 58.6841 14.2304 58.3752C15.0334 58.2517 15.9908 58.715 16.4541 59.3635Z" fill="#E1CEED"/>
<path d="M34.3014 46.0675C34.3247 47.7031 32.6576 48.2273 31.7833 51.0128C31.1611 53.026 33.2078 57.2542 33.1046 59.1106C33.0015 60.9669 27.2962 60.5489 24.3959 59.7693C22.114 59.1541 21.0162 54.3815 20.0063 53.6353C20.3379 52.6266 20.8282 51.1454 21.4141 49.3848C23.9596 41.8863 24.4297 41.2158 25.1982 40.8257C28.2743 39.2856 34.2576 43.024 34.3014 46.0675Z" fill="white" stroke="#941FCB" stroke-width="0.463485"/>
<path d="M43.9374 23.6562C44.7364 24.5692 45.8092 25.6744 46.4052 30.8589C46.8528 34.7525 44.1699 33.3155 45.8484 42.2168C44.5603 42.142 44.3783 42.3889 43.4001 41.9505C43.0933 42.9981 42.7169 44.2265 41.6642 45.6826C39.5772 48.5723 37.6054 48.1001 35.3818 47.6487C33.6876 47.3048 30.5209 45.2463 25.8275 40.4421C23.9501 38.5204 25.2916 42.537 25.1199 42.0778C24.0418 39.0578 24.2582 37.5349 24.5382 36.4279C24.0225 36.2529 22.4027 35.7769 21.748 35.0563C20.3685 33.5396 20.8125 29.6449 22.2089 28.5059C23.2408 27.6532 25.289 27.559 26.9225 28.9252C27.1726 28.1322 27.5437 27.3553 28.2525 26.1834C28.4302 25.8956 29.762 23.7264 31.5419 22.4857C34.958 20.019 41.071 20.3849 43.9374 23.6562Z" fill="white" stroke="#941FCB" stroke-width="0.463485"/>
<path opacity="0.24" d="M32.7634 35.1043C30.6076 38.3328 30.1511 41.5522 30.1511 41.5522C29.7143 45.1636 33.0502 46.1472 33.6878 47.3049C31.71 48.2343 28.0845 49.271 26.7828 47.7048C26.1884 50.7933 29.471 57.3629 28.8766 60.4514C28.1932 60.4595 24.8035 60.1007 23.3069 59.2595C22.1619 58.6102 20.3696 53.4866 19.9638 52.9685C21.4672 51.2586 24.2968 47.5253 25.2022 42.0203C25.6336 39.3633 25.725 37.6329 25.4655 35.9179C23.4804 35.7698 21.8115 35.672 22.2053 33.4543C21.9865 32.3364 24.861 29.2413 26.3389 29.2965C27.5684 29.3565 28.0334 30.4491 28.1628 31.9079C29.0861 31.8129 30.5927 31.1393 32.7286 29.5302C34.9424 27.8716 35.868 25.7857 36.2123 24.9001C36.5153 28.8501 35.5392 31.2521 34.5912 32.7182C33.9682 33.7154 33.6441 33.7903 32.7634 35.1043Z" fill="#E1CEED"/>
<path d="M40.4522 33.6615C40.6763 34.4873 40.6527 35.3329 40.3405 36.1362C40.2364 36.4246 39.8444 36.4439 39.7424 36.1341C39.4974 35.3907 39.5002 34.607 39.7296 33.8652C39.8547 33.4944 40.4523 33.6408 40.3272 34.0323C40.1186 34.6916 40.1371 35.3311 40.341 35.9918C40.1348 35.9911 39.9491 35.9905 39.7429 35.9897C40.0134 35.2894 40.0572 34.5676 39.8534 33.845C39.7517 33.4322 40.3298 33.2692 40.4522 33.6615Z" fill="#941FCB"/>
<path d="M40.9273 32.2809C40.3601 32.0075 39.7098 32.1366 39.3028 32.614C39.043 32.9103 38.5678 32.5238 38.8276 32.2275C39.4003 31.5465 40.3724 31.322 41.1801 31.7157C41.5295 31.8871 41.2767 32.4522 40.9273 32.2809Z" fill="#941FCB"/>
<path d="M44.424 33.7361C44.6361 34.5709 44.5795 35.415 44.2568 36.2063C44.1414 36.4904 43.7499 36.4737 43.6591 36.1809C43.4435 35.4285 43.4563 34.6445 43.694 33.9114C43.8137 33.5243 44.4043 33.7146 44.2845 34.1018C44.071 34.7533 44.0643 35.393 44.2638 36.0415C44.0577 36.0327 43.8722 36.0248 43.6662 36.016C43.9433 35.3259 44.0153 34.6064 43.8194 33.8755C43.733 33.4796 44.3377 33.3402 44.424 33.7361Z" fill="#941FCB"/>
<path d="M45.1797 32.7177C44.8342 32.3717 44.2326 32.2912 43.8337 32.5985C43.5247 32.8259 43.1055 32.3703 43.4145 32.1429C44.1101 31.6476 45.0243 31.6963 45.6353 32.2985C45.9144 32.5805 45.4588 32.9997 45.1797 32.7177Z" fill="#941FCB"/>
<path d="M42.4538 44.0876C40.8444 43.963 39.3831 43.2633 38.2284 42.1174C38.0205 41.9107 38.315 41.5486 38.5229 41.7553C39.6097 42.846 40.9826 43.4926 42.5304 43.6235C42.824 43.6555 42.7474 44.1196 42.4538 44.0876Z" fill="#941FCB"/>
<path d="M46.1396 30.3473C46.9455 30.1192 48.1078 29.2738 48.6971 27.9483C48.98 23.6478 47.885 22.9311 47.3512 22.1774C46.9122 21.5383 46.3045 19.009 41.8169 16.506C38.4064 14.597 35.9241 15.6612 34.1801 15.8408C30.591 13.2038 22.9996 16.8053 22.0145 17.508C19.948 18.9856 18.484 20.5255 17.4859 21.7065C15.952 23.5232 13.3053 25.5582 11.9234 30.2622C4.30647 39.8587 7.82494 42.2127 7.44452 46.1708C7.01432 50.6523 2.0513 56.8239 4.94791 59.1798C7.84452 61.5356 19.0621 59.9246 21.8672 58.3709C25.7707 56.2066 23.1359 50.755 24.1964 47.7637C25.9916 42.6439 26.1059 38.9206 25.5676 35.9073C23.4546 35.5235 21.9146 35.2674 22.2365 33.7621C22.4875 32.5751 24.255 29.1999 26.6568 29.3673C27.7759 29.5632 28.2049 31.7169 28.2786 33.0363C29.2613 32.9144 31.2617 31.6509 33.5705 29.5056C35.255 27.943 36.0093 26.2065 36.3472 25.2594C36.4838 26.5853 39.1405 27.9706 41.5869 29.3775C43.6302 30.4942 45.5089 29.4584 46.1396 30.3473Z" fill="#941FCB"/>
<path d="M195.717 199.843C196.174 202.112 196.627 204.36 197.084 206.629C183.605 215.476 181.054 218.25 181.442 219.036C181.537 219.228 182.046 219.765 189.598 217.477C197.075 215.202 203.006 212.73 207.089 210.839C205.398 206.329 203.689 201.823 201.999 197.313C199.9 198.164 197.801 199.015 195.717 199.843Z" fill="white" stroke="#AA3DD0" stroke-width="0.344636"/>
<path d="M195.983 204.929C196.44 207.198 196.648 206.971 196.648 206.971C183.169 215.819 180.569 215.821 181.255 218.923C181.737 220.833 184.106 220.855 191.657 218.568C199.135 216.292 208.592 213.521 208.53 211.77C208.395 207.93 207.178 205.618 204.756 201.551C203.525 203.543 198.634 205.06 195.983 204.929Z" fill="#AA3DD0"/>
<rect x="0.0904314" y="0.214342" width="119.65" height="30.7763" transform="matrix(0.999914 -0.0130896 -0.707107 0.707107 81.6483 87.6401)" fill="white" stroke="#AA3DD0" stroke-width="0.617685"/>
<rect x="59.2977" y="109.783" width="4.01495" height="4.01495" fill="#AA3DD0"/>
<rect x="198.979" y="149.554" width="1.85306" height="3.08843" fill="#AA3DD0"/>
<rect x="253.953" y="149.246" width="1.85306" height="3.08843" fill="#AA3DD0"/>
<ellipse cx="227.393" cy="152.643" rx="28.4135" ry="5.25032" fill="#AA3DD0"/>
<path d="M255.497 149.555C255.497 149.795 255.366 150.072 255.022 150.383C254.678 150.694 254.154 151.008 253.45 151.315C252.044 151.929 249.99 152.49 247.428 152.963C242.31 153.909 235.226 154.496 227.393 154.496C219.559 154.496 212.476 153.909 207.357 152.963C204.796 152.49 202.742 151.929 201.336 151.315C200.631 151.008 200.107 150.694 199.763 150.383C199.419 150.072 199.288 149.795 199.288 149.555C199.288 149.314 199.419 149.037 199.763 148.726C200.107 148.415 200.631 148.102 201.336 147.794C202.742 147.18 204.796 146.619 207.357 146.146C212.476 145.2 219.559 144.613 227.393 144.613C235.226 144.613 242.31 145.2 247.428 146.146C249.99 146.619 252.044 147.18 253.45 147.794C254.154 148.102 254.678 148.415 255.022 148.726C255.366 149.037 255.497 149.314 255.497 149.555Z" fill="white" stroke="#AA3DD0" stroke-width="0.617685"/>
<rect x="223.378" y="154.805" width="8.02991" height="49.106" fill="#AA3DD0"/>
<path d="M206.671 217.345L227.547 201.275L248.424 217.345H206.671Z" stroke="#AA3DD0" stroke-width="4.63264"/>
<path d="M203.921 155.731L227.238 173.953L250.556 155.731" stroke="#AA3DD0" stroke-width="4.63264" stroke-linecap="round"/>
<path d="M211.553 207.187C212.01 209.455 212.463 211.703 212.92 213.972C199.441 222.819 196.89 225.594 197.277 226.379C197.373 226.571 197.882 227.108 205.433 224.82C212.911 222.545 218.842 220.073 222.925 218.182C221.234 213.673 219.525 209.166 217.834 204.656C215.736 205.507 213.637 206.359 211.553 207.187Z" fill="white" stroke="#AA3DD0" stroke-width="0.344636"/>
<path d="M211.818 212.273C212.275 214.541 212.484 214.315 212.484 214.315C199.005 223.162 196.405 223.164 197.091 226.267C197.573 228.177 199.941 228.199 207.493 225.911C214.97 223.636 224.428 220.864 224.366 219.113C224.23 215.273 223.014 212.961 220.592 208.894C219.36 210.886 214.469 212.403 211.818 212.273Z" fill="#AA3DD0"/>
<path d="M226.582 116.94C228.015 129.954 225.855 137.272 224.826 140.084C222.768 145.708 220.856 145.525 212.844 152.626C209.716 155.402 207.867 155.233 202.035 160.965C202.438 165.543 203.76 174.585 204.789 180.317C205.758 185.725 204.651 196.377 205.741 200.343C204.671 202.181 200.7 204.404 197.248 204.974C192.306 205.789 190.439 205.443 188.946 204.974C185.778 193.798 184.971 183.993 184.749 178.009C184.486 170.799 181.452 165.643 183.813 157.568C185.629 151.367 188.512 145.044 195.858 135.022C206.896 119.99 209.61 117.084 215.301 114.993C219.963 113.299 224.1 115.282 226.582 116.94Z" fill="white" stroke="#AA3DD0" stroke-width="0.617685"/>
<path opacity="0.22" d="M219.034 114.525C219.135 118.707 218.954 125.268 217.077 131.973C215.503 137.633 213.404 141.67 206.482 150.034C200.328 157.46 193.053 157.46 192.256 166.869C191.458 176.278 196.62 192.435 198.638 204.512C199.243 204.151 200.516 204.342 201.263 203.585C202.961 202.659 205.27 201.486 205.895 200.188C205.007 196.799 205.919 186.15 205.132 182.004C203.84 175.371 202.539 166.337 202.035 160.965C207.04 155.99 206.308 157.553 208.366 155.715C211.434 152.975 212.989 152.416 214.543 151.082C215.068 150.65 216.407 149.745 217.94 148.303C219.656 146.716 220.689 146.826 221.456 145.888C222.082 145.131 223.656 143.148 224.927 139.868C226.743 135.181 226.905 130.279 227.026 126.71C227.106 124.403 227.086 121.05 226.602 117.12C225.553 116.327 224.14 115.462 222.445 114.957C221.133 114.525 219.983 114.453 219.034 114.525Z" fill="#E1CEED"/>
<path d="M233.241 62.3156C234.256 65.4443 230.448 69.1233 227.078 72.2977C223.684 75.4859 216.703 81.8705 204.611 85.0446C199.614 86.3441 194.987 87.6023 188.938 86.4142C181.033 84.8828 175.734 80.2735 173.463 78.0039C169.727 76.1548 167.818 75.1871 166.784 74.6172C166.038 74.214 165.605 73.9638 164.756 73.5523C163.516 72.9655 163.194 72.9152 162.731 72.5512C162.254 72.1622 161.661 71.4456 161.371 70.0383C161.29 69.9522 160.761 69.2329 161.017 68.3395C161.173 67.7957 161.532 67.4991 161.706 67.4021C161.665 67.3272 161.452 66.8246 161.671 66.2781C161.88 65.7705 162.391 65.4546 162.966 65.4302C163.11 65.2194 163.33 64.9671 163.679 64.7731C165.36 63.6785 167.909 64.9771 169.346 65.6834C170.874 66.437 173.567 68.1131 175.995 71.6678C178.191 73.0964 181.792 75.0537 186.498 75.9408C187.968 76.2364 198.16 78.0031 207.382 72.3034C211.259 69.9261 217.866 64.4014 224.321 59.7786C224.793 59.4516 226.059 58.5537 227.76 58.5581C230.116 58.6243 232.596 60.3862 233.241 62.3156Z" fill="white" stroke="#AA3DD0" stroke-width="0.571457"/>
<path d="M162.832 65.602C163.026 65.9519 163.615 65.6583 163.407 65.2834C163.213 64.9335 162.638 65.2521 162.832 65.602Z" fill="#AA3DD0"/>
<path d="M162.98 65.1611C162.93 65.1888 162.88 65.2165 162.805 65.2581C162.519 65.4493 162.624 65.8157 162.946 65.866C164.824 66.1315 166.547 66.9407 167.919 68.2381C168.213 68.5326 168.68 68.0779 168.386 67.7834C166.88 66.3638 165.027 65.4961 162.969 65.1999C163.016 65.4026 163.062 65.6052 163.109 65.8079C163.159 65.7802 163.209 65.7525 163.284 65.7109C163.634 65.517 163.316 64.9422 162.98 65.1611Z" fill="#AA3DD0"/>
<path d="M161.731 67.6822C163.887 68.1533 165.859 69.1183 167.581 70.5159C167.886 70.7715 168.367 70.3418 168.048 70.0612C166.245 68.5775 164.207 67.5514 161.934 67.0469C161.51 66.9882 161.331 67.6097 161.731 67.6822Z" fill="#AA3DD0"/>
<path d="M161.421 70.3047C163.615 70.787 165.671 71.6077 167.612 72.753C167.954 72.9559 168.301 72.404 167.935 72.2149C165.955 71.0585 163.846 70.2016 161.588 69.7221C161.199 69.6107 161.021 70.2322 161.421 70.3047Z" fill="#AA3DD0"/>
<path opacity="0.13" d="M231.681 61.7424C229.781 61.5546 228.215 64.4476 226.901 66.3196C224.958 69.0624 222.195 70.8553 216.669 74.4411C206.649 80.942 195.04 81.0389 194.222 81.0353C183.898 80.9753 175.365 76.7208 172.725 75.375C168.253 73.0839 162.712 69.3929 161.923 70.3857C161.631 70.7434 162.038 71.5958 162.257 71.9318C162.972 73.1037 164.174 73.091 166.276 74.1143C167.386 74.6427 167.172 74.7285 168.903 75.7293C169.913 76.3131 171.405 77.1194 173.347 77.9705C176.102 80.8206 178.848 82.5328 180.707 83.5282C183.403 84.9739 189.123 87.455 196.389 86.8904C198.862 86.6958 200.63 86.173 204.142 85.1413C207.818 84.0514 213.828 82.2229 220.315 77.7777C223.248 75.7602 225.031 74.0857 227.353 71.8511C231.103 68.3025 234.309 65.1862 233.478 63.0984C233.218 62.3933 232.414 61.8263 231.681 61.7424Z" fill="#E1CEED"/>
<path d="M244.495 119.72C245.927 132.734 243.768 140.052 242.739 142.864C240.681 148.487 238.769 148.304 230.757 155.406C227.629 158.182 225.78 158.013 219.948 163.745C220.351 168.323 221.673 177.365 222.702 183.097C223.671 188.504 222.564 199.157 223.654 203.122C222.584 204.961 218.613 207.184 215.161 207.753C210.219 208.569 208.352 208.222 206.859 207.753C203.691 196.578 202.883 186.772 202.661 180.788C202.399 173.578 199.365 168.423 201.726 160.347C203.542 154.147 206.425 147.824 213.771 137.802C224.809 122.769 227.523 119.864 233.214 117.773C237.876 116.079 242.012 118.061 244.495 119.72Z" fill="white" stroke="#AA3DD0" stroke-width="0.617685"/>
<path opacity="0.22" d="M236.947 117.304C237.048 121.486 236.867 128.047 234.99 134.753C233.416 140.412 231.317 144.45 224.395 152.813C218.24 160.24 210.966 160.24 210.168 169.649C209.37 179.058 214.532 195.215 216.55 207.291C217.156 206.931 218.429 207.122 219.176 206.365C220.874 205.438 223.183 204.265 223.808 202.968C222.92 199.579 223.832 188.93 223.045 184.784C221.753 178.151 220.452 169.116 219.948 163.745C224.952 158.77 224.221 160.333 226.279 158.494C229.346 155.755 230.902 155.196 232.456 153.862C232.981 153.429 234.319 152.524 235.853 151.082C237.568 149.496 238.602 149.605 239.369 148.668C239.994 147.911 241.568 145.928 242.84 142.647C244.656 137.961 244.817 133.058 244.939 129.489C245.019 127.182 244.999 123.829 244.515 119.9C243.465 119.107 242.053 118.242 240.358 117.737C239.046 117.304 237.896 117.232 236.947 117.304Z" fill="#E1CEED"/>
<path d="M221.381 64.4684C218.436 69.7187 218.475 74.8146 217.51 80.2193C214.587 96.588 215.502 94.8894 213.958 102.456C212.877 105.884 210.715 111.258 212.105 116.817C215.749 119.164 218.732 119.612 226.639 121.465C234.452 123.287 242.846 123.025 247.17 122.531C255.343 105.39 254.633 80.9914 253.49 72.4982C252.409 64.4066 242.186 59.5578 232.489 57.2105C222.76 53.9677 223.996 60.4534 221.381 64.4684Z" fill="white" stroke="#AA3DD0" stroke-width="0.617685"/>
<path opacity="0.12" d="M233.261 57.365C233.106 58.6312 233.31 57.2872 233.093 59.5417C231.642 74.6441 233.34 77.3928 232.229 86.2875C231.611 91.3525 230.314 100.834 223.643 109.667C220.863 113.342 217.929 115.906 215.829 117.481C219.195 119.179 224.322 121.31 230.87 122.299C236.738 123.163 243.649 123.365 247.169 122.84C248.158 119.998 248.218 113.868 248.868 110.64C250.598 102.054 250.172 95.0586 249.956 89.9936C249.555 80.2033 256.053 66.5993 245.306 62.3064C243.916 61.2255 234.311 57.365 233.261 57.365Z" fill="#E1CEED"/>
<path d="M249.173 65.9257C252.663 66.6052 254.145 72.1335 255.381 76.9823C256.616 81.862 258.994 91.8067 255.659 104.902C254.269 110.306 253.033 115.341 248.741 120.436C243.15 127.107 236.016 129.702 232.681 130.659C228.975 133.223 227.06 134.52 225.979 135.199C225.207 135.693 224.743 135.971 223.91 136.558C222.705 137.423 222.489 137.701 221.902 137.948C221.284 138.195 220.296 138.38 218.814 137.917C218.69 137.948 217.733 138.071 217.022 137.361C216.59 136.929 216.497 136.434 216.497 136.218C216.405 136.218 215.818 136.157 215.416 135.662C215.046 135.199 215.015 134.551 215.293 133.995C215.169 133.748 215.046 133.408 215.046 132.975C214.891 130.814 217.455 129.084 218.875 128.096C220.389 127.046 223.385 125.378 228.017 124.946C230.519 123.618 234.256 121.239 237.56 117.255C238.61 116.02 245.621 107.311 245.065 95.6055C244.849 90.6949 243.089 81.5532 242.1 73.0291C242.039 72.4114 241.853 70.7437 242.749 69.1377C244.046 66.9449 247.011 65.5242 249.173 65.9257Z" fill="white" stroke="#AA3DD0" stroke-width="0.617685"/>
<path d="M215.386 134.211C215.818 134.211 215.849 133.5 215.386 133.5C214.953 133.5 214.953 134.211 215.386 134.211Z" fill="#AA3DD0"/>
<path d="M215.046 133.84C215.046 133.902 215.046 133.964 215.046 134.057C215.077 134.427 215.478 134.52 215.694 134.242C216.93 132.605 218.598 131.4 220.543 130.783C220.976 130.659 220.79 129.98 220.358 130.103C218.227 130.783 216.436 132.08 215.077 133.871C215.293 133.933 215.509 133.995 215.725 134.057C215.725 133.995 215.725 133.933 215.725 133.84C215.725 133.408 215.015 133.408 215.046 133.84Z" fill="#AA3DD0"/>
<path d="M216.775 136.342C218.351 134.551 220.296 133.192 222.52 132.296C222.921 132.142 222.767 131.462 222.335 131.617C219.987 132.543 217.949 133.933 216.281 135.817C216.003 136.188 216.497 136.682 216.775 136.342Z" fill="#AA3DD0"/>
<path d="M219.092 138.009C220.698 136.187 222.551 134.674 224.651 133.439C225.021 133.222 224.682 132.605 224.311 132.852C222.18 134.118 220.265 135.662 218.628 137.546C218.32 137.855 218.814 138.349 219.092 138.009Z" fill="#AA3DD0"/>
<path opacity="0.13" d="M247.814 67.0994C246.64 68.798 248.555 71.7938 249.636 74.0174C251.211 77.2912 251.458 80.8429 251.953 87.9462C252.848 100.825 246.857 111.851 246.424 112.623C240.958 122.351 232.465 128.188 229.808 129.98C225.299 133.006 218.906 136.311 219.431 137.577C219.617 138.04 220.636 138.102 221.068 138.071C222.551 138.01 223.168 136.867 225.238 135.415C226.319 134.643 226.288 134.89 228.141 133.778C229.222 133.13 230.766 132.142 232.588 130.752C236.727 129.64 239.784 127.941 241.699 126.706C244.479 124.915 249.821 120.807 253.095 113.642C254.207 111.202 254.639 109.256 255.504 105.396C256.4 101.35 257.821 94.7099 257.018 86.2476C256.647 82.418 255.998 79.8546 255.103 76.4882C253.713 71.0834 252.447 66.4199 250.038 66.1111C249.235 65.9875 248.277 66.4508 247.814 67.0994Z" fill="#E1CEED"/>
<path d="M218.327 50.5609C218.202 51.635 218.727 52.1845 220.126 55.1071C221.225 57.4052 221.949 59.3285 222.399 60.5525C223.18 63.2382 222.931 68.2866 226.178 67.8593C230.924 67.2348 231.323 57.6928 231.923 56.9934C231.124 55.6945 229.992 54.2328 229.118 51.7599C227.744 47.9631 228.069 46.4893 226.82 45.7399C224.322 44.3161 218.677 47.3386 218.327 50.5609Z" fill="white" stroke="#AA3DD0" stroke-width="0.499581"/>
<path d="M215.036 25.65C213.087 26.9988 210.933 32.9449 210.14 37.0155C208.941 43.1666 208.141 40.7623 207.892 43.51C207.842 43.9097 208.466 44.8089 208.866 44.9588C209.39 45.1586 210.265 45.1586 210.764 45.2335C210.814 46.4575 211.039 48.1561 211.813 50.0045C213.337 53.6765 213.261 53.3768 214.636 53.2519C216.01 53.127 221.53 52.3526 225.377 50.0045C228.125 48.3274 229.074 47.4817 229.374 47.0071C231.322 44.0346 230.747 44.0346 230.747 42.7606C231.347 42.7107 234.419 43.0853 235.344 42.4609C237.242 41.1869 238.666 38.2394 237.467 36.6158C236.568 35.4417 234.444 33.1749 232.321 34.224C232.271 33.2998 231.971 33.968 231.497 32.4942C231.372 32.1445 230.498 29.4468 228.874 27.6233C225.727 24.1262 218.982 22.8773 215.036 25.65Z" fill="white" stroke="#941FCB" stroke-width="0.499581"/>
<path d="M210.34 36.5345C209.99 36.2098 207.267 33.537 207.667 29.6153C208.117 25.4438 211.738 23.4455 212.338 23.1207C215.535 21.3722 218.683 22.0966 219.407 22.2964C220.531 21.597 222.554 20.5479 225.227 20.2232C229.199 19.7236 231.872 21.903 233.121 22.5275C234.769 23.0271 236.118 24.6507 237.992 27.2735C239.365 31.52 241.239 34.6424 239.615 39.7631C239.022 41.6329 238.616 42.0112 238.616 42.0112C238.616 42.0112 238.241 42.6357 237.367 43.3787C237.742 43.1669 228.499 49.6298 230.123 46.1327C230.248 45.8829 230.748 45.3833 230.997 43.8846C231.048 43.5802 230.623 43.1352 230.872 43.0103C232.246 42.7106 233.121 42.7605 233.37 42.3858C233.932 41.543 233.745 37.6398 231.872 36.6407C229.873 36.3909 230.623 37.6648 229.624 38.639C228.375 38.2143 227.275 37.2339 225.227 35.4854C223.179 33.7368 220.731 34.9421 220.131 33.7681C219.232 33.3684 220.057 29.3405 217.883 29.6153C213.612 30.1648 211.838 32.8376 211.489 33.3871C211.114 34.4113 210.714 35.4604 210.34 36.5345Z" fill="#941FCB"/>
<path d="M215.973 39.8844C215.898 39.6346 215.848 39.4098 215.848 39.16C215.848 39.0101 215.848 38.8603 215.873 38.7104C215.898 38.5605 215.973 38.4856 215.848 38.3857C215.673 38.2608 215.773 38.5106 215.798 38.6105C215.798 38.7354 215.798 38.8603 215.798 39.0101C215.798 39.135 215.798 39.7096 215.673 39.7845C215.773 39.7595 215.873 39.7595 215.973 39.7345C216.048 39.8345 216.073 39.8345 216.048 39.7345C216.048 39.6596 216.023 39.6096 216.023 39.5347C215.998 39.3848 215.973 39.2599 215.973 39.1101C215.973 38.8353 215.998 38.5605 216.148 38.3357C216.397 37.9111 215.748 37.5364 215.498 37.961C215.298 38.3107 215.223 38.7104 215.223 39.135C215.223 39.4848 215.248 40.0093 215.473 40.2841C215.673 40.5589 216.048 40.5339 216.273 40.2841C216.547 39.9843 216.572 39.4098 216.597 39.0101C216.622 38.6604 216.647 38.1858 216.422 37.8861C216.223 37.6113 215.873 37.5614 215.598 37.7612C214.974 38.2358 215.099 39.4598 215.298 40.1092C215.373 40.5339 216.098 40.334 215.973 39.8844Z" fill="#941FCB"/>
<path d="M214.14 36.4805C215.289 35.5813 217.013 35.831 217.837 37.0051C218.037 37.3048 218.536 37.0051 218.312 36.7303C217.237 35.2316 215.164 34.9568 213.715 36.0808C213.466 36.3056 213.865 36.7053 214.14 36.4805Z" fill="#941FCB"/>
<path d="M211.913 48.9242C213.512 48.4246 214.886 47.5254 215.96 46.2764C216.184 46.0017 215.81 45.602 215.56 45.8768C214.536 47.0758 213.262 47.9251 211.763 48.3997C211.413 48.4746 211.563 49.0241 211.913 48.9242Z" fill="#941FCB"/>
</svg>
