<svg width="223" height="228" viewBox="0 0 223 228" fill="none" xmlns="http://www.w3.org/2000/svg">
<path d="M191.829 189.525C194.498 191.716 197.143 193.888 199.812 196.08C192.903 219.437 192.639 225.135 193.823 225.672C194.113 225.801 195.2 225.931 201.6 215.946C207.929 206.047 212.316 197.421 215.157 191.262C208.963 187.664 202.752 184.088 196.558 180.49C194.983 183.515 193.409 186.54 191.829 189.525Z" fill="white" stroke="#AA3DD0" stroke-width="0.560761"/>
<path d="M196.951 195.175C199.62 197.367 199.642 196.901 199.642 196.901C192.733 220.258 189.785 222.783 193.505 225.722C195.862 227.473 198.57 225.2 204.971 215.215C211.299 205.316 219.404 192.92 217.674 190.946C213.881 186.617 210.308 185.111 203.704 182.737C204.196 186.246 200.083 192.754 196.951 195.175Z" fill="#AA3DD0"/>
<path d="M38.1944 140.311C35.7704 142.771 33.3678 145.209 30.9438 147.668C8.30769 138.675 2.65708 137.896 2.01512 139.027C1.85999 139.304 1.63214 140.374 10.9972 147.652C20.283 154.85 28.477 160 34.3533 163.386C38.4969 157.543 42.6208 151.681 46.7645 145.838C43.8941 143.997 41.0236 142.155 38.1944 140.311Z" fill="white" stroke="#AA3DD0" stroke-width="0.560761"/>
<path d="M63.0194 65.3366C61.6782 65.1681 59.8561 64.7837 57.8468 63.9303C51.7887 61.3162 48.6156 55.4592 49.1569 54.8576C49.3647 54.6152 50.4186 55.1345 53.3131 57.7157C52.5264 56.4523 51.793 55.5151 51.2552 54.8576C50.6879 54.1749 50.1971 53.6419 49.9963 52.7407C49.8306 52.0378 49.9104 51.377 50.0113 50.9307C50.0254 50.4661 49.8579 50.368 50.2785 49.8072C50.699 49.3867 51.1196 49.3867 51.5403 49.3867C55.8755 49.2898 58.8782 53.737 59.5311 54.8576C59.2507 54.013 58.5513 52.4803 58.4096 51.6298C58.3162 51.069 58.1292 50.6484 58.3368 50.2729C60.2321 49.2465 61.6011 51.7536 63.3256 54.9708C63.8595 55.9614 64.1609 56.8647 64.3396 57.5227C65.7605 58.8531 70.8703 63.2903 79.0311 63.3325C85.7467 63.3325 93.1757 66.4452 100.747 61.3029C105.794 58.0785 108.067 56.9977 112.06 54.7006C115.15 52.919 117.289 51.3552 120.164 53.7082C123.171 56.1462 121.665 63.1593 120.399 67.2056C118.746 69.462 114.746 70.2574 109.284 71.71C103.822 73.1626 96.3732 75.3126 86.02 74.9892C81.4615 74.8386 77.5169 73.1952 75.576 72.2323C75.2548 72.0691 75.0214 71.953 74.5978 71.7301C72.0275 70.3957 68.2714 68.3532 63.0194 65.3366Z" fill="white" stroke="#AA3DD0" stroke-width="0.425786"/>
<path d="M50.001 51.062C51.2822 52.9737 52.7582 54.6879 54.4717 56.185C54.6784 56.3622 54.9832 56.0066 54.7904 55.8132C53.1065 54.3415 51.6313 52.6561 50.3945 50.7824C50.2294 50.5567 49.8359 50.8363 50.001 51.062Z" fill="#AA3DD0"/>
<path d="M51.2205 49.6397C52.5248 51.375 53.9687 52.9774 55.5935 54.3986C55.8002 54.5758 56.1051 54.2202 55.9122 54.0268C54.3308 52.6148 52.8888 51.07 51.6139 49.3601C51.4202 49.1379 51.0406 49.4014 51.2205 49.6397Z" fill="#AA3DD0"/>
<path opacity="0.24" d="M49.2971 54.9943C49.589 54.6837 52.7732 59.2717 57.1475 61.7883C62.3413 64.7831 67.0249 65.714 70.2305 66.6956C75.9457 68.4549 85.4839 74.5029 95.9722 69.5299C106.688 64.4712 109.551 63.4173 112.025 62.611C112.961 62.3058 114.743 61.8019 116.957 60.0067C121.013 56.6523 120.93 53.4051 122.083 57.5692C121.712 58.5693 121.25 66.0213 120.223 67.6082C118.62 70.0755 115.109 70.4253 112.093 70.7945C107.052 72.9358 104.538 73.0752 100.547 73.6372C97.4233 75.2493 92.2747 74.7151 87.1234 74.8975C82.116 75.0911 78.5729 73.4275 72.3027 70.4633C68.3803 68.6146 65.3331 66.7312 63.2346 65.3246C61.0423 65.0434 57.8015 64.312 54.6455 62.167C51.5633 60.0853 49.0339 55.3014 49.2971 54.9943Z" fill="#E1CEED"/>
<path d="M124.885 116.838C120.595 123.483 123.735 131.754 127.212 140.839C132.175 153.905 138.569 168.878 142.467 172.916C159.906 191.028 182.559 192.429 194.896 195.793C196.158 190.018 197.391 184.214 198.653 178.438C190.129 173.812 169.608 161.56 165.318 157.635C158.112 151.046 160.297 147.231 155.25 130.128C152.138 119.53 154.1 114.735 149.474 111.315C143.025 106.604 129.876 109.072 124.885 116.838Z" fill="white" stroke="#AA3DD0" stroke-width="0.560761"/>
<path opacity="0.14" d="M153.063 119.979C150.708 123.792 147.736 129.988 148.605 137.138C149.614 145.409 150.85 152.728 164.196 164.504C175.916 174.822 190.017 181.13 196.83 186.933C197.419 184.102 197.98 181.298 198.569 178.466C194.139 175.971 187.888 172.635 180.739 168.149C177.318 165.317 167.729 161.532 162.374 154.971C158.673 150.429 159.764 142.97 156.315 133.577C154.325 128.138 153.484 123.343 153.063 119.979Z" fill="#E1CEED"/>
<path d="M137.142 105.945C121.164 106.173 109.351 106.376 103.474 106.461C81.9159 106.805 74.9829 107.362 66.351 111.983C53.614 118.802 47.2244 121.447 40.3896 127.49C34.7699 132.459 29.5107 138.376 30.4491 140.961C32.1928 141.743 30.8267 142.289 35.8398 144.301C41.5691 146.599 48.761 148.203 50.3107 146.772C60.8907 138.52 71.4802 136.52 85.1184 131.879C95.6915 133.538 104.205 135.109 110 136.248C118.18 137.838 121.207 139.817 126.311 139.767C132.757 139.726 144.985 140.49 152.106 134.3C153.896 132.74 155.456 127.053 155.751 121.823C156.14 115.261 148.392 108.158 137.142 105.945Z" fill="white" stroke="#AA3DD0" stroke-width="0.560761"/>
<path opacity="0.12" d="M153.833 115.524C154.186 116.642 158.836 121.963 151.686 135.001C151.159 135.414 142.608 139.145 137.386 139.487C130.765 140.467 124.287 139.561 121.545 139.066C115.673 138.028 111.044 136.517 107.071 135.545C102.452 134.398 93.6723 133.42 85.3703 131.664C74.1017 135.518 74.1017 135.518 66.7774 138.268C59.8743 139.39 51.5343 146.019 49.8769 146.986C47.3085 148.498 40.9996 145.993 39.7309 145.288C40.3105 141.873 46.9115 138.816 53.5309 135.502C63.7615 130.379 68.8825 128.036 81.4178 122.507C92.1205 125.206 104.65 126.571 122.867 124.659C131.744 123.704 147.305 117.489 153.833 115.524Z" fill="#E1CEED"/>
<path d="M131.144 42.7891C124.967 46.5181 111.591 52.6199 111.591 61.5412C111.591 68.0408 112.33 72.1116 112.012 82.5698C111.821 88.5419 112.392 97.1268 109.909 107.725C111.374 109.099 120.097 116.922 133.531 116.641C141.872 116.473 147.857 113.249 150.404 111.679C148.494 101.136 149.003 92.7248 149.831 86.921C151.327 76.631 155.211 70.6589 155.179 58.939C155.179 53.2192 154.288 48.5369 153.524 45.4246C152.247 43.8773 151.861 41.9987 147.34 41.2137C141.291 40.2323 133.181 42.0881 131.144 42.7891Z" fill="white" stroke="#AA3DD0" stroke-width="0.560761"/>
<path opacity="0.13" d="M140.757 40.793C140.82 43.5807 140.82 47.6769 140.311 52.5696C139.738 58.401 138.4 66.4227 132.762 82.0964C129.768 90.431 125.405 101.269 119.162 113.728C122.634 115.407 125.723 116.118 127.793 116.431C135.47 117.597 141.68 115.52 144.643 114.496C147.254 113.586 149.293 112.562 150.694 111.794C150.153 108.864 149.58 104.853 149.388 100.017C149.293 97.7416 149.134 90.3172 151.108 79.9629C152.924 70.4051 152.86 76.8567 153.72 70.5133C152.527 69.2516 138.929 57.6158 150.564 42.1949C147.34 41.3619 149.643 42.073 146.363 41.3619C144.197 40.9068 142.254 40.793 140.757 40.793Z" fill="#E1CEED"/>
<path d="M151.316 44.2596C155.31 44.849 160.46 46.0566 166.127 48.5639C173.361 51.7799 178.676 55.9061 182.144 59.1034C182.885 62.9128 184.008 71.4335 180.397 80.9263C178.582 85.7312 176.132 89.2784 174.135 91.6692C173.585 94.6315 173.934 96.6823 174.386 98.0322C174.888 99.6279 175.799 101.135 175.17 102.325C174.853 102.935 174.242 103.233 173.792 103.405C173.751 103.488 173.319 104.111 172.54 104.205C171.65 104.282 171.126 103.608 171.079 103.542C170.891 103.663 170.062 104.287 168.925 104.119C167.673 103.964 167.021 103.002 166.904 102.836C166.637 102.916 166.001 103.001 165.273 102.745C164.277 102.389 163.835 101.548 163.698 101.319C163.189 100.736 161.911 99.0258 162.096 96.8151C162.161 95.9893 162.439 95.2545 163.051 94.1811C163.813 92.8612 165.291 90.7221 168.061 88.6543C169.353 85.0853 170.611 80.4071 171.12 74.8428C171.372 71.9855 171.386 69.3917 171.274 67.0775C167.299 64.82 162.311 62.2941 156.352 60.6092C153.959 59.9277 151.578 59.1683 149.419 58.8198C146.044 56.1436 144.896 52.2339 146.282 48.7981C147.656 45.6292 150.746 44.4738 151.316 44.2596Z" fill="white"/>
<path d="M163.013 95.2329C162.206 97.4411 161.805 99.7691 162.876 101.926C163.008 102.184 163.403 102.004 163.271 101.746C162.243 99.6845 162.622 97.5025 163.384 95.407C163.479 95.1523 163.112 94.949 163.013 95.2329Z" fill="#AA3DD0"/>
<path d="M165.303 96.615C165.008 98.8093 164.957 101.457 166.09 103.385C166.226 103.614 166.574 103.367 166.442 103.109C165.376 101.31 165.445 98.7247 165.719 96.6764C165.763 96.3844 165.346 96.323 165.303 96.615Z" fill="#AA3DD0"/>
<path d="M168.188 97.4287C168.058 99.6476 168.445 102.599 170.118 104.129C170.318 104.308 170.596 103.961 170.396 103.782C168.848 102.36 168.5 99.5337 168.604 97.4901C168.619 97.194 168.203 97.1326 168.188 97.4287Z" fill="#AA3DD0"/>
<path d="M170.59 98.0518C170.599 100.291 171.369 102.374 172.766 104.042C172.935 104.246 173.283 103.999 173.119 103.766C171.74 102.16 171.045 100.148 171.023 97.9964C171.011 97.6962 170.605 97.7557 170.59 98.0518Z" fill="#AA3DD0"/>
<path opacity="0.17" d="M147.221 48.32C151.996 48.607 160.068 49.7982 168.599 54.7871C173.606 57.7341 177.33 61.1183 179.893 63.9135C179.107 80.9548 175.666 87.7575 172.479 90.7187C171.794 91.3337 169.095 93.6806 168.249 97.4944C167.596 100.382 168.041 104.088 169.37 104.493C169.912 104.662 170.512 104.244 171.001 103.809C171.715 104.541 172.33 104.602 172.56 104.576C172.759 104.575 173.049 104.529 174.228 103.837C175.159 103.288 175.627 102.999 175.736 102.836C176.422 101.834 175.196 100.161 174.533 98.1234C174.103 96.8068 173.769 94.8478 174.257 92.115C176.645 89.1851 181.303 82.5918 182.753 72.9589C183.608 67.3561 183.06 62.6203 182.45 59.4569C180.235 57.3696 178.216 55.8781 176.724 54.8522C176.338 54.5864 176.291 54.5198 169.86 50.8554C167.167 49.324 166.619 49.0045 165.576 48.582C164.134 47.9813 164.033 48.0858 160.684 46.965C158.957 46.3818 157.216 45.8862 155.488 45.303C155.029 45.1458 154.209 44.8584 152.527 44.4379C152.292 44.4927 151.347 42.4327 150.705 42.7556C150.146 43.036 149.022 44.2977 148.462 45.279C148.023 45.7514 147.875 47.3424 147.221 48.32Z" fill="#E1CEED"/>
<path d="M151.609 44.6516C155.603 45.2411 160.753 46.4487 166.42 48.9559C173.654 52.1719 178.969 56.2982 182.436 59.4954C183.178 63.3049 184.301 71.8255 180.69 81.3184C178.875 86.1232 176.424 89.6704 174.428 92.0613C173.877 95.0236 174.226 97.0743 174.679 98.4242C175.18 100.02 176.092 101.527 175.463 102.717C175.146 103.327 174.535 103.625 174.085 103.797C174.044 103.88 173.612 104.503 172.833 104.597C171.943 104.674 171.419 104 171.372 103.934C171.184 104.055 170.355 104.679 169.218 104.511C167.965 104.356 167.314 103.395 167.196 103.228C166.93 103.308 166.293 103.393 165.566 103.137C164.57 102.781 164.127 101.94 163.991 101.711C163.482 101.128 162.204 99.4178 162.388 97.2072C162.454 96.3813 162.732 95.6466 163.344 94.5732C164.105 93.2533 165.583 91.1141 168.354 89.0464C169.646 85.4773 170.903 80.7992 171.413 75.2348C171.664 72.3776 171.679 69.7837 171.567 67.4696C167.592 65.212 162.603 62.6862 156.645 61.0012C154.251 60.3198 151.871 59.5603 149.711 59.2118" stroke="#AA3DD0" stroke-width="0.560761"/>
<path d="M120.584 34.2735C120.443 35.4791 121.032 36.0959 122.602 39.3764C123.836 41.9559 124.649 44.1148 125.154 45.4887C126.031 48.5033 125.751 54.1699 129.396 53.6903C134.723 52.9893 135.171 42.2788 135.844 41.4937C134.947 40.0358 133.677 38.395 132.696 35.6193C131.154 31.3575 131.518 29.7033 130.117 28.8621C127.313 27.2639 120.976 30.6565 120.584 34.2735Z" fill="white" stroke="#AA3DD0" stroke-width="0.560761"/>
<path d="M116.889 6.3117C114.702 7.82576 112.284 14.5 111.393 19.0691C110.047 25.9734 109.15 23.2747 108.87 26.3589C108.814 26.8075 109.515 27.8169 109.963 27.9851C110.552 28.2094 111.533 28.2094 112.094 28.2935C112.15 29.6674 112.403 31.574 113.272 33.6488C114.982 37.7704 114.897 37.4341 116.44 37.2938C117.982 37.1536 124.179 36.2844 128.496 33.6488C131.581 31.7662 132.646 30.817 132.983 30.2843C135.17 26.9477 134.525 26.9477 134.525 25.5178C135.198 25.4617 138.646 25.8823 139.684 25.1813C141.815 23.7514 143.413 20.4429 142.067 18.6204C141.058 17.3026 138.674 14.7582 136.291 15.9358C136.235 14.8984 135.899 15.6484 135.366 13.9941C135.226 13.6016 134.244 10.5735 132.422 8.52671C128.889 4.60138 121.319 3.19948 116.889 6.3117Z" fill="white" stroke="#941FCB" stroke-width="0.560761"/>
<path d="M111.618 18.5293C111.225 18.1648 108.169 15.1648 108.617 10.7628C109.122 6.08043 113.188 3.83738 113.861 3.47289C117.449 1.51023 120.982 2.32333 121.795 2.54763C123.057 1.76257 125.328 0.584971 128.328 0.220476C132.786 -0.340284 135.786 2.10607 137.188 2.80703C139.039 3.36779 140.553 5.19026 142.656 8.13425C144.198 12.9007 146.301 16.4055 144.478 22.1533C143.813 24.2521 143.357 24.6767 143.357 24.6767C143.357 24.6767 142.936 25.3777 141.955 26.2117C142.375 25.9739 132.001 33.2283 133.824 29.303C133.964 29.0226 134.525 28.4618 134.805 26.7795C134.862 26.4378 134.384 25.9384 134.665 25.7982C136.207 25.4617 137.188 25.5178 137.469 25.0972C138.099 24.1512 137.889 19.77 135.786 18.6485C133.543 18.3681 134.384 19.7981 133.263 20.8915C131.861 20.4149 130.627 19.3144 128.328 17.3517C126.029 15.3891 123.281 16.7419 122.608 15.4241C121.599 14.9755 122.524 10.4544 120.085 10.7628C115.291 11.3796 113.3 14.3797 112.907 14.9965C112.487 16.1461 112.038 17.3237 111.618 18.5293Z" fill="#941FCB"/>
<path d="M117.941 22.2897C117.857 22.0093 117.8 21.757 117.8 21.4766C117.8 21.3084 117.8 21.1401 117.828 20.9719C117.857 20.8037 117.941 20.7196 117.8 20.6074C117.604 20.4672 117.716 20.7476 117.744 20.8597C117.744 20.9999 117.744 21.1401 117.744 21.3084C117.744 21.4485 117.744 22.0934 117.604 22.1775C117.716 22.1495 117.828 22.1495 117.941 22.1215C118.025 22.2336 118.053 22.2336 118.025 22.1215C118.025 22.0373 117.997 21.9813 117.997 21.8972C117.969 21.7289 117.941 21.5887 117.941 21.4205C117.941 21.1121 117.969 20.8037 118.137 20.5513C118.417 20.0747 117.688 19.6541 117.408 20.1308C117.184 20.5233 117.1 20.9719 117.1 21.4485C117.1 21.8411 117.128 22.4299 117.38 22.7383C117.604 23.0467 118.025 23.0187 118.277 22.7383C118.586 22.4018 118.614 21.757 118.642 21.3084C118.67 20.9158 118.698 20.3831 118.445 20.0466C118.221 19.7382 117.828 19.6821 117.52 19.9065C116.819 20.4392 116.959 21.813 117.184 22.542C117.268 23.0187 118.081 22.7944 117.941 22.2897Z" fill="#941FCB"/>
<path d="M115.884 18.4688C117.173 17.4595 119.108 17.7398 120.033 19.0576C120.258 19.3941 120.818 19.0576 120.566 18.7492C119.36 17.0669 117.033 16.7585 115.407 18.0202C115.127 18.2726 115.575 18.7212 115.884 18.4688Z" fill="#941FCB"/>
<path d="M113.384 32.4362C115.178 31.8754 116.72 30.866 117.926 29.4641C118.178 29.1557 117.758 28.7071 117.478 29.0155C116.328 30.3614 114.898 31.3147 113.216 31.8474C112.823 31.9315 112.991 32.5483 113.384 32.4362Z" fill="#941FCB"/>
<path d="M32.1038 144.901C29.6798 147.361 30.1411 147.425 30.1411 147.425C7.50499 138.431 5.25709 135.267 1.99423 138.705C0.0367994 140.894 2.05552 143.797 11.4206 151.075C20.7064 158.273 32.3186 167.466 34.441 165.922C39.0954 162.535 40.9179 159.113 43.8797 152.752C40.3406 152.924 34.2312 148.239 32.1038 144.901Z" fill="#AA3DD0"/>
<path d="M150.564 42.7556C147.306 42.9146 141.313 61.0997 153.648 70.2329" stroke="#AA3DD0" stroke-width="0.560761" stroke-linecap="round"/>
<path d="M149.583 59.4382L154.91 60.6999C154.923 64.273 154.471 66.4064 153.649 69.9525C152.206 65.6934 151.58 63.4831 149.583 59.4382Z" fill="#FAF7FC"/>
<path d="M17.06 113.319C20.7997 108.919 25.42 106.719 30.9202 106.939C25.42 98.5793 13.5399 97.4789 6.50037 104.959C7.59961 105.84 8.69985 111.779 17.06 113.319Z" fill="#AA3DD0"/>
<path d="M20.0666 114.245C22.0467 119.746 21.6068 124.806 18.7469 129.425H18.9674C28.8677 128.545 35.6876 118.865 32.8276 109.406C31.2864 110.065 25.5656 107.865 20.0665 114.245H20.0666Z" fill="#AA3DD0"/>
<path d="M17.2265 115.774C11.507 114.895 7.32622 111.814 4.68606 106.974C0.286215 115.995 5.34639 126.775 15.0261 129.195C15.467 127.655 20.3069 123.695 17.2266 115.774H17.2265Z" fill="#AA3DD0"/>
</svg>
