<svg width="241" height="238" viewBox="0 0 241 238" fill="none" xmlns="http://www.w3.org/2000/svg">
<path d="M83.0949 102.867C134.029 106.545 184.962 110.202 235.876 113.879C237.257 76.9435 238.639 40.0079 240 3.07229C188.843 2.38153 137.686 1.69076 86.5284 1C85.3907 34.949 84.2529 68.8981 83.0949 102.867Z" fill="#F0F0F0" stroke="#941FCB" stroke-width="0.711081"/>
<path d="M89.5961 99.0591C136.289 102.43 182.982 105.783 229.657 109.154C230.923 75.2934 232.19 41.433 233.438 7.57261C186.54 6.93936 139.642 6.3061 92.7438 5.67285C91.7008 36.7954 90.6578 67.9179 89.5961 99.0591Z" fill="#F9F9F9" stroke="#941FCB" stroke-width="0.651878"/>
<path d="M115.017 23.0649C132.701 24.6322 142.239 22.0557 159.19 30.3509C156.111 44.144 153.208 55.3835 146.927 66.8403C138.309 70.0839 121.848 69.0413 101.631 60.1217C107.656 47.1411 110.985 36.8855 115.017 23.0649Z" fill="#941FCB"/>
<path d="M112.807 18.1996C130.491 19.7669 140.029 17.1904 156.98 25.4856C153.901 39.2788 150.998 50.5182 144.717 61.9751C136.1 65.2186 119.638 64.1761 99.4208 55.2564C105.447 42.2758 108.775 32.0202 112.807 18.1996Z" fill="white"/>
<path d="M111.242 24.7906L134.884 26.9915L155.876 32.436L155.323 35.5637L133.78 30.4667L110.69 28.2526L111.242 24.7906Z" fill="#E1CEED"/>
<path d="M99.4209 55.3795C106.605 41.599 109.729 33.6003 112.678 18.5426C132.852 17.4334 147.446 20.2608 157.312 25.4929C154.281 40.7947 151.954 49.1171 144.275 61.8665C136.149 66.0587 118.783 63.1171 99.4209 55.3795Z" stroke="#941FCB" stroke-width="0.609498"/>
<path d="M111.132 25.0293C129.724 25.6463 139.396 27.3046 155.544 32.2113" stroke="#941FCB" stroke-width="0.609498"/>
<path d="M110.469 28.2729C128.791 29.5063 138.591 31.0763 155.102 35.6867" stroke="#941FCB" stroke-width="0.609498"/>
<path d="M109.364 33.3699C127.426 36.676 137.062 38.4057 153.334 41.247" stroke="#941FCB" stroke-width="0.609498"/>
<path d="M107.375 38.9302C124.625 43.1478 134.332 45.1447 151.788 47.2706" stroke="#941FCB" stroke-width="0.609498"/>
<path d="M104.945 44.7222C114.463 47.8584 119.792 49.6162 148.031 54.221" stroke="#941FCB" stroke-width="0.609498"/>
<path d="M102.514 50.0508C119.206 55.8973 128.666 57.2823 145.601 58.6229" stroke="#941FCB" stroke-width="0.609498"/>
<path d="M117.981 25.4927C112.961 48.4913 110.46 49.2546 105.829 57.2327" stroke="#941FCB" stroke-width="0.609498"/>
<path d="M124.61 25.7244C116.179 53.4039 115.723 51.4407 112.015 59.7812" stroke="#941FCB" stroke-width="0.609498"/>
<path d="M131.018 26.4194C127.686 42.0069 124.808 49.436 118.865 61.6347" stroke="#941FCB" stroke-width="0.609498"/>
<path d="M138.309 28.0413C135.241 42.0934 132.178 49.5143 126.157 62.5614" stroke="#941FCB" stroke-width="0.609498"/>
<path d="M144.938 29.4312C141.977 44.0337 138.6 51.1584 132.344 63.7197" stroke="#941FCB" stroke-width="0.609498"/>
<path d="M150.683 31.053C145.455 52.188 143.09 56.7174 138.972 63.4881" stroke="#941FCB" stroke-width="0.609498"/>
<path d="M116.087 21.9021C116.096 21.9155 116.1 21.9253 116.099 21.9317C116.099 21.9412 116.092 21.9471 116.081 21.9494C116.069 21.9507 116.054 21.9512 116.036 21.9509C116.018 21.9496 115.998 21.9482 115.977 21.9466C115.956 21.9451 115.936 21.9457 115.917 21.9486C115.892 21.9521 115.87 21.9573 115.85 21.9644C115.831 21.9715 115.812 21.9786 115.795 21.9858C115.777 21.9941 115.761 22.0008 115.746 22.0061C115.731 22.0113 115.716 22.0135 115.703 22.0125C115.69 22.0115 115.678 22.0075 115.667 22.0003C115.656 21.9931 115.645 21.9891 115.634 21.9884C115.618 21.9872 115.601 21.9875 115.583 21.9894C115.566 21.9913 115.549 21.9938 115.533 21.9969C115.518 22 115.504 22.0027 115.491 22.005C115.479 22.0083 115.469 22.0102 115.462 22.0108C115.448 22.0097 115.436 22.0057 115.427 21.9986C115.419 21.9917 115.415 21.9824 115.416 21.9708C115.417 21.9454 115.428 21.9282 115.448 21.919C115.469 21.9099 115.496 21.9067 115.531 21.9092C115.537 21.9096 115.543 21.9106 115.55 21.9122C115.557 21.9138 115.565 21.9148 115.572 21.9154C115.59 21.9167 115.605 21.9093 115.618 21.8933C115.631 21.8762 115.641 21.8541 115.65 21.8272C115.659 21.7992 115.666 21.7673 115.67 21.7316C115.676 21.6949 115.68 21.6581 115.684 21.6212C115.688 21.5843 115.69 21.5485 115.693 21.5136C115.696 21.4789 115.699 21.4483 115.702 21.422C115.714 21.3263 115.725 21.2274 115.735 21.1252C115.744 21.023 115.752 20.927 115.758 20.8373C115.763 20.7623 115.766 20.6978 115.767 20.6437C115.751 20.6479 115.738 20.6543 115.726 20.663C115.713 20.6717 115.702 20.6814 115.692 20.6924C115.681 20.7033 115.672 20.7153 115.662 20.7284C115.654 20.7405 115.646 20.7522 115.639 20.7633C115.638 20.7643 115.638 20.7658 115.637 20.768C115.637 20.7701 115.637 20.7727 115.637 20.7759C115.638 20.7791 115.638 20.7818 115.638 20.7839C115.638 20.785 115.635 20.789 115.631 20.7961C115.626 20.8032 115.62 20.8113 115.613 20.8203C115.606 20.8283 115.599 20.8368 115.591 20.8457C115.584 20.8548 115.578 20.8612 115.574 20.8651C115.559 20.8789 115.539 20.9029 115.513 20.9371C115.489 20.9703 115.461 21.0102 115.429 21.0567C115.398 21.1032 115.366 21.1544 115.331 21.2103C115.298 21.2662 115.264 21.3231 115.231 21.3811C115.198 21.4392 115.167 21.4964 115.138 21.5526C115.11 21.6089 115.086 21.6607 115.066 21.7081C115.056 21.7296 115.048 21.7513 115.042 21.7732C115.037 21.795 115.03 21.8152 115.021 21.8337C115.013 21.8512 115.003 21.8653 114.991 21.8761C114.98 21.8858 114.964 21.89 114.942 21.8884C114.934 21.8878 114.927 21.8857 114.922 21.8822C114.917 21.8775 114.914 21.8752 114.912 21.875C114.899 21.8751 114.888 21.877 114.878 21.8805C114.869 21.8841 114.861 21.8856 114.854 21.8851C114.844 21.8812 114.836 21.8764 114.829 21.8706C114.823 21.8659 114.818 21.8602 114.813 21.8535C114.809 21.8458 114.807 21.8377 114.808 21.8292C114.808 21.8271 114.808 21.825 114.808 21.8229C114.81 21.8198 114.81 21.8172 114.811 21.8151C114.811 21.814 114.81 21.813 114.809 21.8118C114.809 21.8108 114.809 21.8097 114.809 21.8087C114.8 21.7857 114.791 21.7622 114.782 21.7382C114.774 21.7133 114.767 21.6841 114.761 21.6507L114.762 21.6317C114.763 21.6222 114.76 21.6061 114.754 21.5834C114.75 21.5597 114.739 21.5298 114.724 21.4937C114.72 21.4753 114.718 21.4566 114.718 21.4375C114.718 21.4184 114.715 21.4012 114.707 21.3858C114.705 21.3825 114.703 21.3802 114.7 21.3789C114.696 21.3776 114.695 21.3727 114.696 21.3643C114.696 21.3622 114.696 21.3595 114.696 21.3564C114.698 21.3533 114.698 21.3507 114.698 21.3486C114.695 21.3324 114.69 21.3119 114.682 21.2869C114.674 21.2608 114.666 21.2359 114.658 21.2119C114.65 21.187 114.643 21.1658 114.637 21.1483C114.632 21.131 114.629 21.1218 114.629 21.1207C114.63 21.1154 114.63 21.1107 114.632 21.1066C114.633 21.1014 114.634 21.0967 114.634 21.0924C114.635 21.0861 114.631 21.0784 114.623 21.0693C114.616 21.0603 114.612 21.0521 114.61 21.0445C114.604 21.026 114.6 21.0061 114.597 20.9847C114.595 20.9633 114.591 20.9397 114.584 20.9137C114.582 20.9029 114.578 20.8894 114.573 20.8731C114.568 20.8558 114.564 20.8374 114.559 20.8179C114.554 20.7985 114.548 20.7779 114.542 20.7563C114.537 20.7347 114.532 20.7142 114.527 20.6947C114.525 20.6893 114.524 20.6823 114.524 20.6738C114.523 20.6642 114.522 20.655 114.519 20.6464C114.518 20.6442 114.516 20.6398 114.512 20.6331C114.508 20.6254 114.505 20.6177 114.501 20.61C114.497 20.6013 114.494 20.5936 114.491 20.587C114.489 20.5805 114.487 20.5761 114.487 20.574L114.488 20.5724C114.477 20.5738 114.468 20.5858 114.46 20.6086C114.453 20.6314 114.446 20.6575 114.44 20.6867C114.435 20.7161 114.43 20.7449 114.425 20.7731C114.421 20.8004 114.417 20.8192 114.412 20.8295C114.405 20.8428 114.402 20.8606 114.4 20.8827C114.4 20.9039 114.397 20.9287 114.392 20.9569C114.389 20.9758 114.383 20.9929 114.374 21.0082C114.366 21.0235 114.361 21.0401 114.36 21.058C114.359 21.0665 114.359 21.0749 114.358 21.0834C114.359 21.0908 114.359 21.0988 114.358 21.1072C114.357 21.1315 114.351 21.1545 114.342 21.1761C114.335 21.1978 114.328 21.2265 114.322 21.2622C114.322 21.2643 114.322 21.2669 114.322 21.2701C114.323 21.2733 114.323 21.276 114.323 21.2781C114.323 21.2834 114.321 21.288 114.317 21.292C114.314 21.295 114.311 21.2964 114.309 21.2962C114.302 21.3285 114.295 21.3599 114.29 21.3903C114.286 21.4208 114.28 21.4516 114.273 21.4829C114.266 21.5089 114.258 21.5343 114.249 21.5591C114.241 21.583 114.234 21.6084 114.228 21.6356C114.222 21.6627 114.217 21.69 114.214 21.7174C114.212 21.7448 114.209 21.7722 114.204 21.7994C114.23 21.8002 114.258 21.798 114.286 21.7926C114.315 21.7862 114.342 21.784 114.369 21.786C114.398 21.7881 114.422 21.7984 114.441 21.8167C114.437 21.8292 114.434 21.8385 114.43 21.8446C114.426 21.8496 114.422 21.8535 114.416 21.8563C114.411 21.858 114.404 21.8586 114.396 21.858C114.388 21.8585 114.379 21.8588 114.367 21.859C114.358 21.8595 114.353 21.8612 114.351 21.8642C114.349 21.8673 114.347 21.8692 114.342 21.87C114.324 21.8729 114.306 21.8742 114.286 21.8738C114.268 21.8746 114.25 21.8749 114.232 21.8747C114.214 21.8755 114.196 21.8768 114.178 21.8786C114.161 21.8806 114.144 21.8841 114.128 21.8893C114.121 21.892 114.112 21.8939 114.099 21.8951C114.087 21.8964 114.074 21.897 114.059 21.897C114.044 21.898 114.029 21.8985 114.013 21.8984C113.998 21.8994 113.985 21.9006 113.973 21.9018C113.958 21.9029 113.939 21.9057 113.917 21.9104C113.894 21.9152 113.873 21.9168 113.854 21.9154C113.839 21.9143 113.828 21.9103 113.818 21.9033C113.81 21.8963 113.807 21.8839 113.808 21.8659C113.809 21.849 113.816 21.8378 113.828 21.8323C113.84 21.8279 113.854 21.8252 113.87 21.8243C113.887 21.8244 113.904 21.8246 113.921 21.8248C113.939 21.8261 113.954 21.8235 113.966 21.817C113.979 21.8105 113.99 21.8023 113.999 21.7924C114.009 21.7825 114.017 21.7725 114.023 21.7623C114.029 21.7521 114.034 21.7435 114.038 21.7363C114.042 21.7281 114.044 21.7229 114.044 21.7208C114.044 21.7155 114.044 21.7107 114.043 21.7064C114.043 21.7022 114.044 21.6975 114.044 21.6922C114.044 21.6869 114.045 21.6833 114.046 21.6812C114.06 21.6483 114.074 21.617 114.089 21.5873C114.105 21.5566 114.118 21.5226 114.129 21.4852C114.131 21.4842 114.131 21.4821 114.131 21.479C114.132 21.4758 114.131 21.4726 114.13 21.4693C114.131 21.4662 114.131 21.4635 114.131 21.4614C114.135 21.4522 114.139 21.4408 114.144 21.4274C114.151 21.413 114.157 21.3981 114.163 21.3826C114.171 21.3672 114.178 21.3513 114.184 21.3348C114.191 21.3184 114.198 21.3029 114.203 21.2884L114.203 21.2821C114.204 21.2779 114.203 21.2742 114.203 21.2709C114.203 21.2677 114.203 21.2646 114.203 21.2614C114.203 21.2572 114.208 21.2511 114.215 21.2432C114.224 21.2343 114.229 21.2225 114.232 21.2078C114.239 21.1829 114.243 21.1587 114.243 21.1354C114.245 21.1122 114.248 21.0896 114.253 21.0677C114.259 21.0405 114.266 21.0145 114.274 20.9897C114.282 20.9648 114.29 20.9404 114.298 20.9166C114.306 20.8928 114.312 20.8694 114.318 20.8465C114.325 20.8226 114.33 20.7986 114.333 20.7743C114.335 20.7554 114.339 20.7361 114.344 20.7163C114.35 20.6966 114.356 20.6769 114.363 20.6572C114.37 20.6365 114.377 20.6158 114.383 20.595C114.389 20.5743 114.394 20.5529 114.397 20.5308C114.399 20.5097 114.404 20.4899 114.412 20.4714C114.419 20.4518 114.425 20.4326 114.428 20.4137C114.433 20.3897 114.436 20.3644 114.438 20.338C114.441 20.3107 114.445 20.285 114.449 20.2609C114.452 20.2494 114.457 20.236 114.465 20.2207C114.473 20.2043 114.478 20.1908 114.479 20.1803C114.479 20.1761 114.477 20.1706 114.472 20.1639C114.468 20.1572 114.466 20.1497 114.467 20.1412C114.467 20.1391 114.472 20.1347 114.481 20.1279C114.49 20.1201 114.501 20.1114 114.516 20.1018C114.53 20.0912 114.546 20.0802 114.564 20.0688C114.582 20.0573 114.6 20.0465 114.619 20.0362C114.62 20.0352 114.623 20.0349 114.628 20.0353C114.635 20.0357 114.642 20.0362 114.649 20.0368C114.658 20.0375 114.666 20.0385 114.671 20.04C114.676 20.0404 114.679 20.0427 114.68 20.047C114.682 20.0503 114.683 20.0557 114.682 20.0631C114.682 20.0705 114.681 20.0805 114.68 20.0932C114.679 20.1048 114.678 20.1169 114.676 20.1295C114.675 20.1411 114.675 20.1532 114.674 20.1659C114.673 20.1807 114.672 20.1929 114.673 20.2025C114.673 20.211 114.674 20.2195 114.674 20.228C114.676 20.2356 114.678 20.2431 114.679 20.2507C114.682 20.2583 114.684 20.2675 114.687 20.2783C114.689 20.2891 114.691 20.3019 114.692 20.3169C114.694 20.3307 114.697 20.3459 114.704 20.3623C114.705 20.3666 114.709 20.3738 114.715 20.3838C114.721 20.3927 114.724 20.3982 114.725 20.4004C114.731 20.4242 114.733 20.4482 114.731 20.4725C114.73 20.4957 114.732 20.5193 114.739 20.5431C114.741 20.5475 114.745 20.5525 114.751 20.5583C114.758 20.5641 114.761 20.5686 114.761 20.5718C114.761 20.5739 114.76 20.5765 114.759 20.5796C114.759 20.5827 114.759 20.5854 114.759 20.5875C114.758 20.5907 114.759 20.5923 114.76 20.5924C114.767 20.5992 114.772 20.6103 114.777 20.6254C114.781 20.6406 114.785 20.6578 114.788 20.6771C114.791 20.6954 114.793 20.7147 114.795 20.735C114.798 20.7543 114.802 20.7715 114.806 20.7867C114.808 20.7964 114.811 20.8062 114.815 20.816C114.82 20.8248 114.824 20.8352 114.827 20.8471C114.829 20.8557 114.83 20.8659 114.83 20.8776C114.83 20.8882 114.832 20.8979 114.834 20.9065C114.84 20.9282 114.85 20.9538 114.863 20.9834C114.877 21.0131 114.887 21.0446 114.895 21.0781L114.893 21.0971C114.893 21.1044 114.896 21.1158 114.902 21.1311C114.91 21.1455 114.917 21.1598 114.923 21.174C114.929 21.1968 114.933 21.2225 114.936 21.2513C114.938 21.2791 114.942 21.3059 114.948 21.3318C114.95 21.3351 114.954 21.3396 114.96 21.3454C114.967 21.3502 114.971 21.3536 114.972 21.3558C114.972 21.3622 114.972 21.3707 114.971 21.3813C114.972 21.3919 114.972 21.4025 114.972 21.4132C114.974 21.4239 114.976 21.4331 114.98 21.4408C114.985 21.4486 114.993 21.4528 115.003 21.4536C115.013 21.4543 115.023 21.4487 115.035 21.4368C115.047 21.4239 115.059 21.4084 115.071 21.3902C115.084 21.372 115.096 21.3533 115.108 21.334C115.121 21.3148 115.132 21.2986 115.142 21.2855C115.143 21.2835 115.149 21.2765 115.159 21.2645C115.169 21.2515 115.181 21.2364 115.194 21.2193C115.196 21.2142 115.198 21.2085 115.2 21.2022C115.201 21.1949 115.204 21.1887 115.207 21.1837C115.21 21.1817 115.213 21.1804 115.219 21.1797C115.225 21.1781 115.23 21.1763 115.232 21.1743C115.236 21.1694 115.238 21.1637 115.238 21.1573C115.238 21.1499 115.241 21.1443 115.247 21.1404C115.249 21.1374 115.253 21.1356 115.258 21.1349C115.265 21.1343 115.269 21.1325 115.271 21.1295C115.276 21.1245 115.278 21.1188 115.277 21.1124C115.277 21.1049 115.279 21.0988 115.285 21.0939C115.287 21.0919 115.291 21.0906 115.298 21.09C115.304 21.0884 115.308 21.0866 115.309 21.0845C115.319 21.0704 115.326 21.0539 115.33 21.0351C115.335 21.0153 115.342 20.9973 115.353 20.9811C115.354 20.979 115.358 20.9777 115.364 20.9771C115.371 20.9755 115.374 20.9736 115.376 20.9716C115.382 20.9614 115.385 20.9538 115.387 20.9485C115.388 20.9433 115.393 20.9352 115.403 20.9243C115.411 20.9142 115.42 20.9053 115.43 20.8976C115.44 20.8888 115.448 20.8793 115.454 20.8691C115.46 20.8621 115.462 20.8549 115.462 20.8474C115.461 20.8389 115.464 20.8306 115.47 20.8225C115.475 20.8144 115.483 20.8054 115.494 20.7957C115.505 20.7848 115.514 20.7711 115.521 20.7546C115.526 20.738 115.539 20.7204 115.559 20.7018C115.579 20.682 115.597 20.6626 115.611 20.6435C115.625 20.6243 115.636 20.6082 115.646 20.5951C115.655 20.5809 115.663 20.5683 115.671 20.5571C115.679 20.5461 115.687 20.535 115.695 20.5239C115.704 20.5119 115.716 20.4989 115.729 20.485C115.736 20.4771 115.745 20.4687 115.757 20.46C115.768 20.4502 115.78 20.4362 115.793 20.4181C115.795 20.414 115.797 20.4083 115.799 20.401C115.8 20.3937 115.803 20.388 115.806 20.384C115.813 20.3771 115.822 20.3719 115.833 20.3685C115.843 20.365 115.852 20.3593 115.858 20.3512C115.872 20.3331 115.883 20.3138 115.892 20.2932C115.901 20.2716 115.911 20.2522 115.923 20.235C115.934 20.2168 115.949 20.2024 115.965 20.192C115.982 20.1815 116.005 20.1774 116.036 20.1796C116.061 20.1815 116.078 20.1902 116.087 20.2056C116.095 20.2201 116.099 20.2378 116.098 20.2589C116.096 20.2769 116.093 20.2963 116.087 20.3171C116.082 20.3379 116.076 20.3587 116.069 20.3794C116.062 20.4012 116.056 20.4262 116.051 20.4545C116.047 20.4828 116.043 20.5133 116.039 20.5459C116.036 20.5775 116.032 20.6101 116.029 20.6438C116.027 20.6776 116.024 20.7114 116.021 20.7451C116.015 20.804 116.004 20.8621 115.988 20.9194C115.974 20.9767 115.965 21.0338 115.961 21.0908C115.96 21.1046 115.959 21.1183 115.958 21.132C115.958 21.1458 115.958 21.1596 115.957 21.1733C115.956 21.1944 115.952 21.2122 115.947 21.2267C115.942 21.2401 115.939 21.2558 115.938 21.2737C115.937 21.2885 115.938 21.305 115.941 21.3233C115.944 21.3415 115.945 21.357 115.944 21.3697C115.939 21.382 115.934 21.3986 115.928 21.4194C115.923 21.4392 115.917 21.461 115.911 21.485C115.906 21.5091 115.902 21.5348 115.898 21.562C115.894 21.5883 115.891 21.6146 115.889 21.641C115.889 21.6516 115.89 21.6638 115.892 21.6778C115.895 21.6908 115.897 21.7015 115.896 21.7099C115.895 21.7268 115.892 21.743 115.886 21.7585C115.881 21.773 115.878 21.7876 115.877 21.8024C115.876 21.8151 115.878 21.8269 115.881 21.8377C115.885 21.8486 115.889 21.8585 115.894 21.8673C115.899 21.8751 115.905 21.8814 115.911 21.8861C115.917 21.8908 115.923 21.8933 115.927 21.8936C115.936 21.8943 115.947 21.894 115.96 21.8929C115.973 21.8906 115.986 21.8884 115.999 21.8861C116.012 21.8828 116.023 21.8805 116.033 21.8791C116.042 21.8766 116.049 21.8755 116.052 21.8757C116.058 21.8772 116.064 21.8808 116.07 21.8866C116.077 21.8914 116.083 21.8965 116.087 21.9021ZM117.363 21.6565C117.37 21.6644 117.373 21.6732 117.372 21.6827C117.371 21.6985 117.366 21.7124 117.355 21.7244C117.345 21.7353 117.332 21.746 117.317 21.7566C117.302 21.7661 117.286 21.7761 117.268 21.7865C117.252 21.7969 117.236 21.8096 117.221 21.8244C117.202 21.8442 117.179 21.8669 117.153 21.8926C117.128 21.9173 117.108 21.9429 117.092 21.9693C117.09 21.9744 117.082 21.984 117.07 21.9979C117.058 22.0119 117.044 22.0268 117.027 22.0425C117.011 22.0583 116.993 22.0719 116.974 22.0832C116.955 22.0945 116.937 22.0996 116.92 22.0983C116.908 22.0975 116.897 22.0945 116.886 22.0895C116.875 22.0855 116.866 22.08 116.857 22.073C116.847 22.067 116.84 22.0601 116.834 22.0523C116.829 22.0455 116.827 22.039 116.827 22.0327C116.828 22.0232 116.832 22.0139 116.84 22.005C116.849 21.9961 116.855 21.9816 116.856 21.9616C116.856 21.9563 116.856 21.9525 116.854 21.9503C116.853 21.9481 116.851 21.9453 116.849 21.942C116.848 21.9387 116.848 21.9344 116.847 21.9291C116.846 21.9237 116.846 21.9152 116.847 21.9036C116.848 21.892 116.85 21.88 116.854 21.8676C116.859 21.8541 116.865 21.8407 116.87 21.8273C116.876 21.8129 116.881 21.799 116.885 21.7855C116.89 21.771 116.893 21.7569 116.894 21.7432C116.895 21.74 116.894 21.7368 116.893 21.7335C116.894 21.7293 116.894 21.7256 116.894 21.7225C116.895 21.7161 116.897 21.7067 116.901 21.6943C116.905 21.6819 116.909 21.6684 116.915 21.6539C116.92 21.6395 116.925 21.6239 116.929 21.6072C116.933 21.5895 116.936 21.5727 116.937 21.5569C116.938 21.5368 116.937 21.5198 116.934 21.5058C116.922 21.5091 116.912 21.5147 116.903 21.5226C116.894 21.5293 116.885 21.5377 116.877 21.5478C116.87 21.5568 116.863 21.5668 116.854 21.5779C116.847 21.588 116.84 21.5975 116.832 21.6065C116.827 21.6115 116.819 21.6178 116.808 21.6255C116.797 21.6331 116.786 21.6413 116.773 21.65C116.762 21.6587 116.752 21.6675 116.743 21.6764C116.734 21.6842 116.729 21.6908 116.729 21.696C116.729 21.6982 116.729 21.7008 116.73 21.7041C116.731 21.7073 116.731 21.71 116.731 21.7121C116.731 21.7153 116.728 21.7198 116.722 21.7258C116.716 21.7317 116.71 21.7382 116.703 21.7451C116.698 21.7511 116.692 21.757 116.686 21.763C116.681 21.7678 116.678 21.7713 116.678 21.7735C116.676 21.785 116.666 21.7954 116.648 21.8048C116.631 21.813 116.615 21.8241 116.602 21.8379C116.592 21.8478 116.583 21.8583 116.576 21.8695C116.569 21.8806 116.562 21.8907 116.556 21.8999C116.55 21.909 116.545 21.9165 116.539 21.9225C116.533 21.9273 116.527 21.9295 116.519 21.929C116.517 21.9288 116.514 21.928 116.508 21.9266C116.504 21.9252 116.501 21.9244 116.497 21.9242C116.49 21.9237 116.485 21.9281 116.482 21.9374C116.48 21.9468 116.478 21.9541 116.476 21.9592C116.467 21.9723 116.456 21.9822 116.444 21.9887C116.433 21.9943 116.418 22.0028 116.401 22.0142C116.393 22.0189 116.387 22.0244 116.384 22.0305C116.381 22.0377 116.378 22.0438 116.373 22.0488C116.368 22.0537 116.361 22.0575 116.352 22.0599C116.343 22.0635 116.329 22.0647 116.31 22.0633C116.299 22.0625 116.289 22.0607 116.28 22.0579C116.271 22.0551 116.266 22.0516 116.266 22.0473C116.267 22.0452 116.267 22.0426 116.269 22.0395C116.27 22.0365 116.271 22.0339 116.271 22.0317C116.271 22.0307 116.269 22.0284 116.265 22.0249C116.261 22.0215 116.256 22.0163 116.25 22.0095C116.245 22.0039 116.241 21.9961 116.237 21.9863C116.234 21.9755 116.232 21.9626 116.233 21.9478C116.234 21.931 116.237 21.9136 116.242 21.8959C116.247 21.8772 116.253 21.8591 116.258 21.8414C116.264 21.8239 116.27 21.8073 116.276 21.7918C116.281 21.7752 116.285 21.7596 116.288 21.745C116.295 21.7104 116.299 21.6752 116.302 21.6393C116.304 21.6034 116.312 21.5716 116.325 21.544C116.331 21.5338 116.338 21.52 116.346 21.5025C116.353 21.485 116.36 21.4643 116.367 21.4404C116.369 21.4342 116.371 21.4253 116.374 21.4139C116.377 21.4013 116.38 21.3878 116.385 21.3733C116.389 21.3587 116.393 21.3442 116.397 21.3296C116.402 21.3141 116.408 21.3007 116.414 21.2895C116.416 21.2865 116.42 21.283 116.426 21.2792C116.432 21.2744 116.437 21.2705 116.439 21.2675C116.442 21.2613 116.443 21.2545 116.444 21.2471C116.445 21.2387 116.449 21.2305 116.453 21.2223C116.456 21.2183 116.46 21.2144 116.467 21.2106C116.474 21.2058 116.478 21.2018 116.479 21.1987C116.485 21.1896 116.489 21.1783 116.492 21.1647C116.495 21.1511 116.5 21.1398 116.507 21.1308C116.512 21.1248 116.52 21.12 116.53 21.1166C116.541 21.1121 116.55 21.1058 116.557 21.0978C116.563 21.0908 116.567 21.0832 116.57 21.0749C116.574 21.0667 116.578 21.0596 116.582 21.0535C116.595 21.0417 116.605 21.0313 116.613 21.0224C116.622 21.0124 116.63 21.0034 116.637 20.9955C116.645 20.9876 116.652 20.9801 116.659 20.9732C116.666 20.9663 116.675 20.9595 116.685 20.9528C116.691 20.949 116.699 20.9416 116.708 20.9306C116.719 20.9197 116.727 20.9124 116.735 20.9087C116.744 20.9062 116.751 20.9041 116.758 20.9024C116.765 20.9009 116.774 20.8967 116.784 20.89C116.786 20.8881 116.789 20.884 116.791 20.8778C116.794 20.8706 116.796 20.8665 116.798 20.8656C116.806 20.863 116.813 20.8609 116.82 20.8592C116.827 20.8576 116.836 20.853 116.846 20.8452C116.858 20.8355 116.868 20.8256 116.875 20.8155C116.882 20.8054 116.89 20.797 116.899 20.7902C116.908 20.7845 116.918 20.781 116.928 20.7796C116.939 20.7783 116.949 20.7753 116.958 20.7706C116.974 20.7634 116.99 20.7534 117.007 20.7409C117.025 20.7273 117.043 20.7143 117.062 20.7019C117.081 20.6884 117.1 20.6777 117.12 20.6695C117.141 20.6605 117.162 20.6567 117.183 20.6582C117.197 20.6592 117.21 20.6592 117.224 20.6581C117.239 20.656 117.253 20.6554 117.266 20.6563C117.277 20.6572 117.288 20.6601 117.297 20.665C117.306 20.6699 117.31 20.6792 117.309 20.6929C117.307 20.7331 117.299 20.7776 117.286 20.8265C117.273 20.8754 117.259 20.928 117.244 20.9842C117.23 21.0404 117.216 21.0999 117.202 21.1625C117.189 21.2252 117.181 21.2904 117.176 21.358C117.176 21.3601 117.176 21.3633 117.177 21.3676C117.179 21.372 117.18 21.3784 117.179 21.3868C117.179 21.3932 117.176 21.401 117.173 21.4102C117.17 21.4185 117.167 21.4273 117.163 21.4366C117.159 21.4448 117.155 21.453 117.152 21.4612C117.149 21.4695 117.148 21.4768 117.147 21.4832C117.146 21.4937 117.146 21.5043 117.145 21.5148C117.145 21.5255 117.145 21.535 117.145 21.5435C117.143 21.5614 117.14 21.5813 117.134 21.6032C117.129 21.625 117.122 21.6479 117.114 21.6717C117.107 21.6945 117.101 21.7174 117.095 21.7403C117.089 21.7633 117.086 21.7847 117.084 21.8048C117.084 21.8154 117.084 21.8254 117.084 21.835C117.084 21.8435 117.086 21.8521 117.089 21.8608C117.103 21.8555 117.114 21.8484 117.123 21.8395C117.134 21.8307 117.143 21.8207 117.151 21.8097C117.16 21.7976 117.169 21.785 117.179 21.7719C117.188 21.7578 117.2 21.7433 117.215 21.7284C117.221 21.7225 117.229 21.7146 117.239 21.7047C117.249 21.6949 117.26 21.6856 117.271 21.6768C117.282 21.6681 117.294 21.6605 117.306 21.6539C117.318 21.6474 117.329 21.6445 117.34 21.6453C117.347 21.6458 117.355 21.6496 117.363 21.6565ZM117.05 20.814C117.047 20.8138 117.044 20.8136 117.041 20.8133C117.037 20.812 117.035 20.8113 117.033 20.8112C117.017 20.81 117.004 20.8139 116.995 20.8227C116.987 20.8307 116.981 20.8344 116.976 20.834C116.973 20.8339 116.971 20.8337 116.968 20.8334C116.965 20.8322 116.961 20.8314 116.958 20.8312C116.953 20.8308 116.95 20.8338 116.95 20.8401C116.949 20.8454 116.946 20.8494 116.941 20.8522C116.936 20.8572 116.93 20.8594 116.923 20.8588C116.916 20.8572 116.91 20.8584 116.905 20.8623C116.9 20.8672 116.894 20.8753 116.888 20.8865C116.883 20.8967 116.875 20.9073 116.865 20.9182C116.856 20.9271 116.845 20.9348 116.832 20.9413C116.82 20.9478 116.81 20.9545 116.803 20.9615C116.801 20.9655 116.798 20.9717 116.796 20.98C116.794 20.9873 116.792 20.993 116.79 20.9971C116.78 21.0112 116.769 21.0284 116.754 21.0486C116.742 21.0678 116.727 21.088 116.712 21.1092C116.697 21.1304 116.682 21.151 116.667 21.1711C116.653 21.1902 116.641 21.2074 116.632 21.2226C116.622 21.2368 116.615 21.2538 116.611 21.2736C116.606 21.2935 116.602 21.3144 116.599 21.3364C116.596 21.3574 116.594 21.3779 116.591 21.3979C116.589 21.4169 116.586 21.4325 116.582 21.445C116.557 21.5132 116.533 21.582 116.511 21.6514C116.489 21.7199 116.476 21.7868 116.472 21.8523C116.494 21.8508 116.512 21.8436 116.524 21.8307C116.538 21.8168 116.549 21.8012 116.558 21.7838C116.566 21.7664 116.574 21.7495 116.582 21.733C116.589 21.7166 116.599 21.7046 116.611 21.697C116.62 21.6923 116.629 21.6855 116.638 21.6767C116.648 21.6679 116.657 21.6595 116.663 21.6515C116.667 21.6475 116.669 21.6423 116.669 21.636C116.67 21.6286 116.672 21.6224 116.677 21.6174C116.684 21.6105 116.692 21.6031 116.701 21.5953C116.711 21.5876 116.721 21.5798 116.731 21.5721C116.741 21.5643 116.75 21.557 116.758 21.5502C116.767 21.5423 116.773 21.5359 116.778 21.531C116.783 21.526 116.785 21.5182 116.786 21.5077C116.788 21.4961 116.79 21.4878 116.792 21.4827C116.804 21.4634 116.817 21.4463 116.831 21.4314C116.845 21.4154 116.858 21.3989 116.871 21.3818C116.892 21.3536 116.909 21.3257 116.924 21.2981C116.94 21.2706 116.953 21.2425 116.965 21.2136C116.976 21.1847 116.987 21.1552 116.996 21.1252C117.005 21.094 117.015 21.0608 117.025 21.0254C117.03 21.0046 117.037 20.9823 117.044 20.9584C117.052 20.9345 117.056 20.91 117.058 20.8846C117.06 20.8582 117.057 20.8347 117.05 20.814ZM118.669 20.8481C118.671 20.8547 118.673 20.8606 118.672 20.8659C118.671 20.8785 118.664 20.8907 118.651 20.9025C118.638 20.9143 118.626 20.9304 118.614 20.9507C118.609 20.9589 118.607 20.9683 118.608 20.9789C118.608 20.9885 118.605 20.9989 118.599 21.0101C118.594 21.0182 118.589 21.0237 118.584 21.0265C118.579 21.0293 118.575 21.0322 118.57 21.0351C118.567 21.0369 118.564 21.0399 118.56 21.0439C118.558 21.0479 118.556 21.0547 118.556 21.0642C118.555 21.0727 118.555 21.0806 118.556 21.0881C118.556 21.0956 118.556 21.1019 118.556 21.1072C118.555 21.1157 118.552 21.1255 118.545 21.1366C118.538 21.1478 118.53 21.16 118.52 21.173C118.511 21.185 118.501 21.1976 118.49 21.2106C118.48 21.2236 118.471 21.2363 118.464 21.2485C118.459 21.2566 118.456 21.2649 118.454 21.2732C118.454 21.2806 118.452 21.2879 118.448 21.2951C118.439 21.3135 118.429 21.3319 118.417 21.3501C118.407 21.3674 118.396 21.3836 118.386 21.3987C118.376 21.4129 118.367 21.425 118.359 21.435C118.351 21.445 118.346 21.4515 118.344 21.4545C118.337 21.4604 118.333 21.467 118.333 21.4744C118.333 21.4808 118.332 21.4892 118.328 21.4995L118.303 21.5454C118.3 21.5474 118.295 21.5491 118.288 21.5507C118.281 21.5524 118.278 21.5542 118.278 21.5563C118.274 21.5624 118.27 21.5695 118.264 21.5776C118.259 21.5857 118.254 21.5939 118.25 21.602C118.241 21.6152 118.236 21.6297 118.234 21.6454C118.232 21.6612 118.228 21.6736 118.222 21.6827C118.216 21.6908 118.206 21.6996 118.191 21.7092C118.178 21.7177 118.167 21.727 118.158 21.7369C118.131 21.7721 118.111 21.7998 118.097 21.82C118.083 21.8391 118.073 21.8532 118.067 21.8624C118.065 21.8643 118.06 21.8661 118.052 21.8677C118.046 21.8682 118.042 21.8707 118.042 21.8749C118.042 21.877 118.042 21.8796 118.042 21.8828C118.042 21.885 118.043 21.8871 118.043 21.8892C118.042 21.8935 118.041 21.897 118.037 21.9C118.034 21.9019 118.031 21.9048 118.027 21.9088C118.024 21.9117 118.02 21.9157 118.017 21.9208C118.013 21.9258 118.011 21.9331 118.011 21.9426C118.01 21.9574 118.009 21.9732 118.009 21.9902C118.01 22.0073 118.01 22.0237 118.009 22.0395C118.008 22.0512 118.007 22.0617 118.005 22.0711C118.003 22.0805 118.002 22.0926 118.001 22.1074C118 22.1306 117.998 22.1581 117.997 22.1899C117.997 22.2217 117.996 22.254 117.994 22.2867C117.993 22.3005 117.992 22.3136 117.99 22.3262C117.989 22.3399 117.987 22.3531 117.986 22.3657C117.982 22.3866 117.976 22.4058 117.967 22.4232C117.96 22.4418 117.955 22.4616 117.954 22.4827C117.953 22.4933 117.953 22.5028 117.954 22.5113C117.954 22.5209 117.954 22.5299 117.953 22.5384C117.952 22.5542 117.947 22.5676 117.938 22.5786C117.929 22.5896 117.919 22.6038 117.91 22.6211C117.901 22.6354 117.894 22.6476 117.888 22.6577C117.883 22.668 117.878 22.6777 117.872 22.6868C117.866 22.6959 117.859 22.7049 117.849 22.7138C117.841 22.7238 117.831 22.7347 117.817 22.7464L117.692 22.8551C117.681 22.8649 117.668 22.8767 117.655 22.8905C117.641 22.9044 117.632 22.9111 117.626 22.9107C117.624 22.9106 117.622 22.9099 117.619 22.9086C117.615 22.9083 117.613 22.9081 117.611 22.908C117.607 22.9078 117.606 22.9082 117.606 22.9092C117.593 22.921 117.575 22.9298 117.55 22.9354C117.525 22.942 117.497 22.9464 117.466 22.9484C117.435 22.9503 117.404 22.9507 117.371 22.9493C117.338 22.948 117.308 22.9464 117.282 22.9444C117.278 22.9441 117.274 22.9417 117.271 22.9373C117.269 22.9328 117.264 22.9304 117.259 22.93C117.257 22.932 117.255 22.9345 117.254 22.9376C117.254 22.9418 117.246 22.9434 117.231 22.9423C117.217 22.9412 117.202 22.9386 117.189 22.9344C117.174 22.9302 117.159 22.9259 117.142 22.9215C117.138 22.9211 117.134 22.9209 117.131 22.9206C117.127 22.9214 117.122 22.9216 117.117 22.9212C117.108 22.9206 117.103 22.918 117.1 22.9136C117.096 22.909 117.093 22.9067 117.091 22.9065C117.082 22.9059 117.076 22.9071 117.073 22.91C117.069 22.914 117.063 22.9157 117.055 22.9151C117.047 22.9145 117.041 22.9119 117.038 22.9075C117.035 22.9041 117.03 22.9021 117.024 22.9017C117.012 22.9019 116.998 22.9046 116.982 22.9098C116.966 22.9149 116.951 22.9171 116.939 22.9161C116.927 22.9153 116.919 22.911 116.914 22.9032C116.909 22.8954 116.907 22.8873 116.908 22.8789C116.909 22.8694 116.913 22.8575 116.921 22.8432C116.93 22.8301 116.94 22.816 116.953 22.801C116.964 22.7859 116.977 22.7704 116.991 22.7544C117.004 22.7394 117.015 22.7254 117.024 22.7123C117.025 22.7103 117.031 22.7043 117.043 22.6946C117.053 22.6847 117.068 22.6683 117.089 22.6454C117.093 22.6405 117.095 22.6342 117.095 22.6268C117.094 22.6204 117.097 22.6152 117.102 22.6114C117.108 22.6065 117.112 22.6047 117.115 22.606C117.118 22.6073 117.122 22.6054 117.127 22.6005C117.135 22.5926 117.141 22.5851 117.146 22.578C117.151 22.5709 117.157 22.5634 117.166 22.5556C117.174 22.5488 117.183 22.5425 117.193 22.5369C117.203 22.5323 117.21 22.528 117.215 22.5241C117.221 22.5172 117.226 22.508 117.228 22.4964C117.229 22.4859 117.232 22.4755 117.236 22.4652C117.239 22.4559 117.244 22.4478 117.252 22.4409C117.259 22.434 117.271 22.4311 117.288 22.4324C117.3 22.4333 117.308 22.4386 117.31 22.4484C117.314 22.4592 117.316 22.4657 117.315 22.4678C117.315 22.4795 117.31 22.4882 117.303 22.494C117.295 22.4997 117.286 22.5044 117.276 22.5079C117.266 22.5115 117.258 22.514 117.25 22.5156C117.243 22.5172 117.239 22.519 117.239 22.5211C117.238 22.5264 117.24 22.5313 117.244 22.5358C117.248 22.5404 117.25 22.5442 117.25 22.5474C117.25 22.5548 117.245 22.5667 117.235 22.5829C117.223 22.599 117.21 22.6145 117.196 22.6294C117.183 22.6454 117.17 22.6588 117.159 22.6696C117.147 22.6815 117.142 22.687 117.142 22.6859C117.141 22.6975 117.146 22.7063 117.156 22.7124C117.165 22.7184 117.178 22.7235 117.193 22.7278C117.208 22.7321 117.224 22.736 117.243 22.7395C117.261 22.744 117.278 22.7489 117.295 22.7544C117.313 22.761 117.337 22.7676 117.367 22.774C117.397 22.7815 117.428 22.7864 117.461 22.7888C117.485 22.7906 117.51 22.7908 117.534 22.7894C117.559 22.788 117.581 22.7838 117.602 22.7768C117.604 22.777 117.605 22.7755 117.605 22.7723C117.607 22.7703 117.61 22.7684 117.615 22.7667C117.627 22.7644 117.636 22.7634 117.641 22.7638C117.647 22.7653 117.658 22.764 117.675 22.7599C117.682 22.7604 117.689 22.7572 117.694 22.7502C117.7 22.7442 117.703 22.7397 117.703 22.7365C117.704 22.7302 117.704 22.7228 117.703 22.7142C117.702 22.7068 117.702 22.7004 117.703 22.6951C117.703 22.6877 117.706 22.6805 117.711 22.6734C117.715 22.6674 117.72 22.6598 117.725 22.6506C117.731 22.6425 117.736 22.6328 117.741 22.6215C117.746 22.6113 117.749 22.5988 117.75 22.584C117.751 22.5745 117.751 22.5639 117.75 22.5522C117.751 22.5406 117.752 22.5284 117.753 22.5158C117.754 22.5031 117.755 22.4899 117.757 22.4763C117.759 22.4626 117.763 22.448 117.768 22.4325C117.769 22.4284 117.771 22.4248 117.773 22.4218C117.776 22.4198 117.778 22.4179 117.78 22.4159C117.782 22.4139 117.785 22.4109 117.787 22.4069C117.79 22.4028 117.792 22.3966 117.795 22.3883C117.798 22.3737 117.801 22.3574 117.803 22.3396C117.805 22.3228 117.807 22.3038 117.808 22.2827C117.81 22.251 117.811 22.2171 117.812 22.1811C117.812 22.1461 117.812 22.1116 117.812 22.0777C117.812 22.0437 117.812 22.0119 117.812 21.9822C117.812 21.9514 117.813 21.9255 117.814 21.9044C117.815 21.8896 117.818 21.8781 117.823 21.87C117.828 21.8618 117.83 21.8572 117.83 21.8562C117.83 21.853 117.829 21.846 117.827 21.8353C117.825 21.8245 117.823 21.8127 117.821 21.7998C117.819 21.7859 117.817 21.7719 117.814 21.758C117.813 21.743 117.813 21.7303 117.814 21.7197C117.814 21.7113 117.815 21.7034 117.815 21.696C117.817 21.6876 117.818 21.6792 117.819 21.6707C117.82 21.6496 117.818 21.6277 117.813 21.6051C117.81 21.5815 117.807 21.5574 117.804 21.5328C117.801 21.5039 117.799 21.4788 117.798 21.4576C117.797 21.4352 117.796 21.4118 117.793 21.3872C117.79 21.3626 117.786 21.3337 117.781 21.3004C117.776 21.2671 117.768 21.2246 117.756 21.1728C117.751 21.1513 117.749 21.1304 117.749 21.1103C117.75 21.0901 117.747 21.0713 117.74 21.0539C117.739 21.0517 117.737 21.0505 117.734 21.0503C117.731 21.05 117.73 21.0468 117.73 21.0404C117.73 21.0351 117.729 21.0287 117.725 21.021C117.722 21.0123 117.719 21.004 117.714 20.9963C117.71 20.9875 117.706 20.9803 117.7 20.9745C117.694 20.9688 117.688 20.9657 117.683 20.9653C117.668 20.9642 117.655 20.9708 117.645 20.9848C117.635 20.999 117.624 21.0146 117.611 21.0317C117.607 21.0367 117.6 21.042 117.591 21.0478C117.583 21.0536 117.577 21.0589 117.573 21.0639C117.568 21.071 117.565 21.0788 117.565 21.0872C117.564 21.0957 117.563 21.1035 117.562 21.1108C117.561 21.1172 117.559 21.1228 117.554 21.1278C117.551 21.1318 117.544 21.1334 117.533 21.1326C117.529 21.1365 117.523 21.1414 117.516 21.1473C117.51 21.1521 117.503 21.158 117.496 21.1649C117.491 21.1699 117.488 21.1755 117.487 21.1818C117.487 21.187 117.485 21.1928 117.483 21.199C117.481 21.2042 117.478 21.2087 117.474 21.2126C117.47 21.2156 117.464 21.2167 117.454 21.216C117.45 21.2157 117.445 21.2148 117.44 21.2134C117.435 21.2109 117.433 21.2054 117.433 21.197C117.434 21.1864 117.437 21.1765 117.442 21.1673C117.448 21.1572 117.455 21.1476 117.463 21.1386C117.471 21.1297 117.479 21.1207 117.488 21.1119C117.497 21.103 117.506 21.0935 117.514 21.0835C117.518 21.0763 117.522 21.0676 117.525 21.0573C117.53 21.047 117.54 21.0334 117.554 21.0164C117.556 21.0123 117.56 21.0083 117.566 21.0045C117.571 21.0007 117.575 20.9967 117.577 20.9926C117.581 20.9897 117.583 20.9846 117.585 20.9773C117.586 20.97 117.589 20.9638 117.592 20.9587C117.597 20.9538 117.603 20.9505 117.611 20.9489C117.618 20.9463 117.625 20.9431 117.63 20.9392C117.634 20.9342 117.636 20.9285 117.636 20.9221C117.637 20.9148 117.639 20.9086 117.644 20.9036C117.653 20.8937 117.661 20.8863 117.669 20.8816C117.677 20.8768 117.685 20.8695 117.694 20.8596C117.699 20.8535 117.705 20.8439 117.712 20.8306C117.721 20.8164 117.731 20.8023 117.742 20.7883C117.754 20.7743 117.768 20.7625 117.784 20.7531C117.801 20.7427 117.821 20.7383 117.844 20.74C117.851 20.7427 117.859 20.7496 117.868 20.7609C117.878 20.7722 117.885 20.7823 117.89 20.7911C117.893 20.803 117.894 20.8163 117.892 20.8311C117.89 20.8447 117.891 20.8591 117.895 20.8743C117.896 20.8775 117.9 20.882 117.906 20.8878C117.912 20.8935 117.916 20.8975 117.918 20.8998C117.921 20.9149 117.922 20.9282 117.92 20.9397C117.918 20.9502 117.919 20.9646 117.923 20.9829C117.923 20.985 117.925 20.9867 117.928 20.988C117.932 20.9883 117.934 20.9911 117.933 20.9964C117.936 21.0093 117.939 21.0218 117.944 21.0338C117.949 21.0448 117.954 21.0574 117.959 21.0715C117.963 21.0845 117.966 21.1007 117.968 21.1199C117.971 21.1382 117.972 21.161 117.97 21.1885C117.968 21.2128 117.966 21.2322 117.961 21.2467C117.958 21.2613 117.956 21.2755 117.955 21.2892C117.955 21.2998 117.955 21.3099 117.957 21.3196C117.959 21.3293 117.964 21.3413 117.97 21.3556C117.975 21.3655 117.981 21.3733 117.988 21.3791C117.995 21.385 117.999 21.3938 118.002 21.4056C118.008 21.4337 118.01 21.4635 118.005 21.495C118.002 21.5256 118.001 21.5552 118.003 21.5839C118.004 21.6148 118.007 21.6442 118.011 21.6721C118.016 21.7 118.017 21.7277 118.015 21.7551L118.014 21.7741C118.022 21.7737 118.03 21.7705 118.037 21.7647C118.043 21.7588 118.05 21.7518 118.056 21.7438C118.061 21.7357 118.067 21.7266 118.072 21.7163C118.078 21.7061 118.084 21.696 118.091 21.6859C118.094 21.6808 118.098 21.6763 118.103 21.6725C118.11 21.6687 118.114 21.6653 118.117 21.6623C118.122 21.651 118.126 21.638 118.129 21.6234C118.133 21.6078 118.138 21.5939 118.144 21.5816C118.158 21.5571 118.172 21.5327 118.189 21.5084C118.205 21.4842 118.222 21.4594 118.238 21.4341L118.239 21.4309C118.239 21.4288 118.238 21.4261 118.238 21.4229C118.238 21.4197 118.238 21.4171 118.238 21.415C118.238 21.4129 118.239 21.4113 118.24 21.4103C118.25 21.4036 118.257 21.3941 118.261 21.3816C118.266 21.3682 118.27 21.3542 118.272 21.3395C118.275 21.3248 118.278 21.3097 118.281 21.294C118.284 21.2783 118.29 21.2633 118.298 21.2491C118.3 21.246 118.302 21.2451 118.305 21.2464C118.308 21.2466 118.31 21.2436 118.31 21.2372C118.31 21.2362 118.31 21.2351 118.309 21.234C118.309 21.2329 118.309 21.2313 118.309 21.2292C118.31 21.225 118.314 21.2179 118.323 21.208C118.333 21.198 118.337 21.1904 118.338 21.1851C118.338 21.182 118.338 21.1788 118.337 21.1755C118.337 21.1713 118.337 21.1676 118.337 21.1644C118.337 21.1655 118.342 21.1594 118.35 21.1462C118.358 21.132 118.364 21.1165 118.367 21.0998C118.368 21.0955 118.366 21.0901 118.362 21.0835C118.359 21.0758 118.358 21.0688 118.357 21.0624C118.356 21.0454 118.354 21.034 118.35 21.0285C118.346 21.0218 118.34 21.0182 118.333 21.0177C118.323 21.017 118.313 21.0189 118.301 21.0233C118.289 21.0277 118.277 21.0295 118.265 21.0287C118.26 21.0283 118.255 21.0274 118.25 21.0259C118.245 21.0234 118.242 21.0179 118.243 21.0095C118.244 20.9926 118.249 20.9797 118.257 20.9707C118.266 20.9618 118.276 20.9552 118.288 20.9507C118.3 20.9463 118.313 20.9425 118.327 20.9393C118.341 20.935 118.354 20.9291 118.366 20.9215C118.375 20.9157 118.382 20.9115 118.386 20.9086C118.391 20.9057 118.397 20.903 118.404 20.9004C118.413 20.8968 118.426 20.8924 118.442 20.8872C118.458 20.881 118.482 20.8721 118.514 20.8606C118.529 20.8511 118.545 20.8422 118.56 20.8338C118.576 20.8254 118.596 20.8221 118.619 20.8238C118.63 20.8246 118.639 20.8268 118.648 20.8306C118.657 20.8334 118.664 20.8393 118.669 20.8481Z" fill="#941FCB"/>
<path d="M137.001 21.67C137.001 22.2394 136.473 22.7411 135.768 22.7411C135.064 22.7411 134.535 22.2394 134.535 21.67C134.535 21.1006 135.064 20.5989 135.768 20.5989C136.473 20.5989 137.001 21.1006 137.001 21.67Z" stroke="#941FCB" stroke-width="0.406332"/>
<path d="M161.923 59.3088C174.132 62.7558 180.962 63.4836 193.109 61.95C192.239 75.7192 190.146 82.8001 183.459 94.2534C171.924 98.7784 165.011 97.3135 152.375 91.917C160.737 80.6783 163.216 73.6647 161.923 59.3088Z" fill="#941FCB"/>
<path d="M159.485 54.636C171.694 58.0829 178.524 58.8108 190.671 57.2771C189.801 71.0463 187.708 78.1273 181.021 89.5805C169.486 94.1055 162.574 92.6406 149.937 87.2441C158.299 76.0054 160.778 68.9919 159.485 54.636Z" fill="white"/>
<path d="M149.937 87.0412C157.53 76.8467 160.295 70.2323 159.079 54.7378C170.817 58.1818 177.666 58.7884 190.367 57.4805C189.626 71.5492 188.579 79.1525 180.208 89.7839C170.549 94.5205 163.427 92.5951 149.937 87.0412Z" stroke="#941FCB" stroke-width="0.609498"/>
<path d="M175.739 60.8325C175.739 61.3561 175.357 61.7467 174.926 61.7467C174.495 61.7467 174.113 61.3561 174.113 60.8325C174.113 60.3089 174.495 59.9183 174.926 59.9183C175.357 59.9183 175.739 60.3089 175.739 60.8325Z" stroke="#941FCB" stroke-width="0.406332"/>
<path d="M164.26 63.8801C163.643 64.8316 165.241 65.351 176.551 66.2165" stroke="#941FCB" stroke-width="0.609498"/>
<path d="M169.644 69.2639C169.644 69.2639 182.443 75.4605 184.17 72.9209" stroke="#941FCB" stroke-width="0.609498"/>
<path d="M166.406 80.8442C165.999 83.1806 175.345 82.368 179.002 83.1806" stroke="#941FCB" stroke-width="0.609498"/>
<path d="M161.517 74.5461C166.572 76.0567 169.467 76.7554 174.926 77.2889" stroke="#941FCB" stroke-width="0.609498"/>
<path d="M157.657 84.7046C164.52 87.5584 168.336 88.0806 175.129 88.5647" stroke="#941FCB" stroke-width="0.609498"/>
<path d="M190.57 33.6081C200.255 32.8285 205.805 32.3708 216.169 31.4749C216.169 36.6717 216.169 38.4841 214.95 43.4616C205.503 44.2743 201.273 44.3847 190.57 43.4616V33.6081Z" fill="#941FCB"/>
<path d="M188.132 30.8654C197.817 30.0858 202.148 29.5265 212.512 28.6306C214.006 33.8266 213.974 35.5233 212.512 40.719C203.196 40.5946 198.835 41.642 188.132 40.719V30.8654Z" fill="white"/>
<path d="M188.538 40.6173V30.459L212.715 28.9353C214.141 33.8546 214.011 36.38 212.715 40.6173C203.802 41.7147 198.261 41.2005 188.538 40.6173Z" stroke="#941FCB" stroke-width="0.609498"/>
<path d="M192.094 33.5066H207.636" stroke="#941FCB" stroke-width="0.609498"/>
<path d="M198.696 37.5698H209.667" stroke="#941FCB" stroke-width="0.609498"/>
<path d="M61.946 215.956C62.0671 218.456 62.1871 220.933 62.3082 223.432C78.8786 229.509 82.3067 231.818 82.1072 232.739C82.0571 232.964 81.6631 233.652 73.0895 233.059C64.5971 232.461 57.6838 231.284 52.8742 230.275C53.4585 225.117 54.063 219.959 54.6473 214.802C57.0873 215.194 59.5273 215.585 61.946 215.956Z" fill="white" stroke="#AA3DD0" stroke-width="0.456535"/>
<path d="M62.8007 219.919C62.9218 222.418 62.8007 222.876 62.8007 222.876C79.3711 228.953 82.4033 228.446 82.5047 231.879C82.5047 234.007 80.0119 234.6 71.4383 234.007C62.9458 233.409 52.2331 232.765 51.8328 230.906C51.522 227.117 52.8304 225.076 53.4146 219.919C55.2431 221.721 60.0393 220.694 62.8007 219.919Z" fill="#941FCB"/>
<path d="M17.1701 216.469C16.9619 218.961 16.7555 221.432 16.5473 223.924C32.1494 232.524 35.2391 235.344 34.9208 236.224C34.8417 236.439 34.3615 237.058 25.954 235.134C17.6274 233.217 10.9398 230.974 6.31217 229.225C7.5674 224.212 8.84286 219.201 10.0981 214.187C12.4616 214.956 14.8251 215.724 17.1701 216.469Z" fill="white" stroke="#AA3DD0" stroke-width="0.456535"/>
<path d="M17.3483 220.594C17.1401 223.086 17.3483 223.333 17.3483 223.333C32.9504 231.932 35.7773 232.022 35.4271 235.436C35.1478 237.542 32.6027 237.74 24.1952 235.815C15.8687 233.898 5.35074 231.59 5.19858 229.687C5.38839 225.889 6.96237 223.781 8.2176 218.767C9.79069 220.837 14.5135 220.93 17.3483 220.594Z" fill="#941FCB"/>
<path d="M49.3709 111.248C49.8836 112.172 50.0834 112.937 50.1326 113.111C53.6854 126.392 57.864 134.114 61.0948 149.565C64.6228 165.874 66.2785 213.478 66.0484 216.707C64.78 217.401 60.904 218.69 57.7123 218.741C54.9061 218.769 52.6913 217.987 51.4227 217.417C51.4145 207.592 47.777 195.977 44.0266 182.818C39.4407 166.691 36.9545 161.092 31.7071 142.23C27.8157 128.259 23.3045 111.995 29.4788 106.737C34.2042 102.65 45.8427 104.774 49.3709 111.248Z" fill="white" stroke="#AA3DD0" stroke-width="0.456535"/>
<path opacity="0.19" d="M33.0339 147.261C41.5346 158.105 45.7436 168.132 47.9434 174.904C49.9509 181.065 50.9695 186.552 52.2906 193.662C54.1631 203.757 55.1065 212.309 55.6254 218.401C54.2692 218.124 52.9323 217.824 51.5761 217.547C51.3845 208.974 48.6778 200.87 46.9509 193.662C44.7246 184.369 41.8717 178.167 39.4337 168.864C38.0909 165.504 41.421 167.938 38.3839 160.682C36.0337 155.006 34.2208 150.342 33.0339 147.261Z" fill="#E1CEED"/>
<path d="M21.5683 113.166C16.8377 118.407 17.3366 125.343 17.2649 136.881C17.2649 136.881 19.3287 159.783 15.2569 182.818C14.2339 188.578 8.84671 202.118 4.99699 212.942C5.77667 213.917 9.11129 217.177 12.6641 218.281C16.2992 219.403 19.3081 218.52 20.4282 218.122C26.077 206.219 31.3363 195.271 33.8466 188.295C45.4898 156.084 44.4084 140.308 43.9893 131.66C43.5585 122.768 42.8999 112.115 36.6612 108.904C31.9666 106.49 25.3722 108.955 21.5683 113.166Z" fill="white" stroke="#AA3DD0" stroke-width="0.456535"/>
<path opacity="0.22" d="M17.4799 137.955C18.9115 148.187 21.8368 162 20.3361 178.056C18.8194 194.202 13.3404 207.463 10.0479 217.19C8.5525 216.375 5.80976 214.381 4.99709 213.052C6.20416 209.412 8.20962 204.414 10.0479 198.877C14.1875 186.408 15.6746 178.208 16.5776 169.972C17.4912 161.535 17.3487 150.783 17.4799 137.955Z" fill="#E1CEED"/>
<path d="M105.574 75.4759C105.991 76.2833 106.474 77.5166 106.461 79.0162C106.467 79.8004 106.435 80.8086 105.806 81.8082C105.547 82.1976 104.997 83.0539 104.076 83.212C103.809 83.2683 103.187 83.2925 101.299 81.8131C99.6243 80.4895 98.7787 79.8217 98.6711 79.0388C98.4649 77.5297 99.9987 76.0838 101.271 75.4782C103.286 74.5097 105.247 75.3379 105.574 75.4759Z" fill="white" stroke="#AA3DD0" stroke-width="0.456535"/>
<path d="M93.1096 72.7799C88.8672 73.7323 82.8793 71.9763 75.4279 70.812C70.5804 70.81 58.2722 67.0899 52.3119 63.3667C46.324 60.0259 43.9842 56.6414 41.661 57.6871C38.6427 59.0301 38.5972 65.6382 39.1655 71.6126C41.9444 72.8368 44.9013 73.9896 48.0839 75.0054C65.5034 80.6055 81.9725 79.9018 93.5942 77.9731C94.2992 78.7646 95.0238 79.4604 97.2163 80.6179C98.9105 81.2261 101.646 81.6136 102.142 80.693C102.738 79.5678 99.2999 77.325 99.0986 77.1529C100.505 77.5006 102.624 77.3465 105.212 77.3499C105.968 77.3483 110.312 77.3252 110.447 76.4173C110.571 75.6274 107.373 75.0191 104.422 73.9963C101.732 73.0636 100.104 72.2271 97.592 72.1536C95.1932 72.0624 93.7134 72.6421 93.1096 72.7799Z" fill="#F9F9F9" stroke="#AA3DD0" stroke-width="0.456535"/>
<path d="M106.038 77.7011C105.386 77.9045 104.725 78.0512 104.052 78.1126C103.565 78.1595 101.586 78.1483 101.911 79.1153C101.982 79.2932 101.695 79.4107 101.624 79.2328C101.392 78.5856 101.98 78.1595 102.534 77.9858C102.951 77.8626 103.402 77.8649 103.861 77.8225C104.563 77.7566 105.24 77.6219 105.908 77.4305C106.114 77.3547 106.232 77.6418 106.038 77.7011Z" fill="#AA3DD0"/>
<path d="M105.136 79.6592C104.153 79.9725 102.522 80.2413 101.807 79.2914C101.696 79.1343 101.929 78.9526 102.041 79.1096C102.649 79.9308 104.177 79.6634 105.007 79.3886C105.201 79.3292 105.33 79.5998 105.136 79.6592Z" fill="#AA3DD0"/>
<path d="M105.019 81.3349C103.939 81.6778 102.84 81.5294 101.885 80.9077C101.709 80.8043 101.889 80.5582 102.065 80.6616C102.921 81.2114 103.93 81.3447 104.902 81.0478C105.096 80.9885 105.214 81.2755 105.019 81.3349Z" fill="#AA3DD0"/>
<path d="M104.466 83.1948C103.108 83.4357 101.816 82.5176 101.644 81.1341C101.613 80.9354 101.925 80.8867 101.956 81.0854C102.102 82.2986 103.23 83.0969 104.417 82.8825C104.616 82.8515 104.665 83.1638 104.466 83.1948Z" fill="#AA3DD0"/>
<path opacity="0.2" d="M101.526 81.0636C101.85 80.9646 101.81 81.0193 102.144 80.2165C101.761 78.8459 101.123 78.3793 99.5845 77.0644C99.8798 77.2801 102.636 79.5093 102.229 80.445C102.166 80.6003 101.986 80.9613 101.536 81.0605C100.428 80.8552 98.4827 79.8824 96.6747 78.6377C95.7439 77.9832 95.0237 77.2813 94.5081 76.6784C88.6928 77.6143 79.0762 78.4161 67.7051 75.7985C57.7196 73.4881 45.7955 67.6398 41.0916 64.6076C39.8256 66.6516 40.8053 69.8575 39.5392 71.9015C48.4335 76.2576 63.3975 79.5962 78.8937 79.3897C84.1755 79.322 89.0251 78.8129 93.3761 78.0907C95.3977 80.1454 97.1128 80.794 98.3507 80.9935C99.4094 81.1628 99.5763 81.1495 100.696 81.3383C101.204 81.289 101.307 81.1908 101.324 81.1678C101.324 81.1678 101.509 81.0687 101.526 81.0636Z" fill="#E1CEED"/>
<path d="M51.7704 63.4736C54.1068 67.3337 54.0052 68.2073 54.1068 72.1081C53.3957 78.711 52.1767 78.6094 49.6931 82.6728C47.763 92.7498 49.9978 94.6468 49.6931 99.9901C49.4493 104.175 49.7744 107.609 50.0791 109.884C47.5192 111.286 43.2324 113.196 37.625 113.623C27.7105 114.374 20.3762 110.006 17.857 108.34C17.5522 101.961 17.2475 95.5611 16.9224 89.1817C18.0398 83.7368 19.3604 79.4703 20.3153 76.6666C23.3221 67.8289 26.1258 63.6437 24.338 59.2147C23.3425 56.7564 21.3717 55.2529 20.0105 54.4199C20.9654 53.6885 32.9166 45.3105 43.8469 49.1504C44.9847 49.5364 48.5913 58.2211 51.7704 63.4736Z" fill="#FCFCFC" stroke="#941FCB" stroke-width="0.456535"/>
<path opacity="0.19" d="M42.4196 56.8706C39.3721 61.7466 37.6045 66.4601 36.6293 69.4669C36.6293 69.4669 31.9514 76.7885 35.4459 96.2518C36.1976 100.396 37.5385 106.288 40.1797 113.033C39.1638 113.257 37.9448 113.44 36.5633 113.501C36.5633 113.501 34.4301 113.602 32.0327 113.297C29.1071 112.911 24.0889 111.347 18.1768 108.34C18.0752 101.534 17.9736 94.7484 17.872 87.9423C19.3755 82.1927 20.8992 77.5808 22.0369 74.3505C24.7797 66.6505 26.7098 63.0341 25.1251 59.2146C24.0889 56.7157 21.976 55.1716 20.3303 54.2777C22.4839 52.8555 26.466 50.641 31.9108 49.7877C36.4008 49.097 40.0628 56.3627 42.4196 56.8706Z" fill="#E1CEED"/>
<path d="M21.6107 53.8715C17.3646 53.3026 12.3057 63.0546 10.2944 70.0638C7.97829 78.1295 7.96288 85.0905 8.79586 88.7678C10.9291 95.777 14.825 101.067 16.9379 103.81C16.6128 104.886 15.8611 107.812 17.1004 111.022C18.9289 115.715 23.8507 117.841 24.2367 117.414C24.3586 117.272 24.1503 116.812 22.2202 114.598C22.6266 115.024 25.5522 117.93 28.8434 117.239C29.4123 117.117 30.3317 116.662 30.738 116.094C31.6929 114.712 30.4332 111.014 26.5273 108.422C28.503 109.592 29.9251 110.1 31.0425 109.186C31.3473 108.069 28.0714 104.947 26.7102 103.932C24.6989 102.448 23.241 102.299 22.0016 101.669C18.5275 94.4564 18.3601 87.9627 18.6648 85.3216C19.1118 81.4208 20.5746 77.1746 20.859 76.3619C21.6717 74.0255 22.0577 73.4973 23.683 69.2918C26.3039 62.5466 26.3039 61.3886 26.2023 60.4947C25.8366 57.8129 24.0284 54.1965 21.6107 53.8715Z" fill="white" stroke="#AA3DD0" stroke-width="0.456535"/>
<path d="M30.4483 115.837C28.1932 114.557 26.2225 112.911 24.5769 110.92C24.3331 110.616 24.7597 110.189 25.0035 110.494C26.6085 112.444 28.5386 114.069 30.7531 115.329C31.0985 115.492 30.7937 116.02 30.4483 115.837Z" fill="#AA3DD0"/>
<path d="M28.4574 117.198C26.2226 116.04 24.3128 114.435 22.7687 112.444C22.5249 112.139 23.0532 111.835 23.297 112.139C24.7598 114.049 26.6289 115.573 28.7621 116.67C29.1075 116.853 28.8028 117.381 28.4574 117.198Z" fill="#AA3DD0"/>
<path opacity="0.17" d="M23.5001 55.4747C27.5431 58.9894 11.046 74.4097 13.87 91.9227C15.8001 103.93 23.8048 111.772 23.8048 111.772C26.0396 114.007 30.2452 116.75 29.7373 117.704C29.3716 118.395 26.832 117.765 25.9177 117.481C24.1908 116.953 22.9921 116.059 22.3217 115.47C23.3375 116.607 24.4956 118.009 24.2518 118.294C23.9064 118.659 21.0214 117.156 19.2133 115.043C16.0845 111.386 16.5315 106.307 16.8362 104.235C16.1048 103.28 15.1499 101.939 14.1747 100.232C13.2808 98.7084 9.79128 94.2312 8.67386 87.7705C6.70315 76.3322 11.6555 67.0348 13.2808 63.4997C14.7436 60.3507 17.2222 55.1293 20.9808 54.9058C21.4684 54.8449 22.7077 54.7839 23.5001 55.4747Z" fill="#E1CEED"/>
<path d="M47.5202 43.0073C47.5431 44.6185 45.901 45.1347 45.0398 47.8785C44.427 49.8615 46.4429 54.0263 46.3414 55.8548C46.2398 57.6833 40.62 57.2716 37.7632 56.5037C35.5155 55.8977 34.4341 51.1966 33.4394 50.4617C33.766 49.4681 34.2489 48.0091 34.8261 46.2749C37.3335 38.8888 37.7965 38.2284 38.5535 37.8441C41.5834 36.3272 47.477 40.0094 47.5202 43.0073Z" fill="white" stroke="#941FCB" stroke-width="0.456535"/>
<path d="M57.0117 20.932C57.7987 21.8313 58.8555 22.9199 59.4425 28.0267C59.8834 31.8619 57.2407 30.4464 58.894 39.2143C57.6253 39.1407 57.446 39.3838 56.4824 38.952C56.1802 39.9839 55.8095 41.1938 54.7726 42.6282C52.7169 45.4745 50.7747 45.0094 48.5844 44.5647C46.9156 44.226 43.7964 42.1983 39.1733 37.4662C37.3241 35.5733 38.6454 39.5297 38.4763 39.0774C37.4143 36.1027 37.6275 34.6026 37.9033 33.5122C37.3954 33.3398 35.7999 32.8709 35.155 32.1612C33.7961 30.6672 34.2336 26.8309 35.609 25.7089C36.6254 24.869 38.6428 24.7763 40.2519 26.122C40.4983 25.3409 40.8638 24.5756 41.5619 23.4213C41.737 23.1378 43.0488 21.0011 44.802 19.779C48.1669 17.3493 54.1882 17.7098 57.0117 20.932Z" fill="white" stroke="#941FCB" stroke-width="0.456535"/>
<path opacity="0.24" d="M46.0049 32.2084C43.8814 35.3885 43.4318 38.5596 43.4318 38.5596C43.0015 42.1169 46.2874 43.0857 46.9155 44.2261C44.9673 45.1415 41.3962 46.1627 40.114 44.6199C39.5285 47.6621 42.7619 54.1332 42.1764 57.1754C41.5032 57.1834 38.1644 56.83 36.6903 56.0014C35.5624 55.3619 33.797 50.315 33.3972 49.8048C34.8781 48.1205 37.6653 44.4432 38.5571 39.0207C38.9821 36.4035 39.072 34.6991 38.8164 33.0098C36.8611 32.8639 35.2173 32.7676 35.6051 30.5832C35.3896 29.482 38.221 26.4333 39.6767 26.4877C40.8878 26.5468 41.3458 27.6229 41.4734 29.0599C42.3828 28.9663 43.8668 28.3029 45.9707 26.7179C48.1512 25.0841 49.063 23.0295 49.4021 22.1572C49.7005 26.0479 48.7391 28.414 47.8053 29.8581C47.1916 30.8403 46.8724 30.9141 46.0049 32.2084Z" fill="#E1CEED"/>
<path d="M53.579 30.7873C53.7997 31.6007 53.7765 32.4336 53.469 33.2249C53.3664 33.509 52.9804 33.528 52.8798 33.2229C52.6386 32.4906 52.6412 31.7186 52.8673 30.988C52.9904 30.6227 53.5791 30.767 53.4559 31.1526C53.2505 31.802 53.2686 32.4319 53.4695 33.0827C53.2663 33.082 53.0835 33.0814 52.8803 33.0807C53.1468 32.3908 53.1899 31.6799 52.9892 30.9681C52.8891 30.5614 53.4585 30.4009 53.579 30.7873Z" fill="#941FCB"/>
<path d="M54.0465 29.4273C53.4878 29.158 52.8473 29.2852 52.4464 29.7554C52.1905 30.0473 51.7224 29.6666 51.9783 29.3747C52.5424 28.7039 53.5 28.4828 54.2956 28.8706C54.6397 29.0394 54.3907 29.5961 54.0465 29.4273Z" fill="#941FCB"/>
<path d="M57.491 30.8608C57.7 31.6831 57.6442 32.5145 57.3263 33.294C57.2127 33.5738 56.827 33.5574 56.7377 33.2689C56.5252 32.5278 56.5378 31.7556 56.7719 31.0335C56.8899 30.6521 57.4716 30.8396 57.3537 31.221C57.1433 31.8627 57.1368 32.4928 57.3332 33.1316C57.1302 33.1229 56.9476 33.1151 56.7446 33.1065C57.0176 32.4267 57.0885 31.718 56.8955 30.9981C56.8104 30.6081 57.406 30.4708 57.491 30.8608Z" fill="#941FCB"/>
<path d="M58.2356 29.8575C57.8953 29.5167 57.3027 29.4375 56.9098 29.7401C56.6054 29.9641 56.1925 29.5154 56.4969 29.2914C57.182 28.8035 58.0825 28.8515 58.6844 29.4446C58.9593 29.7224 58.5105 30.1353 58.2356 29.8575Z" fill="#941FCB"/>
<path d="M55.5503 41.0571C53.9651 40.9344 52.5257 40.2452 51.3883 39.1164C51.1835 38.9129 51.4736 38.5562 51.6784 38.7598C52.7489 39.8342 54.1012 40.4711 55.6258 40.6C55.915 40.6315 55.8395 41.0886 55.5503 41.0571Z" fill="#941FCB"/>
<path d="M8.65401 68.4138L23.3835 74.5088C28.0002 64.6777 30.8959 56.7991 23.3835 53.6842C15.869 50.5685 11.8875 55.8205 8.65401 68.4138Z" fill="white" stroke="#AA3DD0" stroke-width="0.456535"/>
<path d="M59.181 27.5227C59.9749 27.298 61.1197 26.4653 61.7002 25.1597C61.9788 20.9237 60.9002 20.2177 60.3745 19.4753C59.942 18.8459 59.3435 16.3545 54.9231 13.889C51.5638 12.0086 49.1187 13.0569 47.4009 13.2337C43.8656 10.6363 36.3881 14.1838 35.4177 14.876C33.3822 16.3314 31.9401 17.8483 30.957 19.0115C29.4461 20.801 26.839 22.8055 25.4779 27.4389C17.9752 36.8916 21.4409 39.2103 21.0662 43.109C20.6424 47.5234 15.7538 53.6024 18.607 55.9229C21.4602 58.2435 32.5096 56.6565 35.2726 55.1262C39.1175 52.9943 36.5223 47.6245 37.5669 44.678C39.3352 39.635 39.4478 35.9675 38.9175 32.9994C36.8362 32.6214 35.3193 32.3691 35.6364 30.8863C35.8836 29.7171 37.6246 26.3926 39.9903 26.5575C41.0927 26.7504 41.5153 28.8718 41.5878 30.1715C42.5558 30.0514 44.5263 28.8069 46.8004 26.6937C48.4597 25.1545 49.2027 23.444 49.5355 22.5111C49.67 23.8172 52.2869 25.1817 54.6967 26.5675C56.7093 27.6674 58.5599 26.6472 59.181 27.5227Z" fill="#941FCB"/>
</svg>
