<svg width="73" height="11" viewBox="0 0 73 11" fill="none" xmlns="http://www.w3.org/2000/svg">
<path d="M6.20703 3.43164C6.16602 3.03971 5.99512 2.73438 5.69434 2.51562C5.39811 2.29688 4.99935 2.1875 4.49805 2.1875C4.15625 2.1875 3.8623 2.23763 3.61621 2.33789C3.37467 2.43359 3.1901 2.56803 3.0625 2.74121C2.9349 2.91439 2.87109 3.11035 2.87109 3.3291C2.87109 3.65723 3.01237 3.91699 3.29492 4.1084C3.58203 4.29525 3.9694 4.44336 4.45703 4.55273L5.3457 4.77148C6.26172 4.98112 6.98405 5.32292 7.5127 5.79688C8.04134 6.26628 8.30794 6.89062 8.3125 7.66992C8.3125 8.27148 8.15983 8.79557 7.85449 9.24219C7.54915 9.6888 7.10938 10.0329 6.53516 10.2744C5.96094 10.516 5.27734 10.6367 4.48438 10.6367C3.68229 10.6413 2.9873 10.5205 2.39941 10.2744C1.81152 10.0283 1.35352 9.66374 1.02539 9.18066C0.697266 8.69759 0.524089 8.10742 0.505859 7.41016H2.50195C2.53385 7.89779 2.72526 8.27148 3.07617 8.53125C3.43164 8.78646 3.89193 8.91406 4.45703 8.91406C4.8125 8.91406 5.12467 8.86165 5.39355 8.75684C5.66243 8.65202 5.86979 8.50618 6.01562 8.31934C6.16146 8.13249 6.23438 7.91602 6.23438 7.66992C6.23438 7.35091 6.09538 7.09798 5.81738 6.91113C5.54395 6.71973 5.11784 6.55339 4.53906 6.41211L3.45898 6.15234C1.66341 5.71029 0.765625 4.8125 0.765625 3.45898C0.765625 2.87109 0.92513 2.35156 1.24414 1.90039C1.56771 1.44466 2.01204 1.09147 2.57715 0.84082C3.14681 0.590169 3.79167 0.464844 4.51172 0.464844C5.23177 0.464844 5.86751 0.590169 6.41895 0.84082C6.97038 1.09147 7.39876 1.44238 7.7041 1.89355C8.00944 2.34017 8.16667 2.85286 8.17578 3.43164H6.20703ZM17.8418 0.601562V7.02734C17.8418 7.74284 17.6709 8.37402 17.3291 8.9209C16.9873 9.46777 16.5065 9.8916 15.8867 10.1924C15.2669 10.4886 14.5514 10.6367 13.7402 10.6367C12.929 10.6367 12.2135 10.4886 11.5938 10.1924C10.9785 9.8916 10.5 9.46777 10.1582 8.9209C9.82096 8.37402 9.65234 7.74284 9.65234 7.02734V0.601562H11.7031V6.86328C11.7031 7.24154 11.7874 7.58105 11.9561 7.88184C12.1292 8.17806 12.3685 8.41048 12.6738 8.5791C12.9837 8.74772 13.3392 8.83203 13.7402 8.83203C14.1458 8.83203 14.5036 8.74772 14.8135 8.5791C15.1234 8.41048 15.3604 8.17806 15.5244 7.88184C15.693 7.58105 15.7773 7.24154 15.7773 6.86328V0.601562H17.8418ZM19.5098 0.601562H23.3926C24.1263 0.601562 24.7598 0.742839 25.293 1.02539C25.8262 1.30794 26.2318 1.70215 26.5098 2.20801C26.7923 2.70931 26.9336 3.28581 26.9336 3.9375C26.9336 4.59831 26.79 5.18164 26.5029 5.6875C26.2204 6.1888 25.8079 6.57845 25.2656 6.85645C24.7279 7.13444 24.0853 7.27344 23.3379 7.27344H21.5605V10.5H19.5098V0.601562ZM23.0098 5.61914C23.6022 5.61914 24.0511 5.46875 24.3564 5.16797C24.6663 4.86263 24.819 4.45247 24.8145 3.9375C24.819 3.43164 24.6663 3.0306 24.3564 2.73438C24.0511 2.43815 23.6022 2.28776 23.0098 2.2832H21.5605V5.61914H23.0098ZM28.2324 0.601562H32.1152C32.849 0.601562 33.4824 0.742839 34.0156 1.02539C34.5488 1.30794 34.9544 1.70215 35.2324 2.20801C35.515 2.70931 35.6562 3.28581 35.6562 3.9375C35.6562 4.59831 35.5127 5.18164 35.2256 5.6875C34.943 6.1888 34.5306 6.57845 33.9883 6.85645C33.4505 7.13444 32.8079 7.27344 32.0605 7.27344H30.2832V10.5H28.2324V0.601562ZM31.7324 5.61914C32.3249 5.61914 32.7738 5.46875 33.0791 5.16797C33.389 4.86263 33.5417 4.45247 33.5371 3.9375C33.5417 3.43164 33.389 3.0306 33.0791 2.73438C32.7738 2.43815 32.3249 2.28776 31.7324 2.2832H30.2832V5.61914H31.7324ZM46.0195 5.55078C46.0195 6.60352 45.819 7.5127 45.418 8.27832C45.0169 9.04395 44.4655 9.62956 43.7637 10.0352C43.0664 10.4362 42.278 10.6367 41.3984 10.6367C40.5143 10.6367 39.7214 10.4362 39.0195 10.0352C38.3177 9.62956 37.7663 9.04395 37.3652 8.27832C36.9642 7.50814 36.7637 6.59896 36.7637 5.55078C36.7637 4.49805 36.9642 3.58887 37.3652 2.82324C37.7663 2.05762 38.3177 1.47428 39.0195 1.07324C39.7214 0.667643 40.5143 0.464844 41.3984 0.464844C42.278 0.464844 43.0664 0.667643 43.7637 1.07324C44.4655 1.47428 45.0169 2.05762 45.418 2.82324C45.819 3.58887 46.0195 4.49805 46.0195 5.55078ZM38.8555 5.55078C38.8555 6.24349 38.958 6.83594 39.1631 7.32812C39.3727 7.81576 39.6689 8.1849 40.0518 8.43555C40.4346 8.6862 40.8835 8.8138 41.3984 8.81836C41.9089 8.8138 42.3532 8.6862 42.7314 8.43555C43.1143 8.18034 43.4082 7.80892 43.6133 7.32129C43.8229 6.83366 43.9277 6.24349 43.9277 5.55078C43.9277 4.85807 43.8229 4.2679 43.6133 3.78027C43.4082 3.28809 43.1143 2.91667 42.7314 2.66602C42.3532 2.41536 41.9089 2.28776 41.3984 2.2832C40.8835 2.28776 40.4346 2.41536 40.0518 2.66602C39.6689 2.91667 39.3727 3.28809 39.1631 3.78027C38.958 4.2679 38.8555 4.85807 38.8555 5.55078ZM47.4961 0.601562H51.3789C52.1172 0.601562 52.7529 0.733724 53.2861 0.998047C53.8193 1.26237 54.2249 1.63835 54.5029 2.12598C54.7809 2.60905 54.9199 3.17643 54.9199 3.82812C54.9199 4.5026 54.7695 5.08138 54.4688 5.56445C54.168 6.04753 53.735 6.40983 53.1699 6.65137L55.2754 10.5H53.0059L51.1123 6.98633H49.5469V10.5H47.4961V0.601562ZM50.9961 5.31836C52.2083 5.31836 52.8099 4.82161 52.8008 3.82812C52.8053 3.32682 52.6572 2.94629 52.3564 2.68652C52.0557 2.4222 51.6022 2.28776 50.9961 2.2832H49.5469V5.31836H50.9961ZM55.959 0.601562H64.0664V2.29688H61.0312V10.5H58.9941V2.29688H55.959V0.601562ZM70.7109 3.43164C70.6699 3.03971 70.499 2.73438 70.1982 2.51562C69.902 2.29688 69.5033 2.1875 69.002 2.1875C68.6602 2.1875 68.3662 2.23763 68.1201 2.33789C67.8786 2.43359 67.694 2.56803 67.5664 2.74121C67.4388 2.91439 67.375 3.11035 67.375 3.3291C67.375 3.65723 67.5163 3.91699 67.7988 4.1084C68.0859 4.29525 68.4733 4.44336 68.9609 4.55273L69.8496 4.77148C70.7656 4.98112 71.488 5.32292 72.0166 5.79688C72.5452 6.26628 72.8118 6.89062 72.8164 7.66992C72.8164 8.27148 72.6637 8.79557 72.3584 9.24219C72.0531 9.6888 71.6133 10.0329 71.0391 10.2744C70.4648 10.516 69.7812 10.6367 68.9883 10.6367C68.1862 10.6413 67.4912 10.5205 66.9033 10.2744C66.3154 10.0283 65.8574 9.66374 65.5293 9.18066C65.2012 8.69759 65.028 8.10742 65.0098 7.41016H67.0059C67.0378 7.89779 67.2292 8.27148 67.5801 8.53125C67.9355 8.78646 68.3958 8.91406 68.9609 8.91406C69.3164 8.91406 69.6286 8.86165 69.8975 8.75684C70.1663 8.65202 70.3737 8.50618 70.5195 8.31934C70.6654 8.13249 70.7383 7.91602 70.7383 7.66992C70.7383 7.35091 70.5993 7.09798 70.3213 6.91113C70.0479 6.71973 69.6217 6.55339 69.043 6.41211L67.9629 6.15234C66.1673 5.71029 65.2695 4.8125 65.2695 3.45898C65.2695 2.87109 65.429 2.35156 65.748 1.90039C66.0716 1.44466 66.516 1.09147 67.0811 0.84082C67.6507 0.590169 68.2956 0.464844 69.0156 0.464844C69.7357 0.464844 70.3714 0.590169 70.9229 0.84082C71.4743 1.09147 71.9027 1.44238 72.208 1.89355C72.5133 2.34017 72.6706 2.85286 72.6797 3.43164H70.7109Z" fill="#6F3C8F"/>
</svg>
